<?xml version="1.0" encoding="UTF-8" standalone="no"?>
<!DOCTYPE svg PUBLIC "-//W3C//DTD SVG 1.1//EN"
 "http://www.w3.org/Graphics/SVG/1.1/DTD/svg11.dtd">
<!-- Generated by graphviz version 7.1.0 (20230121.1956)
 -->
<!-- Title: on_request_impl Pages: 1 -->
<svg width="316pt" height="138pt"
 viewBox="0.00 0.00 316.00 138.00" xmlns="http://www.w3.org/2000/svg" xmlns:xlink="http://www.w3.org/1999/xlink">
<g id="graph0" class="graph" transform="scale(1 1) rotate(0) translate(4 134)">
<title>on_request_impl</title>
<!-- Node1 -->
<g id="Node000001" class="node">
<title>Node1</title>
<g id="a_Node000001"><a xlink:title=" ">
<polygon fill="#999999" stroke="#666666" points="308,-74 220,-74 220,-55 308,-55 308,-74"/>
<text text-anchor="middle" x="264" y="-62" font-family="Helvetica,sans-Serif" font-size="10.00">on_request_impl</text>
</a>
</g>
</g>
<!-- Node2 -->
<g id="Node000002" class="node">
<title>Node2</title>
<g id="a_Node000002"><a xlink:href="avoidance__nohold_8c.html#a10104c43ec76e2e1094e1168e2bc3a09" target="_top" xlink:title=" ">
<polygon fill="white" stroke="#666666" points="180.5,-130 77.5,-130 77.5,-111 180.5,-111 180.5,-130"/>
<text text-anchor="middle" x="129" y="-118" font-family="Helvetica,sans-Serif" font-size="10.00">policy_avoid_nohold</text>
</a>
</g>
</g>
<!-- Node1&#45;&gt;Node2 -->
<g id="edge1_Node000001_Node000002" class="edge">
<title>Node1&#45;&gt;Node2</title>
<g id="a_edge1_Node000001_Node000002"><a xlink:title=" ">
<path fill="none" stroke="#63b8ff" d="M234.1,-79.49C219.31,-86.88 200.91,-95.65 184,-102.5 177.04,-105.32 169.45,-108.05 162.22,-110.5"/>
<polygon fill="#63b8ff" stroke="#63b8ff" points="235.46,-82.72 242.8,-75.09 232.29,-76.48 235.46,-82.72"/>
</a>
</g>
</g>
<!-- Node4 -->
<g id="Node000004" class="node">
<title>Node4</title>
<g id="a_Node000004"><a xlink:href="avoidance__ordering_8c.html#ae9cd6ecb253a191ea203d1c443042ba3" target="_top" xlink:title=" ">
<polygon fill="white" stroke="#666666" points="183.5,-93 74.5,-93 74.5,-74 183.5,-74 183.5,-93"/>
<text text-anchor="middle" x="129" y="-81" font-family="Helvetica,sans-Serif" font-size="10.00">policy_avoid_ordering</text>
</a>
</g>
</g>
<!-- Node1&#45;&gt;Node4 -->
<g id="edge3_Node000001_Node000004" class="edge">
<title>Node1&#45;&gt;Node4</title>
<g id="a_edge3_Node000001_Node000004"><a xlink:title=" ">
<path fill="none" stroke="#63b8ff" d="M208.46,-72.29C200.28,-73.46 191.84,-74.67 183.67,-75.83"/>
<polygon fill="#63b8ff" stroke="#63b8ff" points="208.92,-75.76 218.32,-70.88 207.93,-68.83 208.92,-75.76"/>
</a>
</g>
</g>
<!-- Node5 -->
<g id="Node000005" class="node">
<title>Node5</title>
<g id="a_Node000005"><a xlink:href="avoidance__preempt_8c.html#a797f2962fa85e122ebb2994084a08476" target="_top" xlink:title=" ">
<polygon fill="white" stroke="#666666" points="184,-56 74,-56 74,-37 184,-37 184,-56"/>
<text text-anchor="middle" x="129" y="-44" font-family="Helvetica,sans-Serif" font-size="10.00">policy_avoid_preempt</text>
</a>
</g>
</g>
<!-- Node1&#45;&gt;Node5 -->
<g id="edge5_Node000001_Node000005" class="edge">
<title>Node1&#45;&gt;Node5</title>
<g id="a_edge5_Node000001_Node000005"><a xlink:title=" ">
<path fill="none" stroke="#63b8ff" d="M208.62,-57.14C200.54,-56.05 192.22,-54.92 184.15,-53.83"/>
<polygon fill="#63b8ff" stroke="#63b8ff" points="207.94,-60.58 218.32,-58.45 208.88,-53.64 207.94,-60.58"/>
</a>
</g>
</g>
<!-- Node6 -->
<g id="Node000006" class="node">
<title>Node6</title>
<g id="a_Node000006"><a xlink:href="prevention__banker_8c.html#a0ee4f791cdb037548f2cf33a793fb6de" target="_top" xlink:title=" ">
<polygon fill="white" stroke="#666666" points="167.5,-19 90.5,-19 90.5,0 167.5,0 167.5,-19"/>
<text text-anchor="middle" x="129" y="-7" font-family="Helvetica,sans-Serif" font-size="10.00">policy_banker</text>
</a>
</g>
</g>
<!-- Node1&#45;&gt;Node6 -->
<g id="edge7_Node000001_Node000006" class="edge">
<title>Node1&#45;&gt;Node6</title>
<g id="a_edge7_Node000001_Node000006"><a xlink:title=" ">
<path fill="none" stroke="#63b8ff" d="M232.04,-49.62C217.58,-42.86 200.04,-34.96 184,-28.5 176.26,-25.38 167.78,-22.26 159.89,-19.48"/>
<polygon fill="#63b8ff" stroke="#63b8ff" points="230.52,-52.77 241.06,-53.87 233.51,-46.44 230.52,-52.77"/>
</a>
</g>
</g>
<!-- Node3 -->
<g id="Node000003" class="node">
<title>Node3</title>
<g id="a_Node000003"><a xlink:href="main_8c.html#a3c04138a5bfe5d72780bb7e82a18e627" target="_top" xlink:title=" ">
<polygon fill="white" stroke="#666666" points="38,-74 0,-74 0,-55 38,-55 38,-74"/>
<text text-anchor="middle" x="19" y="-62" font-family="Helvetica,sans-Serif" font-size="10.00">main</text>
</a>
</g>
</g>
<!-- Node2&#45;&gt;Node3 -->
<g id="edge2_Node000002_Node000003" class="edge">
<title>Node2&#45;&gt;Node3</title>
<g id="a_edge2_Node000002_Node000003"><a xlink:title=" ">
<path fill="none" stroke="#63b8ff" d="M82.47,-106.4C79.56,-105.17 76.72,-103.87 74,-102.5 58.44,-94.65 42.32,-82.72 31.79,-74.33"/>
<polygon fill="#63b8ff" stroke="#63b8ff" points="81.11,-109.63 91.7,-109.99 83.64,-103.11 81.11,-109.63"/>
</a>
</g>
</g>
<!-- Node4&#45;&gt;Node3 -->
<g id="edge4_Node000004_Node000003" class="edge">
<title>Node4&#45;&gt;Node3</title>
<g id="a_edge4_Node000004_Node000003"><a xlink:title=" ">
<path fill="none" stroke="#63b8ff" d="M62.91,-72.05C53.94,-70.47 45.39,-68.97 38.32,-67.72"/>
<polygon fill="#63b8ff" stroke="#63b8ff" points="62.05,-75.45 72.51,-73.74 63.27,-68.56 62.05,-75.45"/>
</a>
</g>
</g>
<!-- Node5&#45;&gt;Node3 -->
<g id="edge6_Node000005_Node000003" class="edge">
<title>Node5&#45;&gt;Node3</title>
<g id="a_edge6_Node000005_Node000003"><a xlink:title=" ">
<path fill="none" stroke="#63b8ff" d="M62.35,-57.44C53.53,-58.91 45.14,-60.31 38.19,-61.47"/>
<polygon fill="#63b8ff" stroke="#63b8ff" points="62.9,-60.9 72.19,-55.8 61.75,-53.99 62.9,-60.9"/>
</a>
</g>
</g>
<!-- Node6&#45;&gt;Node3 -->
<g id="edge8_Node000006_Node000003" class="edge">
<title>Node6&#45;&gt;Node3</title>
<g id="a_edge8_Node000006_Node000003"><a xlink:title=" ">
<path fill="none" stroke="#63b8ff" d="M84.91,-23.56C81.17,-25.11 77.48,-26.76 74,-28.5 59.08,-35.95 43.36,-46.82 32.76,-54.66"/>
<polygon fill="#63b8ff" stroke="#63b8ff" points="86,-26.89 94.06,-20.01 83.47,-20.36 86,-26.89"/>
</a>
</g>
</g>
</g>
</svg>
