<?xml version="1.0" encoding="UTF-8" standalone="no"?>
<!DOCTYPE svg PUBLIC "-//W3C//DTD SVG 1.1//EN"
 "http://www.w3.org/Graphics/SVG/1.1/DTD/svg11.dtd">
<!-- Generated by graphviz version 7.1.0 (20230121.1956)
 -->
<!-- Title: engine_run Pages: 1 -->
<svg width="341pt" height="288pt"
 viewBox="0.00 0.00 341.00 288.00" xmlns="http://www.w3.org/2000/svg" xmlns:xlink="http://www.w3.org/1999/xlink">

<svg id="main" version="1.1" xmlns="http://www.w3.org/2000/svg" xmlns:xlink="http://www.w3.org/1999/xlink" xml:space="preserve">

<style type="text/css"><![CDATA[
.node, .edge {opacity: 0.7;}
.node.selected, .edge.selected {opacity: 1;}
.edge:hover path { stroke: red; }
.edge:hover polygon { stroke: red; fill: red; }
]]></style>
<script type="application/ecmascript" xlink:href="svg.min.js"/>
<svg id="graph" class="graph">
<g id="graph0" class="graph" transform="scale(1 1) rotate(0) translate(4 284)">
<title>engine_run</title>
<!-- Node1 -->
<g id="Node000001" class="node">
<title>Node1</title>
<g id="a_Node000001"><a xlink:title=" ">
<polygon fill="#999999" stroke="#666666" points="64,-150 0,-150 0,-131 64,-131 64,-150"/>
<text text-anchor="middle" x="32" y="-138" font-family="Helvetica,sans-Serif" font-size="10.00">engine_run</text>
</a>
</g>
</g>
<!-- Node2 -->
<g id="Node000002" class="node">
<title>Node2</title>
<g id="a_Node000002"><a xlink:href="engine_8c.html#aa56c4f3a94086972987d63d045d6b229" target="_top" xlink:title=" ">
<polygon fill="white" stroke="#666666" points="311,-168 261,-168 261,-149 311,-149 311,-168"/>
<text text-anchor="middle" x="286" y="-156" font-family="Helvetica,sans-Serif" font-size="10.00">cmp_ev</text>
</a>
</g>
</g>
<!-- Node1&#45;&gt;Node2 -->
<g id="edge1_Node000001_Node000002" class="edge">
<title>Node1&#45;&gt;Node2</title>
<g id="a_edge1_Node000001_Node000002"><a xlink:title=" ">
<path fill="none" stroke="#63b8ff" d="M46.54,-130.61C59.51,-121.8 80.02,-109.53 100,-104.5 144.39,-93.33 159.15,-91.36 203,-104.5 227.07,-111.71 250.61,-128.52 266.25,-141.49"/>
<polygon fill="#63b8ff" stroke="#63b8ff" points="263.89,-144.08 273.75,-147.95 268.46,-138.77 263.89,-144.08"/>
</a>
</g>
</g>
<!-- Node3 -->
<g id="Node000003" class="node">
<title>Node3</title>
<g id="a_Node000003"><a xlink:href="engine_8c.html#a5710b628059d89386cee9ec869947a71" target="_top" xlink:title=" ">
<polygon fill="white" stroke="#666666" points="203,-243 100,-243 100,-224 203,-224 203,-243"/>
<text text-anchor="middle" x="151.5" y="-231" font-family="Helvetica,sans-Serif" font-size="10.00">do_deadlock_check</text>
</a>
</g>
</g>
<!-- Node1&#45;&gt;Node3 -->
<g id="edge2_Node000001_Node000003" class="edge">
<title>Node1&#45;&gt;Node3</title>
<g id="a_edge2_Node000001_Node000003"><a xlink:title=" ">
<path fill="none" stroke="#63b8ff" d="M39.42,-150.45C50.14,-166.33 73.2,-197.47 100,-215.5 101.77,-216.69 103.62,-217.81 105.53,-218.86"/>
<polygon fill="#63b8ff" stroke="#63b8ff" points="103.54,-221.79 114.07,-222.94 106.56,-215.47 103.54,-221.79"/>
</a>
</g>
</g>
<!-- Node4 -->
<g id="Node000004" class="node">
<title>Node4</title>
<g id="a_Node000004"><a xlink:href="engine_8c.html#afcdf5ae2c175384fa2bf3acf6c00249f" target="_top" xlink:title=" ">
<polygon fill="white" stroke="#666666" points="188,-280 115,-280 115,-261 188,-261 188,-280"/>
<text text-anchor="middle" x="151.5" y="-268" font-family="Helvetica,sans-Serif" font-size="10.00">handle_arrive</text>
</a>
</g>
</g>
<!-- Node1&#45;&gt;Node4 -->
<g id="edge3_Node000001_Node000004" class="edge">
<title>Node1&#45;&gt;Node4</title>
<g id="a_edge3_Node000001_Node000004"><a xlink:title=" ">
<path fill="none" stroke="#63b8ff" d="M36.3,-150.43C43.99,-172.09 65.14,-223.9 100,-252.5 101.48,-253.72 103.06,-254.86 104.69,-255.92"/>
<polygon fill="#63b8ff" stroke="#63b8ff" points="102.81,-258.88 113.28,-260.52 106.12,-252.71 102.81,-258.88"/>
</a>
</g>
</g>
<!-- Node6 -->
<g id="Node000006" class="node">
<title>Node6</title>
<g id="a_Node000006"><a xlink:href="engine_8c.html#ab9eab32ff555a432bc94e74ce2e5ae47" target="_top" xlink:title=" ">
<polygon fill="white" stroke="#666666" points="188,-169 115,-169 115,-150 188,-150 188,-169"/>
<text text-anchor="middle" x="151.5" y="-157" font-family="Helvetica,sans-Serif" font-size="10.00">handle_finish</text>
</a>
</g>
</g>
<!-- Node1&#45;&gt;Node6 -->
<g id="edge5_Node000001_Node000006" class="edge">
<title>Node1&#45;&gt;Node6</title>
<g id="a_edge5_Node000001_Node000006"><a xlink:title=" ">
<path fill="none" stroke="#63b8ff" d="M64.49,-145.59C76.48,-147.53 90.41,-149.78 103.53,-151.9"/>
<polygon fill="#63b8ff" stroke="#63b8ff" points="102.85,-155.34 113.28,-153.48 103.97,-148.43 102.85,-155.34"/>
</a>
</g>
</g>
<!-- Node7 -->
<g id="Node000007" class="node">
<title>Node7</title>
<g id="a_Node000007"><a xlink:href="engine_8c.html#ad75a1e07bbac11faaead826dbe7201c5" target="_top" xlink:title=" ">
<polygon fill="white" stroke="#666666" points="182,-132 121,-132 121,-113 182,-113 182,-132"/>
<text text-anchor="middle" x="151.5" y="-120" font-family="Helvetica,sans-Serif" font-size="10.00">handle_rel</text>
</a>
</g>
</g>
<!-- Node1&#45;&gt;Node7 -->
<g id="edge6_Node000001_Node000007" class="edge">
<title>Node1&#45;&gt;Node7</title>
<g id="a_edge6_Node000001_Node000007"><a xlink:title=" ">
<path fill="none" stroke="#63b8ff" d="M64.49,-135.68C78.22,-133.57 94.5,-131.08 109.19,-128.83"/>
<polygon fill="#63b8ff" stroke="#63b8ff" points="109.7,-132.29 119.05,-127.32 108.63,-125.37 109.7,-132.29"/>
</a>
</g>
</g>
<!-- Node8 -->
<g id="Node000008" class="node">
<title>Node8</title>
<g id="a_Node000008"><a xlink:href="engine_8c.html#ab3e07adfc8a75247bf95bc59c57518ed" target="_top" xlink:title=" ">
<polygon fill="white" stroke="#666666" points="183.5,-56 119.5,-56 119.5,-37 183.5,-37 183.5,-56"/>
<text text-anchor="middle" x="151.5" y="-44" font-family="Helvetica,sans-Serif" font-size="10.00">handle_req</text>
</a>
</g>
</g>
<!-- Node1&#45;&gt;Node8 -->
<g id="edge7_Node000001_Node000008" class="edge">
<title>Node1&#45;&gt;Node8</title>
<g id="a_edge7_Node000001_Node000008"><a xlink:title=" ">
<path fill="none" stroke="#63b8ff" d="M40.34,-130.83C51.79,-116.24 75.18,-88.43 100,-70.5 104.65,-67.14 109.85,-64.05 115.09,-61.29"/>
<polygon fill="#63b8ff" stroke="#63b8ff" points="116.29,-64.6 123.73,-57.06 113.21,-58.31 116.29,-64.6"/>
</a>
</g>
</g>
<!-- Node11 -->
<g id="Node000011" class="node">
<title>Node11</title>
<g id="a_Node000011"><a xlink:href="engine_8c.html#a17f0fe3d39f4a609a92b861e7733109b" target="_top" xlink:title=" ">
<polygon fill="white" stroke="#666666" points="184,-206 119,-206 119,-187 184,-187 184,-206"/>
<text text-anchor="middle" x="151.5" y="-194" font-family="Helvetica,sans-Serif" font-size="10.00">sort_queue</text>
</a>
</g>
</g>
<!-- Node1&#45;&gt;Node11 -->
<g id="edge10_Node000001_Node000011" class="edge">
<title>Node1&#45;&gt;Node11</title>
<g id="a_edge10_Node000001_Node000011"><a xlink:title=" ">
<path fill="none" stroke="#63b8ff" d="M48.57,-150.36C61.89,-158.54 81.76,-170.15 100,-178.5 102.98,-179.86 106.09,-181.19 109.24,-182.47"/>
<polygon fill="#63b8ff" stroke="#63b8ff" points="107.98,-185.73 118.57,-186.04 110.49,-179.19 107.98,-185.73"/>
</a>
</g>
</g>
<!-- Node12 -->
<g id="Node000012" class="node">
<title>Node12</title>
<g id="a_Node000012"><a xlink:href="engine_8c.html#a7a920aedb9a8b2866613c1ccf2708dab" target="_top" xlink:title=" ">
<polygon fill="white" stroke="#666666" points="185,-19 118,-19 118,0 185,0 185,-19"/>
<text text-anchor="middle" x="151.5" y="-7" font-family="Helvetica,sans-Serif" font-size="10.00">try_unblock</text>
</a>
</g>
</g>
<!-- Node1&#45;&gt;Node12 -->
<g id="edge12_Node000001_Node000012" class="edge">
<title>Node1&#45;&gt;Node12</title>
<g id="a_edge12_Node000001_Node000012"><a xlink:title=" ">
<path fill="none" stroke="#63b8ff" d="M36.34,-130.61C44.1,-109.05 65.39,-57.4 100,-28.5 102.35,-26.54 104.91,-24.77 107.61,-23.18"/>
<polygon fill="#63b8ff" stroke="#63b8ff" points="109.01,-26.39 116.4,-18.81 105.89,-20.12 109.01,-26.39"/>
</a>
</g>
</g>
<!-- Node5 -->
<g id="Node000005" class="node">
<title>Node5</title>
<g id="a_Node000005"><a xlink:href="model_8c.html#a3e8829e3218c3aa91904341746b9ca25" target="_top" xlink:title=" ">
<polygon fill="white" stroke="#666666" points="321,-280 251,-280 251,-261 321,-261 321,-280"/>
<text text-anchor="middle" x="286" y="-268" font-family="Helvetica,sans-Serif" font-size="10.00">ensure_proc</text>
</a>
</g>
</g>
<!-- Node4&#45;&gt;Node5 -->
<g id="edge4_Node000004_Node000005" class="edge">
<title>Node4&#45;&gt;Node5</title>
<g id="a_edge4_Node000004_Node000005"><a xlink:title=" ">
<path fill="none" stroke="#63b8ff" d="M188.36,-270.5C204.17,-270.5 222.94,-270.5 239.71,-270.5"/>
<polygon fill="#63b8ff" stroke="#63b8ff" points="239.43,-274 249.43,-270.5 239.43,-267 239.43,-274"/>
</a>
</g>
</g>
<!-- Node9 -->
<g id="Node000009" class="node">
<title>Node9</title>
<g id="a_Node000009"><a xlink:href="engine_8c.html#af5276fe9fb89c4acc9541144186d9656" target="_top" xlink:title=" ">
<polygon fill="white" stroke="#666666" points="333,-75 239,-75 239,-56 333,-56 333,-75"/>
<text text-anchor="middle" x="286" y="-63" font-family="Helvetica,sans-Serif" font-size="10.00">engine_add_event</text>
</a>
</g>
</g>
<!-- Node8&#45;&gt;Node9 -->
<g id="edge8_Node000008_Node000009" class="edge">
<title>Node8&#45;&gt;Node9</title>
<g id="a_edge8_Node000008_Node000009"><a xlink:title=" ">
<path fill="none" stroke="#63b8ff" d="M183.9,-51C196.89,-52.87 212.38,-55.09 227.28,-57.22"/>
<polygon fill="#63b8ff" stroke="#63b8ff" points="226.62,-60.66 237.01,-58.62 227.61,-53.73 226.62,-60.66"/>
</a>
</g>
</g>
<!-- Node10 -->
<g id="Node000010" class="node">
<title>Node10</title>
<g id="a_Node000010"><a xlink:href="model_8c.html#aa3c0059bcf7fe112ca3748600fb2981c" target="_top" xlink:title=" ">
<polygon fill="white" stroke="#666666" points="318.5,-38 253.5,-38 253.5,-19 318.5,-19 318.5,-38"/>
<text text-anchor="middle" x="286" y="-26" font-family="Helvetica,sans-Serif" font-size="10.00">proc_active</text>
</a>
</g>
</g>
<!-- Node8&#45;&gt;Node10 -->
<g id="edge9_Node000008_Node000010" class="edge">
<title>Node8&#45;&gt;Node10</title>
<g id="a_edge9_Node000008_Node000010"><a xlink:title=" ">
<path fill="none" stroke="#63b8ff" d="M183.9,-42.23C201.27,-39.88 223.1,-36.91 242.02,-34.34"/>
<polygon fill="#63b8ff" stroke="#63b8ff" points="242.43,-37.82 251.87,-33 241.49,-30.88 242.43,-37.82"/>
</a>
</g>
</g>
<!-- Node11&#45;&gt;Node2 -->
<g id="edge11_Node000011_Node000002" class="edge">
<title>Node11&#45;&gt;Node2</title>
<g id="a_edge11_Node000011_Node000002"><a xlink:title=" ">
<path fill="none" stroke="#63b8ff" d="M184.24,-187.4C203.91,-181.76 229.22,-174.5 249.55,-168.67"/>
<polygon fill="#63b8ff" stroke="#63b8ff" points="250.47,-172.05 259.11,-165.92 248.54,-165.32 250.47,-172.05"/>
</a>
</g>
</g>
</g>
</svg>
</svg>

<style type='text/css'>
<![CDATA[
[data-mouse-over-selected='false'] { opacity: 0.7; }
[data-mouse-over-selected='true']  { opacity: 1.0; }
]]>
</style>
<script type="application/ecmascript"><![CDATA[
document.addEventListener('DOMContentLoaded', (event) => {
  highlightEdges();
  highlightAdjacentNodes();
});
]]></script>
</svg>
