<?xml version="1.0" encoding="UTF-8" standalone="no"?>
<!DOCTYPE svg PUBLIC "-//W3C//DTD SVG 1.1//EN"
 "http://www.w3.org/Graphics/SVG/1.1/DTD/svg11.dtd">
<!-- Generated by graphviz version 7.1.0 (20230121.1956)
 -->
<!-- Title: src/core/engine.c Pages: 1 -->
<svg width="440pt" height="247pt"
 viewBox="0.00 0.00 439.50 247.00" xmlns="http://www.w3.org/2000/svg" xmlns:xlink="http://www.w3.org/1999/xlink">
<g id="graph0" class="graph" transform="scale(1 1) rotate(0) translate(4 243)">
<title>src/core/engine.c</title>
<!-- Node1 -->
<g id="Node000001" class="node">
<title>Node1</title>
<g id="a_Node000001"><a xlink:title=" ">
<polygon fill="#999999" stroke="#666666" points="354.5,-239 262.5,-239 262.5,-220 354.5,-220 354.5,-239"/>
<text text-anchor="middle" x="308.5" y="-227" font-family="Helvetica,sans-Serif" font-size="10.00">src/core/engine.c</text>
</a>
</g>
</g>
<!-- Node2 -->
<g id="Node000002" class="node">
<title>Node2</title>
<g id="a_Node000002"><a xlink:href="engine_8h.html" target="_top" xlink:title=" ">
<polygon fill="white" stroke="#666666" points="233.5,-184 141.5,-184 141.5,-165 233.5,-165 233.5,-184"/>
<text text-anchor="middle" x="187.5" y="-172" font-family="Helvetica,sans-Serif" font-size="10.00">src/core/engine.h</text>
</a>
</g>
</g>
<!-- Node1&#45;&gt;Node2 -->
<g id="edge1_Node000001_Node000002" class="edge">
<title>Node1&#45;&gt;Node2</title>
<g id="a_edge1_Node000001_Node000002"><a xlink:title=" ">
<path fill="none" stroke="#63b8ff" d="M287.97,-219.51C268.82,-211.12 240,-198.5 218.13,-188.92"/>
<polygon fill="#63b8ff" stroke="#63b8ff" points="219.67,-185.77 209.11,-184.97 216.86,-192.18 219.67,-185.77"/>
</a>
</g>
</g>
<!-- Node8 -->
<g id="Node000008" class="node">
<title>Node8</title>
<g id="a_Node000008"><a xlink:title=" ">
<polygon fill="#e0e0e0" stroke="#999999" points="299.5,-184 251.5,-184 251.5,-165 299.5,-165 299.5,-184"/>
<text text-anchor="middle" x="275.5" y="-172" font-family="Helvetica,sans-Serif" font-size="10.00">stdlib.h</text>
</a>
</g>
</g>
<!-- Node1&#45;&gt;Node8 -->
<g id="edge12_Node000001_Node000008" class="edge">
<title>Node1&#45;&gt;Node8</title>
<g id="a_edge12_Node000001_Node000008"><a xlink:title=" ">
<path fill="none" stroke="#63b8ff" d="M303.05,-219.75C298.73,-212.81 292.54,-202.86 287.12,-194.16"/>
<polygon fill="#63b8ff" stroke="#63b8ff" points="290.12,-192.37 281.87,-185.73 284.18,-196.07 290.12,-192.37"/>
</a>
</g>
</g>
<!-- Node9 -->
<g id="Node000009" class="node">
<title>Node9</title>
<g id="a_Node000009"><a xlink:title=" ">
<polygon fill="#e0e0e0" stroke="#999999" points="367,-184 318,-184 318,-165 367,-165 367,-184"/>
<text text-anchor="middle" x="342.5" y="-172" font-family="Helvetica,sans-Serif" font-size="10.00">string.h</text>
</a>
</g>
</g>
<!-- Node1&#45;&gt;Node9 -->
<g id="edge13_Node000001_Node000009" class="edge">
<title>Node1&#45;&gt;Node9</title>
<g id="a_edge13_Node000001_Node000009"><a xlink:title=" ">
<path fill="none" stroke="#63b8ff" d="M314.11,-219.75C318.62,-212.73 325.09,-202.64 330.71,-193.87"/>
<polygon fill="#63b8ff" stroke="#63b8ff" points="333.49,-196.02 335.95,-185.72 327.6,-192.24 333.49,-196.02"/>
</a>
</g>
</g>
<!-- Node10 -->
<g id="Node000010" class="node">
<title>Node10</title>
<g id="a_Node000010"><a xlink:title=" ">
<polygon fill="#e0e0e0" stroke="#999999" points="431.5,-184 385.5,-184 385.5,-165 431.5,-165 431.5,-184"/>
<text text-anchor="middle" x="408.5" y="-172" font-family="Helvetica,sans-Serif" font-size="10.00">stdio.h</text>
</a>
</g>
</g>
<!-- Node1&#45;&gt;Node10 -->
<g id="edge14_Node000001_Node000010" class="edge">
<title>Node1&#45;&gt;Node10</title>
<g id="a_edge14_Node000001_Node000010"><a xlink:title=" ">
<path fill="none" stroke="#63b8ff" d="M325.46,-219.51C340.86,-211.35 363.81,-199.19 381.69,-189.71"/>
<polygon fill="#63b8ff" stroke="#63b8ff" points="383.25,-192.84 390.45,-185.07 379.97,-186.66 383.25,-192.84"/>
</a>
</g>
</g>
<!-- Node3 -->
<g id="Node000003" class="node">
<title>Node3</title>
<g id="a_Node000003"><a xlink:href="model_8h.html" target="_top" xlink:title=" ">
<polygon fill="white" stroke="#666666" points="89,-74 0,-74 0,-55 89,-55 89,-74"/>
<text text-anchor="middle" x="44.5" y="-62" font-family="Helvetica,sans-Serif" font-size="10.00">src/core/model.h</text>
</a>
</g>
</g>
<!-- Node2&#45;&gt;Node3 -->
<g id="edge2_Node000002_Node000003" class="edge">
<title>Node2&#45;&gt;Node3</title>
<g id="a_edge2_Node000002_Node000003"><a xlink:title=" ">
<path fill="none" stroke="#63b8ff" d="M156.16,-164.58C135.09,-157.45 107.61,-145.84 87.5,-129 72.84,-116.72 61.1,-98.24 53.61,-84.37"/>
<polygon fill="#63b8ff" stroke="#63b8ff" points="56.9,-83.11 49.23,-75.8 50.66,-86.3 56.9,-83.11"/>
</a>
</g>
</g>
<!-- Node5 -->
<g id="Node000005" class="node">
<title>Node5</title>
<g id="a_Node000005"><a xlink:href="workload_8h.html" target="_top" xlink:title=" ">
<polygon fill="white" stroke="#666666" points="208,-74 107,-74 107,-55 208,-55 208,-74"/>
<text text-anchor="middle" x="157.5" y="-62" font-family="Helvetica,sans-Serif" font-size="10.00">src/core/workload.h</text>
</a>
</g>
</g>
<!-- Node2&#45;&gt;Node5 -->
<g id="edge4_Node000002_Node000005" class="edge">
<title>Node2&#45;&gt;Node5</title>
<g id="a_edge4_Node000002_Node000005"><a xlink:title=" ">
<path fill="none" stroke="#63b8ff" d="M194.54,-164.65C203.56,-152.17 217.05,-128.82 208.5,-110 203.12,-98.16 192.86,-88.25 182.95,-80.8"/>
<polygon fill="#63b8ff" stroke="#63b8ff" points="185.19,-78.09 174.97,-75.3 181.21,-83.85 185.19,-78.09"/>
</a>
</g>
</g>
<!-- Node6 -->
<g id="Node000006" class="node">
<title>Node6</title>
<g id="a_Node000006"><a xlink:href="metrics_8h.html" target="_top" xlink:title=" ">
<polygon fill="white" stroke="#666666" points="321,-74 226,-74 226,-55 321,-55 321,-74"/>
<text text-anchor="middle" x="273.5" y="-62" font-family="Helvetica,sans-Serif" font-size="10.00">src/core/metrics.h</text>
</a>
</g>
</g>
<!-- Node2&#45;&gt;Node6 -->
<g id="edge6_Node000002_Node000006" class="edge">
<title>Node2&#45;&gt;Node6</title>
<g id="a_edge6_Node000002_Node000006"><a xlink:title=" ">
<path fill="none" stroke="#63b8ff" d="M194.71,-164.66C202,-155.7 213.58,-141.43 223.5,-129 235.79,-113.6 249.65,-95.98 259.65,-83.22"/>
<polygon fill="#63b8ff" stroke="#63b8ff" points="262.4,-85.38 265.81,-75.35 256.89,-81.07 262.4,-85.38"/>
</a>
</g>
</g>
<!-- Node7 -->
<g id="Node000007" class="node">
<title>Node7</title>
<g id="a_Node000007"><a xlink:href="policy_8h.html" target="_top" xlink:title=" ">
<polygon fill="white" stroke="#666666" points="199,-129 96,-129 96,-110 199,-110 199,-129"/>
<text text-anchor="middle" x="147.5" y="-117" font-family="Helvetica,sans-Serif" font-size="10.00">src/policies/policy.h</text>
</a>
</g>
</g>
<!-- Node2&#45;&gt;Node7 -->
<g id="edge8_Node000002_Node000007" class="edge">
<title>Node2&#45;&gt;Node7</title>
<g id="a_edge8_Node000002_Node000007"><a xlink:title=" ">
<path fill="none" stroke="#63b8ff" d="M180.89,-164.75C175.54,-157.66 167.82,-147.42 161.15,-138.59"/>
<polygon fill="#63b8ff" stroke="#63b8ff" points="163.98,-136.52 155.16,-130.65 158.39,-140.74 163.98,-136.52"/>
</a>
</g>
</g>
<!-- Node4 -->
<g id="Node000004" class="node">
<title>Node4</title>
<g id="a_Node000004"><a xlink:title=" ">
<polygon fill="#e0e0e0" stroke="#999999" points="183,-19 132,-19 132,0 183,0 183,-19"/>
<text text-anchor="middle" x="157.5" y="-7" font-family="Helvetica,sans-Serif" font-size="10.00">stddef.h</text>
</a>
</g>
</g>
<!-- Node3&#45;&gt;Node4 -->
<g id="edge3_Node000003_Node000004" class="edge">
<title>Node3&#45;&gt;Node4</title>
<g id="a_edge3_Node000003_Node000004"><a xlink:title=" ">
<path fill="none" stroke="#63b8ff" d="M63.67,-54.51C81.39,-46.2 107.98,-33.73 128.33,-24.18"/>
<polygon fill="#63b8ff" stroke="#63b8ff" points="129.68,-27.42 137.24,-20 126.7,-21.08 129.68,-27.42"/>
</a>
</g>
</g>
<!-- Node5&#45;&gt;Node4 -->
<g id="edge5_Node000005_Node000004" class="edge">
<title>Node5&#45;&gt;Node4</title>
<g id="a_edge5_Node000005_Node000004"><a xlink:title=" ">
<path fill="none" stroke="#63b8ff" d="M157.5,-54.75C157.5,-48.27 157.5,-39.16 157.5,-30.9"/>
<polygon fill="#63b8ff" stroke="#63b8ff" points="161,-30.96 157.5,-20.96 154,-30.96 161,-30.96"/>
</a>
</g>
</g>
<!-- Node6&#45;&gt;Node4 -->
<g id="edge7_Node000006_Node000004" class="edge">
<title>Node6&#45;&gt;Node4</title>
<g id="a_edge7_Node000006_Node000004"><a xlink:title=" ">
<path fill="none" stroke="#63b8ff" d="M253.82,-54.51C235.55,-46.16 208.09,-33.61 187.15,-24.05"/>
<polygon fill="#63b8ff" stroke="#63b8ff" points="188.81,-20.96 178.26,-19.99 185.9,-27.33 188.81,-20.96"/>
</a>
</g>
</g>
<!-- Node7&#45;&gt;Node3 -->
<g id="edge9_Node000007_Node000003" class="edge">
<title>Node7&#45;&gt;Node3</title>
<g id="a_edge9_Node000007_Node000003"><a xlink:title=" ">
<path fill="none" stroke="#63b8ff" d="M130.03,-109.51C114.1,-101.31 90.31,-89.07 71.86,-79.58"/>
<polygon fill="#63b8ff" stroke="#63b8ff" points="73.55,-76.51 63.06,-75.05 70.35,-82.74 73.55,-76.51"/>
</a>
</g>
</g>
<!-- Node7&#45;&gt;Node5 -->
<g id="edge10_Node000007_Node000005" class="edge">
<title>Node7&#45;&gt;Node5</title>
<g id="a_edge10_Node000007_Node000005"><a xlink:title=" ">
<path fill="none" stroke="#63b8ff" d="M149.15,-109.75C150.39,-103.19 152.13,-93.95 153.71,-85.6"/>
<polygon fill="#63b8ff" stroke="#63b8ff" points="157.12,-86.4 155.53,-75.93 150.24,-85.11 157.12,-86.4"/>
</a>
</g>
</g>
<!-- Node7&#45;&gt;Node6 -->
<g id="edge11_Node000007_Node000006" class="edge">
<title>Node7&#45;&gt;Node6</title>
<g id="a_edge11_Node000007_Node000006"><a xlink:title=" ">
<path fill="none" stroke="#63b8ff" d="M168.87,-109.51C188.91,-101.08 219.1,-88.38 241.91,-78.79"/>
<polygon fill="#63b8ff" stroke="#63b8ff" points="243.19,-82.05 251.05,-74.94 240.47,-75.6 243.19,-82.05"/>
</a>
</g>
</g>
</g>
</svg>
