<?xml version="1.0" encoding="UTF-8" standalone="no"?>
<!DOCTYPE svg PUBLIC "-//W3C//DTD SVG 1.1//EN"
 "http://www.w3.org/Graphics/SVG/1.1/DTD/svg11.dtd">
<!-- Generated by graphviz version 7.1.0 (20230121.1956)
 -->
<!-- Title: engine_add_event Pages: 1 -->
<svg width="413pt" height="64pt"
 viewBox="0.00 0.00 413.00 64.00" xmlns="http://www.w3.org/2000/svg" xmlns:xlink="http://www.w3.org/1999/xlink">
<g id="graph0" class="graph" transform="scale(1 1) rotate(0) translate(4 60)">
<title>engine_add_event</title>
<!-- Node1 -->
<g id="Node000001" class="node">
<title>Node1</title>
<g id="a_Node000001"><a xlink:title=" ">
<polygon fill="#999999" stroke="#666666" points="405,-38 311,-38 311,-19 405,-19 405,-38"/>
<text text-anchor="middle" x="358" y="-26" font-family="Helvetica,sans-Serif" font-size="10.00">engine_add_event</text>
</a>
</g>
</g>
<!-- Node2 -->
<g id="Node000002" class="node">
<title>Node2</title>
<g id="a_Node000002"><a xlink:href="engine_8c.html#a07303577794ddbc341a62c34c3246648" target="_top" xlink:title=" ">
<polygon fill="white" stroke="#666666" points="175,-56 74,-56 74,-37 175,-37 175,-56"/>
<text text-anchor="middle" x="124.5" y="-44" font-family="Helvetica,sans-Serif" font-size="10.00">engine_load_events</text>
</a>
</g>
</g>
<!-- Node1&#45;&gt;Node2 -->
<g id="edge1_Node000001_Node000002" class="edge">
<title>Node1&#45;&gt;Node2</title>
<g id="a_edge1_Node000001_Node000002"><a xlink:title=" ">
<path fill="none" stroke="#63b8ff" d="M299.27,-32.99C261.15,-35.95 211.71,-39.8 175.32,-42.63"/>
<polygon fill="#63b8ff" stroke="#63b8ff" points="299.5,-36.48 309.2,-32.22 298.96,-29.5 299.5,-36.48"/>
</a>
</g>
</g>
<!-- Node4 -->
<g id="Node000004" class="node">
<title>Node4</title>
<g id="a_Node000004"><a xlink:href="engine_8c.html#ab3e07adfc8a75247bf95bc59c57518ed" target="_top" xlink:title=" ">
<polygon fill="white" stroke="#666666" points="275,-19 211,-19 211,0 275,0 275,-19"/>
<text text-anchor="middle" x="243" y="-7" font-family="Helvetica,sans-Serif" font-size="10.00">handle_req</text>
</a>
</g>
</g>
<!-- Node1&#45;&gt;Node4 -->
<g id="edge3_Node000001_Node000004" class="edge">
<title>Node1&#45;&gt;Node4</title>
<g id="a_edge3_Node000001_Node000004"><a xlink:title=" ">
<path fill="none" stroke="#63b8ff" d="M299.4,-18.81C291.06,-17.41 282.76,-16.02 275.22,-14.75"/>
<polygon fill="#63b8ff" stroke="#63b8ff" points="298.78,-22.26 309.22,-20.47 299.94,-15.36 298.78,-22.26"/>
</a>
</g>
</g>
<!-- Node3 -->
<g id="Node000003" class="node">
<title>Node3</title>
<g id="a_Node000003"><a xlink:href="main_8c.html#a3c04138a5bfe5d72780bb7e82a18e627" target="_top" xlink:title=" ">
<polygon fill="white" stroke="#666666" points="38,-37 0,-37 0,-18 38,-18 38,-37"/>
<text text-anchor="middle" x="19" y="-25" font-family="Helvetica,sans-Serif" font-size="10.00">main</text>
</a>
</g>
</g>
<!-- Node2&#45;&gt;Node3 -->
<g id="edge2_Node000002_Node000003" class="edge">
<title>Node2&#45;&gt;Node3</title>
<g id="a_edge2_Node000002_Node000003"><a xlink:title=" ">
<path fill="none" stroke="#63b8ff" d="M62.38,-35.28C53.63,-33.67 45.26,-32.14 38.3,-30.86"/>
<polygon fill="#63b8ff" stroke="#63b8ff" points="61.61,-38.7 72.08,-37.06 62.88,-31.81 61.61,-38.7"/>
</a>
</g>
</g>
<!-- Node5 -->
<g id="Node000005" class="node">
<title>Node5</title>
<g id="a_Node000005"><a xlink:href="engine_8c.html#a5215321b2359f517366504415e0001fc" target="_top" xlink:title=" ">
<polygon fill="white" stroke="#666666" points="156.5,-19 92.5,-19 92.5,0 156.5,0 156.5,-19"/>
<text text-anchor="middle" x="124.5" y="-7" font-family="Helvetica,sans-Serif" font-size="10.00">engine_run</text>
</a>
</g>
</g>
<!-- Node4&#45;&gt;Node5 -->
<g id="edge4_Node000004_Node000005" class="edge">
<title>Node4&#45;&gt;Node5</title>
<g id="a_edge4_Node000004_Node000005"><a xlink:title=" ">
<path fill="none" stroke="#63b8ff" d="M199.34,-9.5C185.26,-9.5 169.87,-9.5 156.81,-9.5"/>
<polygon fill="#63b8ff" stroke="#63b8ff" points="199.27,-13 209.27,-9.5 199.27,-6 199.27,-13"/>
</a>
</g>
</g>
<!-- Node5&#45;&gt;Node3 -->
<g id="edge5_Node000005_Node000003" class="edge">
<title>Node5&#45;&gt;Node3</title>
<g id="a_edge5_Node000005_Node000003"><a xlink:title=" ">
<path fill="none" stroke="#63b8ff" d="M81.05,-16.88C66.14,-19.48 50.16,-22.25 38.29,-24.32"/>
<polygon fill="#63b8ff" stroke="#63b8ff" points="81.42,-20.37 90.67,-15.21 80.22,-13.47 81.42,-20.37"/>
</a>
</g>
</g>
</g>
</svg>
