<?xml version="1.0" encoding="UTF-8" standalone="no"?>
<!DOCTYPE svg PUBLIC "-//W3C//DTD SVG 1.1//EN"
 "http://www.w3.org/Graphics/SVG/1.1/DTD/svg11.dtd">
<!-- Generated by graphviz version 7.1.0 (20230121.1956)
 -->
<!-- Title: src/main.c Pages: 1 -->
<!--zoomable 258 -->

<svg id="main" version="1.1" xmlns="http://www.w3.org/2000/svg" xmlns:xlink="http://www.w3.org/1999/xlink" xml:space="preserve" onload="init(evt)">

<style type="text/css"><![CDATA[
.node, .edge {opacity: 0.7;}
.node.selected, .edge.selected {opacity: 1;}
.edge:hover path { stroke: red; }
.edge:hover polygon { stroke: red; fill: red; }
]]></style>

<defs>
  <circle id="rim" cx="0" cy="0" r="7"/>
  <circle id="rim2" cx="0" cy="0" r="3.5"/>
  <g id="zoomPlus">
    <use xlink:href="#rim" fill="#404040"><set attributeName="fill" to="#808080" begin="zoomplus.mouseover" end="zoomplus.mouseout"/></use>
    <path d="M-4,0h8M0,-4v8" fill="none" stroke="white" stroke-width="1.5" pointer-events="none"/>
  </g>
  <g id="zoomMin">
    <use xlink:href="#rim" fill="#404040"><set attributeName="fill" to="#808080" begin="zoomminus.mouseover" end="zoomminus.mouseout"/></use>
    <path d="M-4,0h8" fill="none" stroke="white" stroke-width="1.5" pointer-events="none"/>
  </g>
  <g id="arrowUp" transform="translate(30 24)">
    <use xlink:href="#rim"/>
    <path pointer-events="none" fill="none" stroke="white" stroke-width="1.5" d="M0,-3.0v7 M-2.5,-0.5L0,-3.0L2.5,-0.5"/>
  </g>
  <g id="arrowRight" transform="rotate(90) translate(36 -43)">
    <use xlink:href="#rim"/>
    <path pointer-events="none" fill="none" stroke="white" stroke-width="1.5" d="M0,-3.0v7 M-2.5,-0.5L0,-3.0L2.5,-0.5"/>
  </g>
  <g id="arrowDown" transform="rotate(180) translate(-30 -48)">
    <use xlink:href="#rim"/>
    <path pointer-events="none" fill="none" stroke="white" stroke-width="1.5" d="M0,-3.0v7 M-2.5,-0.5L0,-3.0L2.5,-0.5"/>
  </g>
  <g id="arrowLeft" transform="rotate(270) translate(-36 17)">
    <use xlink:href="#rim"/>
    <path pointer-events="none" fill="none" stroke="white" stroke-width="1.5" d="M0,-3.0v7 M-2.5,-0.5L0,-3.0L2.5,-0.5"/>
  </g>
  <g id="resetDef">
    <use xlink:href="#rim2" fill="#404040"><set attributeName="fill" to="#808080" begin="reset.mouseover" end="reset.mouseout"/></use>
  </g>
</defs>
<script type="application/ecmascript">
var viewWidth = 1345;
var viewHeight = 258;
var sectionId = 'dynsection-0';
</script>
<script type="application/ecmascript" xlink:href="svg.min.js"/>
<svg id="graph" class="graph">
<g id="viewport">
<title>src/main.c</title>
<!-- Node1 -->
<g id="Node000001" class="node">
<title>Node1</title>
<g id="a_Node000001"><a xlink:title=" ">
<polygon fill="#999999" stroke="#666666" points="856.5,-250 794.5,-250 794.5,-231 856.5,-231 856.5,-250"/>
<text text-anchor="middle" x="825.5" y="-238" font-family="Helvetica,sans-Serif" font-size="10.00">src/main.c</text>
</a>
</g>
</g>
<!-- Node2 -->
<g id="Node000002" class="node">
<title>Node2</title>
<g id="a_Node000002"><a xlink:href="engine_8h.html" target="_top" xlink:title=" ">
<polygon fill="white" stroke="#666666" points="75,-189.5 0,-189.5 0,-170.5 75,-170.5 75,-189.5"/>
<text text-anchor="middle" x="37.5" y="-177.5" font-family="Helvetica,sans-Serif" font-size="10.00">core/engine.h</text>
</a>
</g>
</g>
<!-- Node1&#45;&gt;Node2 -->
<g id="edge1_Node000001_Node000002" class="edge">
<title>Node1&#45;&gt;Node2</title>
<g id="a_edge1_Node000001_Node000002"><a xlink:title=" ">
<path fill="none" stroke="#63b8ff" d="M794.31,-238.61C671.8,-234.95 223.38,-220.12 83.5,-195 80.34,-194.43 77.1,-193.72 73.86,-192.92"/>
<polygon fill="#63b8ff" stroke="#63b8ff" points="75.06,-189.62 64.49,-190.34 73.2,-196.37 75.06,-189.62"/>
</a>
</g>
</g>
<!-- Node5 -->
<g id="Node000005" class="node">
<title>Node5</title>
<g id="a_Node000005"><a xlink:href="workload_8h.html" target="_top" xlink:title=" ">
<polygon fill="white" stroke="#666666" points="455,-74 354,-74 354,-55 455,-55 455,-74"/>
<text text-anchor="middle" x="404.5" y="-62" font-family="Helvetica,sans-Serif" font-size="10.00">src/core/workload.h</text>
</a>
</g>
</g>
<!-- Node1&#45;&gt;Node5 -->
<g id="edge12_Node000001_Node000005" class="edge">
<title>Node1&#45;&gt;Node5</title>
<g id="a_edge12_Node000001_Node000005"><a xlink:title=" ">
<path fill="none" stroke="#63b8ff" d="M856.92,-239.47C923.9,-238.68 1077.26,-232.69 1109.5,-195 1118.17,-184.87 1118.24,-175.07 1109.5,-165 1067.49,-116.65 631.34,-81.37 466.83,-69.69"/>
<polygon fill="#63b8ff" stroke="#63b8ff" points="467.2,-66.2 456.97,-68.99 466.7,-73.19 467.2,-66.2"/>
</a>
</g>
</g>
<!-- Node8 -->
<g id="Node000008" class="node">
<title>Node8</title>
<g id="a_Node000008"><a xlink:href="detector__wfg_8h.html" target="_top" xlink:title=" ">
<polygon fill="white" stroke="#666666" points="322.5,-189.5 206.5,-189.5 206.5,-170.5 322.5,-170.5 322.5,-189.5"/>
<text text-anchor="middle" x="264.5" y="-177.5" font-family="Helvetica,sans-Serif" font-size="10.00">policies/detector_wfg.h</text>
</a>
</g>
</g>
<!-- Node1&#45;&gt;Node8 -->
<g id="edge13_Node000001_Node000008" class="edge">
<title>Node1&#45;&gt;Node8</title>
<g id="a_edge13_Node000001_Node000008"><a xlink:title=" ">
<path fill="none" stroke="#63b8ff" d="M794.14,-237.94C715.78,-233.78 505.25,-220.89 331.5,-195 326.13,-194.2 320.54,-193.24 314.98,-192.2"/>
<polygon fill="#63b8ff" stroke="#63b8ff" points="315.66,-188.77 305.17,-190.28 314.31,-195.64 315.66,-188.77"/>
</a>
</g>
</g>
<!-- Node9 -->
<g id="Node000009" class="node">
<title>Node9</title>
<g id="a_Node000009"><a xlink:href="detector__matrix_8h.html" target="_top" xlink:title=" ">
<polygon fill="white" stroke="#666666" points="468.5,-189.5 340.5,-189.5 340.5,-170.5 468.5,-170.5 468.5,-189.5"/>
<text text-anchor="middle" x="404.5" y="-177.5" font-family="Helvetica,sans-Serif" font-size="10.00">policies/detector_matrix.h</text>
</a>
</g>
</g>
<!-- Node1&#45;&gt;Node9 -->
<g id="edge15_Node000001_Node000009" class="edge">
<title>Node1&#45;&gt;Node9</title>
<g id="a_edge15_Node000001_Node000009"><a xlink:title=" ">
<path fill="none" stroke="#63b8ff" d="M794.31,-236.13C733.43,-229.41 594.57,-213.41 478.5,-195 472.61,-194.07 466.47,-193.02 460.35,-191.93"/>
<polygon fill="#63b8ff" stroke="#63b8ff" points="461.38,-188.56 450.92,-190.21 460.13,-195.45 461.38,-188.56"/>
</a>
</g>
</g>
<!-- Node10 -->
<g id="Node000010" class="node">
<title>Node10</title>
<g id="a_Node000010"><a xlink:href="resolver__abort_8h.html" target="_top" xlink:title=" ">
<polygon fill="white" stroke="#666666" points="608,-189.5 487,-189.5 487,-170.5 608,-170.5 608,-189.5"/>
<text text-anchor="middle" x="547.5" y="-177.5" font-family="Helvetica,sans-Serif" font-size="10.00">policies/resolver_abort.h</text>
</a>
</g>
</g>
<!-- Node1&#45;&gt;Node10 -->
<g id="edge17_Node000001_Node000010" class="edge">
<title>Node1&#45;&gt;Node10</title>
<g id="a_edge17_Node000001_Node000010"><a xlink:title=" ">
<path fill="none" stroke="#63b8ff" d="M794.15,-232.9C747.29,-223.04 658.37,-204.33 601.08,-192.27"/>
<polygon fill="#63b8ff" stroke="#63b8ff" points="602.05,-188.9 591.54,-190.27 600.61,-195.75 602.05,-188.9"/>
</a>
</g>
</g>
<!-- Node11 -->
<g id="Node000011" class="node">
<title>Node11</title>
<g id="a_Node000011"><a xlink:href="resolver__rollback_8h.html" target="_top" xlink:title=" ">
<polygon fill="white" stroke="#666666" points="759,-189.5 626,-189.5 626,-170.5 759,-170.5 759,-189.5"/>
<text text-anchor="middle" x="692.5" y="-177.5" font-family="Helvetica,sans-Serif" font-size="10.00">policies/resolver_rollback.h</text>
</a>
</g>
</g>
<!-- Node1&#45;&gt;Node11 -->
<g id="edge19_Node000001_Node000011" class="edge">
<title>Node1&#45;&gt;Node11</title>
<g id="a_edge19_Node000001_Node000011"><a xlink:title=" ">
<path fill="none" stroke="#63b8ff" d="M805.3,-230.62C783.52,-221.04 748.6,-205.68 723.38,-194.58"/>
<polygon fill="#63b8ff" stroke="#63b8ff" points="724.84,-191.4 714.28,-190.58 722.02,-197.81 724.84,-191.4"/>
</a>
</g>
</g>
<!-- Node12 -->
<g id="Node000012" class="node">
<title>Node12</title>
<g id="a_Node000012"><a xlink:href="prevention__banker_8h.html" target="_top" xlink:title=" ">
<polygon fill="white" stroke="#666666" points="873.5,-195 777.5,-195 777.5,-165 873.5,-165 873.5,-195"/>
<text text-anchor="start" x="785.5" y="-183" font-family="Helvetica,sans-Serif" font-size="10.00">policies/prevention</text>
<text text-anchor="middle" x="825.5" y="-172" font-family="Helvetica,sans-Serif" font-size="10.00">_banker.h</text>
</a>
</g>
</g>
<!-- Node1&#45;&gt;Node12 -->
<g id="edge21_Node000001_Node000012" class="edge">
<title>Node1&#45;&gt;Node12</title>
<g id="a_edge21_Node000001_Node000012"><a xlink:title=" ">
<path fill="none" stroke="#63b8ff" d="M825.5,-230.87C825.5,-224.4 825.5,-215.2 825.5,-206.45"/>
<polygon fill="#63b8ff" stroke="#63b8ff" points="829,-206.63 825.5,-196.63 822,-206.63 829,-206.63"/>
</a>
</g>
</g>
<!-- Node13 -->
<g id="Node000013" class="node">
<title>Node13</title>
<g id="a_Node000013"><a xlink:href="avoidance__nohold_8h.html" target="_top" xlink:title=" ">
<polygon fill="white" stroke="#666666" points="987,-195 892,-195 892,-165 987,-165 987,-195"/>
<text text-anchor="start" x="900" y="-183" font-family="Helvetica,sans-Serif" font-size="10.00">policies/avoidance</text>
<text text-anchor="middle" x="939.5" y="-172" font-family="Helvetica,sans-Serif" font-size="10.00">_nohold.h</text>
</a>
</g>
</g>
<!-- Node1&#45;&gt;Node13 -->
<g id="edge23_Node000001_Node000013" class="edge">
<title>Node1&#45;&gt;Node13</title>
<g id="a_edge23_Node000001_Node000013"><a xlink:title=" ">
<path fill="none" stroke="#63b8ff" d="M842.81,-230.62C858.3,-222.67 881.55,-210.74 901.37,-200.57"/>
<polygon fill="#63b8ff" stroke="#63b8ff" points="902.72,-203.81 910.01,-196.13 899.52,-197.58 902.72,-203.81"/>
</a>
</g>
</g>
<!-- Node14 -->
<g id="Node000014" class="node">
<title>Node14</title>
<g id="a_Node000014"><a xlink:href="avoidance__ordering_8h.html" target="_top" xlink:title=" ">
<polygon fill="white" stroke="#666666" points="1100,-195 1005,-195 1005,-165 1100,-165 1100,-195"/>
<text text-anchor="start" x="1013" y="-183" font-family="Helvetica,sans-Serif" font-size="10.00">policies/avoidance</text>
<text text-anchor="middle" x="1052.5" y="-172" font-family="Helvetica,sans-Serif" font-size="10.00">_ordering.h</text>
</a>
</g>
</g>
<!-- Node1&#45;&gt;Node14 -->
<g id="edge25_Node000001_Node000014" class="edge">
<title>Node1&#45;&gt;Node14</title>
<g id="a_edge25_Node000001_Node000014"><a xlink:title=" ">
<path fill="none" stroke="#63b8ff" d="M856.59,-231.49C891.77,-222.42 949.89,-207.44 993.7,-196.15"/>
<polygon fill="#63b8ff" stroke="#63b8ff" points="994.52,-199.56 1003.33,-193.67 992.77,-192.78 994.52,-199.56"/>
</a>
</g>
</g>
<!-- Node15 -->
<g id="Node000015" class="node">
<title>Node15</title>
<g id="a_Node000015"><a xlink:href="avoidance__preempt_8h.html" target="_top" xlink:title=" ">
<polygon fill="white" stroke="#666666" points="188,-195 93,-195 93,-165 188,-165 188,-195"/>
<text text-anchor="start" x="101" y="-183" font-family="Helvetica,sans-Serif" font-size="10.00">policies/avoidance</text>
<text text-anchor="middle" x="140.5" y="-172" font-family="Helvetica,sans-Serif" font-size="10.00">_preempt.h</text>
</a>
</g>
</g>
<!-- Node1&#45;&gt;Node15 -->
<g id="edge27_Node000001_Node000015" class="edge">
<title>Node1&#45;&gt;Node15</title>
<g id="a_edge27_Node000001_Node000015"><a xlink:title=" ">
<path fill="none" stroke="#63b8ff" d="M794.25,-239.16C703.68,-237.78 433.16,-230.88 199.38,-195.09"/>
<polygon fill="#63b8ff" stroke="#63b8ff" points="200.19,-191.67 189.77,-193.59 199.11,-198.59 200.19,-191.67"/>
</a>
</g>
</g>
<!-- Node16 -->
<g id="Node000016" class="node">
<title>Node16</title>
<g id="a_Node000016"><a xlink:title=" ">
<polygon fill="#e0e0e0" stroke="#999999" points="1202.5,-189.5 1156.5,-189.5 1156.5,-170.5 1202.5,-170.5 1202.5,-189.5"/>
<text text-anchor="middle" x="1179.5" y="-177.5" font-family="Helvetica,sans-Serif" font-size="10.00">stdio.h</text>
</a>
</g>
</g>
<!-- Node1&#45;&gt;Node16 -->
<g id="edge29_Node000001_Node000016" class="edge">
<title>Node1&#45;&gt;Node16</title>
<g id="a_edge29_Node000001_Node000016"><a xlink:title=" ">
<path fill="none" stroke="#63b8ff" d="M856.99,-237.41C914.48,-233.08 1039.94,-221.25 1142.5,-195 1144.12,-194.58 1145.77,-194.12 1147.43,-193.62"/>
<polygon fill="#63b8ff" stroke="#63b8ff" points="1148.45,-196.97 1156.8,-190.45 1146.21,-190.34 1148.45,-196.97"/>
</a>
</g>
</g>
<!-- Node17 -->
<g id="Node000017" class="node">
<title>Node17</title>
<g id="a_Node000017"><a xlink:title=" ">
<polygon fill="#e0e0e0" stroke="#999999" points="1270,-189.5 1221,-189.5 1221,-170.5 1270,-170.5 1270,-189.5"/>
<text text-anchor="middle" x="1245.5" y="-177.5" font-family="Helvetica,sans-Serif" font-size="10.00">string.h</text>
</a>
</g>
</g>
<!-- Node1&#45;&gt;Node17 -->
<g id="edge30_Node000001_Node000017" class="edge">
<title>Node1&#45;&gt;Node17</title>
<g id="a_edge30_Node000001_Node000017"><a xlink:title=" ">
<path fill="none" stroke="#63b8ff" d="M856.8,-238.8C923.21,-236.69 1082.67,-228.27 1211.5,-195 1212.89,-194.64 1214.3,-194.24 1215.71,-193.8"/>
<polygon fill="#63b8ff" stroke="#63b8ff" points="1216.76,-197.14 1224.97,-190.46 1214.38,-190.56 1216.76,-197.14"/>
</a>
</g>
</g>
<!-- Node18 -->
<g id="Node000018" class="node">
<title>Node18</title>
<g id="a_Node000018"><a xlink:title=" ">
<polygon fill="#e0e0e0" stroke="#999999" points="1336.5,-189.5 1288.5,-189.5 1288.5,-170.5 1336.5,-170.5 1336.5,-189.5"/>
<text text-anchor="middle" x="1312.5" y="-177.5" font-family="Helvetica,sans-Serif" font-size="10.00">stdlib.h</text>
</a>
</g>
</g>
<!-- Node1&#45;&gt;Node18 -->
<g id="edge31_Node000001_Node000018" class="edge">
<title>Node1&#45;&gt;Node18</title>
<g id="a_edge31_Node000001_Node000018"><a xlink:title=" ">
<path fill="none" stroke="#63b8ff" d="M856.89,-239.67C931.43,-239.37 1124.47,-234.5 1279.5,-195 1280.89,-194.65 1282.3,-194.24 1283.71,-193.8"/>
<polygon fill="#63b8ff" stroke="#63b8ff" points="1284.76,-197.14 1292.92,-190.39 1282.33,-190.58 1284.76,-197.14"/>
</a>
</g>
</g>
<!-- Node3 -->
<g id="Node000003" class="node">
<title>Node3</title>
<g id="a_Node000003"><a xlink:href="model_8h.html" target="_top" xlink:title=" ">
<polygon fill="white" stroke="#666666" points="223,-74 134,-74 134,-55 223,-55 223,-74"/>
<text text-anchor="middle" x="178.5" y="-62" font-family="Helvetica,sans-Serif" font-size="10.00">src/core/model.h</text>
</a>
</g>
</g>
<!-- Node2&#45;&gt;Node3 -->
<g id="edge2_Node000002_Node000003" class="edge">
<title>Node2&#45;&gt;Node3</title>
<g id="a_edge2_Node000002_Node000003"><a xlink:title=" ">
<path fill="none" stroke="#63b8ff" d="M48.56,-170.09C72.35,-150.95 128.62,-105.65 158.71,-81.43"/>
<polygon fill="#63b8ff" stroke="#63b8ff" points="160.71,-84.31 166.31,-75.31 156.32,-78.86 160.71,-84.31"/>
</a>
</g>
</g>
<!-- Node2&#45;&gt;Node5 -->
<g id="edge4_Node000002_Node000005" class="edge">
<title>Node2&#45;&gt;Node5</title>
<g id="a_edge4_Node000002_Node000005"><a xlink:title=" ">
<path fill="none" stroke="#63b8ff" d="M66.3,-170.09C131.47,-149.94 290.38,-100.79 364.81,-77.77"/>
<polygon fill="#63b8ff" stroke="#63b8ff" points="365.62,-81.19 374.14,-74.89 363.55,-74.5 365.62,-81.19"/>
</a>
</g>
</g>
<!-- Node6 -->
<g id="Node000006" class="node">
<title>Node6</title>
<g id="a_Node000006"><a xlink:href="metrics_8h.html" target="_top" xlink:title=" ">
<polygon fill="white" stroke="#666666" points="336,-74 241,-74 241,-55 336,-55 336,-74"/>
<text text-anchor="middle" x="288.5" y="-62" font-family="Helvetica,sans-Serif" font-size="10.00">src/core/metrics.h</text>
</a>
</g>
</g>
<!-- Node2&#45;&gt;Node6 -->
<g id="edge6_Node000002_Node000006" class="edge">
<title>Node2&#45;&gt;Node6</title>
<g id="a_edge6_Node000002_Node000006"><a xlink:title=" ">
<path fill="none" stroke="#63b8ff" d="M57.2,-170.09C101,-150.29 206.72,-102.48 258.67,-78.99"/>
<polygon fill="#63b8ff" stroke="#63b8ff" points="259.85,-82.3 267.52,-74.99 256.96,-75.92 259.85,-82.3"/>
</a>
</g>
</g>
<!-- Node7 -->
<g id="Node000007" class="node">
<title>Node7</title>
<g id="a_Node000007"><a xlink:href="policy_8h.html" target="_top" xlink:title=" ">
<polygon fill="white" stroke="#666666" points="456,-129 353,-129 353,-110 456,-110 456,-129"/>
<text text-anchor="middle" x="404.5" y="-117" font-family="Helvetica,sans-Serif" font-size="10.00">src/policies/policy.h</text>
</a>
</g>
</g>
<!-- Node2&#45;&gt;Node7 -->
<g id="edge8_Node000002_Node000007" class="edge">
<title>Node2&#45;&gt;Node7</title>
<g id="a_edge8_Node000002_Node000007"><a xlink:title=" ">
<path fill="none" stroke="#63b8ff" d="M64.07,-170.14C70.39,-168.25 77.14,-166.4 83.5,-165 172.01,-145.52 276.22,-132.94 341.34,-126.28"/>
<polygon fill="#63b8ff" stroke="#63b8ff" points="341.52,-129.78 351.12,-125.3 340.82,-122.82 341.52,-129.78"/>
</a>
</g>
</g>
<!-- Node4 -->
<g id="Node000004" class="node">
<title>Node4</title>
<g id="a_Node000004"><a xlink:title=" ">
<polygon fill="#e0e0e0" stroke="#999999" points="314,-19 263,-19 263,0 314,0 314,-19"/>
<text text-anchor="middle" x="288.5" y="-7" font-family="Helvetica,sans-Serif" font-size="10.00">stddef.h</text>
</a>
</g>
</g>
<!-- Node3&#45;&gt;Node4 -->
<g id="edge3_Node000003_Node000004" class="edge">
<title>Node3&#45;&gt;Node4</title>
<g id="a_edge3_Node000003_Node000004"><a xlink:title=" ">
<path fill="none" stroke="#63b8ff" d="M197.16,-54.51C214.33,-46.24 240.05,-33.84 259.83,-24.31"/>
<polygon fill="#63b8ff" stroke="#63b8ff" points="261.26,-27.51 268.75,-20.01 258.22,-21.2 261.26,-27.51"/>
</a>
</g>
</g>
<!-- Node5&#45;&gt;Node4 -->
<g id="edge5_Node000005_Node000004" class="edge">
<title>Node5&#45;&gt;Node4</title>
<g id="a_edge5_Node000005_Node000004"><a xlink:title=" ">
<path fill="none" stroke="#63b8ff" d="M384.82,-54.51C366.55,-46.16 339.09,-33.61 318.15,-24.05"/>
<polygon fill="#63b8ff" stroke="#63b8ff" points="319.81,-20.96 309.26,-19.99 316.9,-27.33 319.81,-20.96"/>
</a>
</g>
</g>
<!-- Node6&#45;&gt;Node4 -->
<g id="edge7_Node000006_Node000004" class="edge">
<title>Node6&#45;&gt;Node4</title>
<g id="a_edge7_Node000006_Node000004"><a xlink:title=" ">
<path fill="none" stroke="#63b8ff" d="M288.5,-54.75C288.5,-48.27 288.5,-39.16 288.5,-30.9"/>
<polygon fill="#63b8ff" stroke="#63b8ff" points="292,-30.96 288.5,-20.96 285,-30.96 292,-30.96"/>
</a>
</g>
</g>
<!-- Node7&#45;&gt;Node3 -->
<g id="edge9_Node000007_Node000003" class="edge">
<title>Node7&#45;&gt;Node3</title>
<g id="a_edge9_Node000007_Node000003"><a xlink:title=" ">
<path fill="none" stroke="#63b8ff" d="M366.16,-109.51C327.98,-100.55 269.21,-86.77 227.62,-77.02"/>
<polygon fill="#63b8ff" stroke="#63b8ff" points="228.66,-73.67 218.12,-74.79 227.06,-80.48 228.66,-73.67"/>
</a>
</g>
</g>
<!-- Node7&#45;&gt;Node5 -->
<g id="edge10_Node000007_Node000005" class="edge">
<title>Node7&#45;&gt;Node5</title>
<g id="a_edge10_Node000007_Node000005"><a xlink:title=" ">
<path fill="none" stroke="#63b8ff" d="M404.5,-109.75C404.5,-103.27 404.5,-94.16 404.5,-85.9"/>
<polygon fill="#63b8ff" stroke="#63b8ff" points="408,-85.96 404.5,-75.96 401,-85.96 408,-85.96"/>
</a>
</g>
</g>
<!-- Node7&#45;&gt;Node6 -->
<g id="edge11_Node000007_Node000006" class="edge">
<title>Node7&#45;&gt;Node6</title>
<g id="a_edge11_Node000007_Node000006"><a xlink:title=" ">
<path fill="none" stroke="#63b8ff" d="M384.82,-109.51C366.55,-101.16 339.09,-88.61 318.15,-79.05"/>
<polygon fill="#63b8ff" stroke="#63b8ff" points="319.81,-75.96 309.26,-74.99 316.9,-82.33 319.81,-75.96"/>
</a>
</g>
</g>
<!-- Node8&#45;&gt;Node7 -->
<g id="edge14_Node000008_Node000007" class="edge">
<title>Node8&#45;&gt;Node7</title>
<g id="a_edge14_Node000008_Node000007"><a xlink:title=" ">
<path fill="none" stroke="#63b8ff" d="M285.76,-170.12C308.89,-160.45 346.11,-144.9 372.71,-133.78"/>
<polygon fill="#63b8ff" stroke="#63b8ff" points="373.76,-137.14 381.64,-130.05 371.06,-130.68 373.76,-137.14"/>
</a>
</g>
</g>
<!-- Node9&#45;&gt;Node7 -->
<g id="edge16_Node000009_Node000007" class="edge">
<title>Node9&#45;&gt;Node7</title>
<g id="a_edge16_Node000009_Node000007"><a xlink:title=" ">
<path fill="none" stroke="#63b8ff" d="M404.5,-170.37C404.5,-162.5 404.5,-150.6 404.5,-140.39"/>
<polygon fill="#63b8ff" stroke="#63b8ff" points="408,-140.68 404.5,-130.68 401,-140.68 408,-140.68"/>
</a>
</g>
</g>
<!-- Node10&#45;&gt;Node7 -->
<g id="edge18_Node000010_Node000007" class="edge">
<title>Node10&#45;&gt;Node7</title>
<g id="a_edge18_Node000010_Node000007"><a xlink:title=" ">
<path fill="none" stroke="#63b8ff" d="M525.78,-170.12C502.16,-160.45 464.14,-144.9 436.97,-133.78"/>
<polygon fill="#63b8ff" stroke="#63b8ff" points="438.4,-130.59 427.82,-130.04 435.75,-137.07 438.4,-130.59"/>
</a>
</g>
</g>
<!-- Node11&#45;&gt;Node7 -->
<g id="edge20_Node000011_Node000007" class="edge">
<title>Node11&#45;&gt;Node7</title>
<g id="a_edge20_Node000011_Node000007"><a xlink:title=" ">
<path fill="none" stroke="#63b8ff" d="M648.45,-170.05C597.84,-159.77 514.74,-142.89 459.82,-131.74"/>
<polygon fill="#63b8ff" stroke="#63b8ff" points="460.53,-128.31 450.03,-129.75 459.14,-135.17 460.53,-128.31"/>
</a>
</g>
</g>
<!-- Node12&#45;&gt;Node7 -->
<g id="edge22_Node000012_Node000007" class="edge">
<title>Node12&#45;&gt;Node7</title>
<g id="a_edge22_Node000012_Node000007"><a xlink:title=" ">
<path fill="none" stroke="#63b8ff" d="M777.07,-166.69C774.18,-166.08 771.31,-165.51 768.5,-165 663.73,-145.8 540.44,-132.69 467.58,-125.91"/>
<polygon fill="#63b8ff" stroke="#63b8ff" points="468.12,-122.44 457.84,-125.01 467.48,-129.42 468.12,-122.44"/>
</a>
</g>
</g>
<!-- Node13&#45;&gt;Node7 -->
<g id="edge24_Node000013_Node000007" class="edge">
<title>Node13&#45;&gt;Node7</title>
<g id="a_edge24_Node000013_Node000007"><a xlink:title=" ">
<path fill="none" stroke="#63b8ff" d="M891.71,-166.72C888.61,-166.09 885.51,-165.51 882.5,-165 735.11,-140.18 559.66,-128.3 467.78,-123.4"/>
<polygon fill="#63b8ff" stroke="#63b8ff" points="468.14,-119.92 457.97,-122.89 467.78,-126.91 468.14,-119.92"/>
</a>
</g>
</g>
<!-- Node14&#45;&gt;Node7 -->
<g id="edge26_Node000014_Node000007" class="edge">
<title>Node14&#45;&gt;Node7</title>
<g id="a_edge26_Node000014_Node000007"><a xlink:title=" ">
<path fill="none" stroke="#63b8ff" d="M1004.65,-166.47C1001.9,-165.93 999.17,-165.43 996.5,-165 805.55,-134.18 576.43,-124.63 467.71,-121.73"/>
<polygon fill="#63b8ff" stroke="#63b8ff" points="467.92,-118.24 457.83,-121.48 467.74,-125.23 467.92,-118.24"/>
</a>
</g>
</g>
<!-- Node15&#45;&gt;Node7 -->
<g id="edge28_Node000015_Node000007" class="edge">
<title>Node15&#45;&gt;Node7</title>
<g id="a_edge28_Node000015_Node000007"><a xlink:title=" ">
<path fill="none" stroke="#63b8ff" d="M188.37,-167.14C191.46,-166.4 194.52,-165.69 197.5,-165 249.18,-153.1 308.35,-140.48 350.16,-131.73"/>
<polygon fill="#63b8ff" stroke="#63b8ff" points="350.65,-135.2 359.72,-129.73 349.22,-128.35 350.65,-135.2"/>
</a>
</g>
</g>
</g>
</svg>

<g id="navigator" transform="translate(0 0)" fill="#404254">
  <rect fill="#f2f5e9" fill-opacity="0.5" stroke="#606060" stroke-width=".5" x="0" y="0" width="60" height="60"/>
  <use id="zoomplus" xlink:href="#zoomPlus" x="17" y="9" onmousedown="handleZoom(evt,'in')"/>
  <use id="zoomminus" xlink:href="#zoomMin" x="42" y="9" onmousedown="handleZoom(evt,'out')"/>
  <use id="reset" xlink:href="#resetDef" x="30" y="36" onmousedown="handleReset()"/>
   <use id="arrowup" xlink:href="#arrowUp" x="0" y="0" onmousedown="handlePan(0,-1)"/>
  <use id="arrowright" xlink:href="#arrowRight" x="0" y="0" onmousedown="handlePan(1,0)"/>
  <use id="arrowdown" xlink:href="#arrowDown" x="0" y="0" onmousedown="handlePan(0,1)"/>
  <use id="arrowleft" xlink:href="#arrowLeft" x="0" y="0" onmousedown="handlePan(-1,0)"/>
</g>
<svg viewBox="0 0 15 15" width="100%" height="30px" preserveAspectRatio="xMaxYMin meet">
 <g id="arrow_out" transform="scale(0.3 0.3)">
  <a xlink:href="main_8c__incl_org.svg" target="_base">
   <rect id="button" ry="5" rx="5" y="6" x="6" height="38" width="38"
        fill="#f2f5e9" fill-opacity="0.5" stroke="#606060" stroke-width="1.0"/>
   <path id="arrow"
     d="M 11.500037,31.436501 C 11.940474,20.09759 22.043105,11.32322 32.158766,21.979434 L 37.068811,17.246167 C 37.068811,17.246167 37.088388,32 37.088388,32 L 22.160133,31.978069 C 22.160133,31.978069 26.997745,27.140456 26.997745,27.140456 C 18.528582,18.264221 13.291696,25.230495 11.500037,31.436501 z"
     style="fill:#404040;"/>
  </a>
 </g>
</svg>

<style type='text/css'>
<![CDATA[
[data-mouse-over-selected='false'] { opacity: 0.7; }
[data-mouse-over-selected='true']  { opacity: 1.0; }
]]>
</style>
<script type="application/ecmascript"><![CDATA[
document.addEventListener('DOMContentLoaded', (event) => {
  highlightEdges();
  highlightAdjacentNodes();
});
]]></script>
</svg>
