<?xml version="1.0" encoding="UTF-8" standalone="no"?>
<!DOCTYPE svg PUBLIC "-//W3C//DTD SVG 1.1//EN"
 "http://www.w3.org/Graphics/SVG/1.1/DTD/svg11.dtd">
<!-- Generated by graphviz version 7.1.0 (20230121.1956)
 -->
<!-- Title: main Pages: 1 -->
<!--zoomable 695 -->

<svg id="main" version="1.1" xmlns="http://www.w3.org/2000/svg" xmlns:xlink="http://www.w3.org/1999/xlink" xml:space="preserve" onload="init(evt)">

<style type="text/css"><![CDATA[
.node, .edge {opacity: 0.7;}
.node.selected, .edge.selected {opacity: 1;}
.edge:hover path { stroke: red; }
.edge:hover polygon { stroke: red; fill: red; }
]]></style>

<defs>
  <circle id="rim" cx="0" cy="0" r="7"/>
  <circle id="rim2" cx="0" cy="0" r="3.5"/>
  <g id="zoomPlus">
    <use xlink:href="#rim" fill="#404040"><set attributeName="fill" to="#808080" begin="zoomplus.mouseover" end="zoomplus.mouseout"/></use>
    <path d="M-4,0h8M0,-4v8" fill="none" stroke="white" stroke-width="1.5" pointer-events="none"/>
  </g>
  <g id="zoomMin">
    <use xlink:href="#rim" fill="#404040"><set attributeName="fill" to="#808080" begin="zoomminus.mouseover" end="zoomminus.mouseout"/></use>
    <path d="M-4,0h8" fill="none" stroke="white" stroke-width="1.5" pointer-events="none"/>
  </g>
  <g id="arrowUp" transform="translate(30 24)">
    <use xlink:href="#rim"/>
    <path pointer-events="none" fill="none" stroke="white" stroke-width="1.5" d="M0,-3.0v7 M-2.5,-0.5L0,-3.0L2.5,-0.5"/>
  </g>
  <g id="arrowRight" transform="rotate(90) translate(36 -43)">
    <use xlink:href="#rim"/>
    <path pointer-events="none" fill="none" stroke="white" stroke-width="1.5" d="M0,-3.0v7 M-2.5,-0.5L0,-3.0L2.5,-0.5"/>
  </g>
  <g id="arrowDown" transform="rotate(180) translate(-30 -48)">
    <use xlink:href="#rim"/>
    <path pointer-events="none" fill="none" stroke="white" stroke-width="1.5" d="M0,-3.0v7 M-2.5,-0.5L0,-3.0L2.5,-0.5"/>
  </g>
  <g id="arrowLeft" transform="rotate(270) translate(-36 17)">
    <use xlink:href="#rim"/>
    <path pointer-events="none" fill="none" stroke="white" stroke-width="1.5" d="M0,-3.0v7 M-2.5,-0.5L0,-3.0L2.5,-0.5"/>
  </g>
  <g id="resetDef">
    <use xlink:href="#rim2" fill="#404040"><set attributeName="fill" to="#808080" begin="reset.mouseover" end="reset.mouseout"/></use>
  </g>
</defs>
<script type="application/ecmascript">
var viewWidth = 461;
var viewHeight = 695;
var sectionId = 'dynsection-2';
</script>
<script type="application/ecmascript" xlink:href="svg.min.js"/>
<svg id="graph" class="graph">
<g id="viewport">
<title>main</title>
<!-- Node1 -->
<g id="Node000001" class="node">
<title>Node1</title>
<g id="a_Node000001"><a xlink:title=" ">
<polygon fill="#999999" stroke="#666666" points="38,-296 0,-296 0,-277 38,-277 38,-296"/>
<text text-anchor="middle" x="19" y="-284" font-family="Helvetica,sans-Serif" font-size="10.00">main</text>
</a>
</g>
</g>
<!-- Node2 -->
<g id="Node000002" class="node">
<title>Node2</title>
<g id="a_Node000002"><a xlink:href="main_8c.html#ab064df9f350a7a7ddc326df61a66c95b" target="_top" xlink:title=" ">
<polygon fill="white" stroke="#666666" points="149.5,-596 108.5,-596 108.5,-577 149.5,-577 149.5,-596"/>
<text text-anchor="middle" x="129" y="-584" font-family="Helvetica,sans-Serif" font-size="10.00">argval</text>
</a>
</g>
</g>
<!-- Node1&#45;&gt;Node2 -->
<g id="edge1_Node000001_Node000002" class="edge">
<title>Node1&#45;&gt;Node2</title>
<g id="a_edge1_Node000001_Node000002"><a xlink:title=" ">
<path fill="none" stroke="#63b8ff" d="M20.58,-296.35C23.4,-341.27 37.14,-526.4 74,-568.5 79.93,-575.27 88.48,-579.5 97.03,-582.15"/>
<polygon fill="#63b8ff" stroke="#63b8ff" points="96.04,-585.51 106.58,-584.43 97.67,-578.7 96.04,-585.51"/>
</a>
</g>
</g>
<!-- Node3 -->
<g id="Node000003" class="node">
<title>Node3</title>
<g id="a_Node000003"><a xlink:href="detector__matrix_8c.html#a27be77df0494a73757489571afd186c6" target="_top" xlink:title=" ">
<polygon fill="white" stroke="#666666" points="171,-559 87,-559 87,-540 171,-540 171,-559"/>
<text text-anchor="middle" x="129" y="-547" font-family="Helvetica,sans-Serif" font-size="10.00">detector_matrix</text>
</a>
</g>
</g>
<!-- Node1&#45;&gt;Node3 -->
<g id="edge2_Node000001_Node000003" class="edge">
<title>Node1&#45;&gt;Node3</title>
<g id="a_edge2_Node000001_Node000003"><a xlink:title=" ">
<path fill="none" stroke="#63b8ff" d="M20.89,-296.42C24.8,-337.71 41.65,-495.57 74,-531.5 74.99,-532.59 76.04,-533.62 77.15,-534.59"/>
<polygon fill="#63b8ff" stroke="#63b8ff" points="75.06,-537.4 85.33,-540 78.92,-531.57 75.06,-537.4"/>
</a>
</g>
</g>
<!-- Node7 -->
<g id="Node000007" class="node">
<title>Node7</title>
<g id="a_Node000007"><a xlink:href="detector__wfg_8c.html#a8237d33d78b8a2741ffa4937e48185e6" target="_top" xlink:title=" ">
<polygon fill="white" stroke="#666666" points="164.5,-522 93.5,-522 93.5,-503 164.5,-503 164.5,-522"/>
<text text-anchor="middle" x="129" y="-510" font-family="Helvetica,sans-Serif" font-size="10.00">detector_wfg</text>
</a>
</g>
</g>
<!-- Node1&#45;&gt;Node7 -->
<g id="edge6_Node000001_Node000007" class="edge">
<title>Node1&#45;&gt;Node7</title>
<g id="a_edge6_Node000001_Node000007"><a xlink:title=" ">
<path fill="none" stroke="#63b8ff" d="M19.81,-296.26C19.71,-327.96 23.55,-429.43 74,-488.5 76.73,-491.69 79.96,-494.48 83.47,-496.9"/>
<polygon fill="#63b8ff" stroke="#63b8ff" points="81.52,-499.82 91.93,-501.76 85,-493.75 81.52,-499.82"/>
</a>
</g>
</g>
<!-- Node8 -->
<g id="Node000008" class="node">
<title>Node8</title>
<g id="a_Node000008"><a xlink:href="engine_8c.html#aef169f1c7e0a9d656c8c992b2de79c62" target="_top" xlink:title=" ">
<polygon fill="white" stroke="#666666" points="160.5,-389 97.5,-389 97.5,-370 160.5,-370 160.5,-389"/>
<text text-anchor="middle" x="129" y="-377" font-family="Helvetica,sans-Serif" font-size="10.00">engine_init</text>
</a>
</g>
</g>
<!-- Node1&#45;&gt;Node8 -->
<g id="edge8_Node000001_Node000008" class="edge">
<title>Node1&#45;&gt;Node8</title>
<g id="a_edge8_Node000001_Node000008"><a xlink:title=" ">
<path fill="none" stroke="#63b8ff" d="M24.51,-296.29C32.35,-312.24 49.96,-343.82 74,-361.5 77.85,-364.33 82.17,-366.74 86.65,-368.78"/>
<polygon fill="#63b8ff" stroke="#63b8ff" points="85.24,-371.98 95.83,-372.34 87.78,-365.46 85.24,-371.98"/>
</a>
</g>
</g>
<!-- Node11 -->
<g id="Node000011" class="node">
<title>Node11</title>
<g id="a_Node000011"><a xlink:href="engine_8c.html#a07303577794ddbc341a62c34c3246648" target="_top" xlink:title=" ">
<polygon fill="white" stroke="#666666" points="322,-650 221,-650 221,-631 322,-631 322,-650"/>
<text text-anchor="middle" x="271.5" y="-638" font-family="Helvetica,sans-Serif" font-size="10.00">engine_load_events</text>
</a>
</g>
</g>
<!-- Node1&#45;&gt;Node11 -->
<g id="edge11_Node000001_Node000011" class="edge">
<title>Node1&#45;&gt;Node11</title>
<g id="a_edge11_Node000001_Node000011"><a xlink:title=" ">
<path fill="none" stroke="#63b8ff" d="M20.24,-296.41C21.49,-325.08 28.99,-409.05 74,-455.5 110.1,-492.75 148.56,-456.62 184,-494.5 224.37,-537.65 179.66,-579.31 220,-622.5 220.48,-623.01 220.97,-623.51 221.47,-623.99"/>
<polygon fill="#63b8ff" stroke="#63b8ff" points="219.31,-626.74 229.47,-629.74 223.4,-621.06 219.31,-626.74"/>
</a>
</g>
</g>
<!-- Node13 -->
<g id="Node000013" class="node">
<title>Node13</title>
<g id="a_Node000013"><a xlink:href="engine_8c.html#a5215321b2359f517366504415e0001fc" target="_top" xlink:title=" ">
<polygon fill="white" stroke="#666666" points="161,-446 97,-446 97,-427 161,-427 161,-446"/>
<text text-anchor="middle" x="129" y="-434" font-family="Helvetica,sans-Serif" font-size="10.00">engine_run</text>
</a>
</g>
</g>
<!-- Node1&#45;&gt;Node13 -->
<g id="edge13_Node000001_Node000013" class="edge">
<title>Node1&#45;&gt;Node13</title>
<g id="a_edge13_Node000001_Node000013"><a xlink:title=" ">
<path fill="none" stroke="#63b8ff" d="M22.9,-296.44C29.34,-317.23 46.49,-366.07 74,-398.5 81.19,-406.97 90.68,-414.48 99.69,-420.53"/>
<polygon fill="#63b8ff" stroke="#63b8ff" points="97.55,-423.32 107.87,-425.7 101.29,-417.41 97.55,-423.32"/>
</a>
</g>
</g>
<!-- Node23 -->
<g id="Node000023" class="node">
<title>Node23</title>
<g id="a_Node000023"><a xlink:href="engine_8c.html#a81444ebf5d349b39f11ff6bde3c1a5c2" target="_top" xlink:title=" ">
<polygon fill="white" stroke="#666666" points="181,-352 77,-352 77,-333 181,-333 181,-352"/>
<text text-anchor="middle" x="129" y="-340" font-family="Helvetica,sans-Serif" font-size="10.00">engine_set_detector</text>
</a>
</g>
</g>
<!-- Node1&#45;&gt;Node23 -->
<g id="edge26_Node000001_Node000023" class="edge">
<title>Node1&#45;&gt;Node23</title>
<g id="a_edge26_Node000001_Node000023"><a xlink:title=" ">
<path fill="none" stroke="#63b8ff" d="M31.79,-296.33C42.32,-304.72 58.44,-316.65 74,-324.5 76.72,-325.87 79.56,-327.17 82.47,-328.4"/>
<polygon fill="#63b8ff" stroke="#63b8ff" points="81.11,-331.63 91.7,-331.99 83.64,-325.11 81.11,-331.63"/>
</a>
</g>
</g>
<!-- Node24 -->
<g id="Node000024" class="node">
<title>Node24</title>
<g id="a_Node000024"><a xlink:href="engine_8c.html#a8d8b9cfc533e2d6930472a6f13bc9138" target="_top" xlink:title=" ">
<polygon fill="white" stroke="#666666" points="176.5,-315 81.5,-315 81.5,-296 176.5,-296 176.5,-315"/>
<text text-anchor="middle" x="129" y="-303" font-family="Helvetica,sans-Serif" font-size="10.00">engine_set_policy</text>
</a>
</g>
</g>
<!-- Node1&#45;&gt;Node24 -->
<g id="edge27_Node000001_Node000024" class="edge">
<title>Node1&#45;&gt;Node24</title>
<g id="a_edge27_Node000001_Node000024"><a xlink:title=" ">
<path fill="none" stroke="#63b8ff" d="M38.32,-289.72C47.26,-291.3 58.56,-293.28 70.1,-295.31"/>
<polygon fill="#63b8ff" stroke="#63b8ff" points="69.22,-298.71 79.67,-297 70.43,-291.82 69.22,-298.71"/>
</a>
</g>
</g>
<!-- Node25 -->
<g id="Node000025" class="node">
<title>Node25</title>
<g id="a_Node000025"><a xlink:href="engine_8c.html#afa23042b31688798272da15fb8362d20" target="_top" xlink:title=" ">
<polygon fill="white" stroke="#666666" points="180,-278 78,-278 78,-259 180,-259 180,-278"/>
<text text-anchor="middle" x="129" y="-266" font-family="Helvetica,sans-Serif" font-size="10.00">engine_set_resolver</text>
</a>
</g>
</g>
<!-- Node1&#45;&gt;Node25 -->
<g id="edge28_Node000001_Node000025" class="edge">
<title>Node1&#45;&gt;Node25</title>
<g id="a_edge28_Node000001_Node000025"><a xlink:title=" ">
<path fill="none" stroke="#63b8ff" d="M38.32,-283.45C46.36,-282.11 56.32,-280.45 66.64,-278.73"/>
<polygon fill="#63b8ff" stroke="#63b8ff" points="67.13,-282.19 76.42,-277.1 65.98,-275.29 67.13,-282.19"/>
</a>
</g>
</g>
<!-- Node26 -->
<g id="Node000026" class="node">
<title>Node26</title>
<g id="a_Node000026"><a xlink:href="workload_8c.html#ae8940714faba6c453d0579d283ad9b2b" target="_top" xlink:title=" ">
<polygon fill="white" stroke="#666666" points="178,-241 80,-241 80,-222 178,-222 178,-241"/>
<text text-anchor="middle" x="129" y="-229" font-family="Helvetica,sans-Serif" font-size="10.00">load_workload_csv</text>
</a>
</g>
</g>
<!-- Node1&#45;&gt;Node26 -->
<g id="edge29_Node000001_Node000026" class="edge">
<title>Node1&#45;&gt;Node26</title>
<g id="a_edge29_Node000001_Node000026"><a xlink:title=" ">
<path fill="none" stroke="#63b8ff" d="M32.76,-276.66C43.36,-268.82 59.08,-257.95 74,-250.5 77.48,-248.76 81.17,-247.11 84.91,-245.56"/>
<polygon fill="#63b8ff" stroke="#63b8ff" points="86,-248.89 94.06,-242.01 83.47,-242.36 86,-248.89"/>
</a>
</g>
</g>
<!-- Node32 -->
<g id="Node000032" class="node">
<title>Node32</title>
<g id="a_Node000032"><a xlink:href="avoidance__nohold_8c.html#a10104c43ec76e2e1094e1168e2bc3a09" target="_top" xlink:title=" ">
<polygon fill="white" stroke="#666666" points="180.5,-204 77.5,-204 77.5,-185 180.5,-185 180.5,-204"/>
<text text-anchor="middle" x="129" y="-192" font-family="Helvetica,sans-Serif" font-size="10.00">policy_avoid_nohold</text>
</a>
</g>
</g>
<!-- Node1&#45;&gt;Node32 -->
<g id="edge35_Node000001_Node000032" class="edge">
<title>Node1&#45;&gt;Node32</title>
<g id="a_edge35_Node000001_Node000032"><a xlink:title=" ">
<path fill="none" stroke="#63b8ff" d="M24.87,-276.51C32.98,-260.9 50.67,-230.73 74,-213.5 76.01,-212.01 78.15,-210.63 80.38,-209.36"/>
<polygon fill="#63b8ff" stroke="#63b8ff" points="81.71,-212.6 89.15,-205.06 78.63,-206.32 81.71,-212.6"/>
</a>
</g>
</g>
<!-- Node34 -->
<g id="Node000034" class="node">
<title>Node34</title>
<g id="a_Node000034"><a xlink:href="avoidance__ordering_8c.html#ae9cd6ecb253a191ea203d1c443042ba3" target="_top" xlink:title=" ">
<polygon fill="white" stroke="#666666" points="183.5,-167 74.5,-167 74.5,-148 183.5,-148 183.5,-167"/>
<text text-anchor="middle" x="129" y="-155" font-family="Helvetica,sans-Serif" font-size="10.00">policy_avoid_ordering</text>
</a>
</g>
</g>
<!-- Node1&#45;&gt;Node34 -->
<g id="edge37_Node000001_Node000034" class="edge">
<title>Node1&#45;&gt;Node34</title>
<g id="a_edge37_Node000001_Node000034"><a xlink:title=" ">
<path fill="none" stroke="#63b8ff" d="M22.13,-276.75C27.28,-255.49 42.35,-204.62 74,-176.5 75.43,-175.23 76.95,-174.04 78.54,-172.93"/>
<polygon fill="#63b8ff" stroke="#63b8ff" points="79.97,-176.15 86.93,-168.15 76.5,-170.07 79.97,-176.15"/>
</a>
</g>
</g>
<!-- Node35 -->
<g id="Node000035" class="node">
<title>Node35</title>
<g id="a_Node000035"><a xlink:href="avoidance__preempt_8c.html#a797f2962fa85e122ebb2994084a08476" target="_top" xlink:title=" ">
<polygon fill="white" stroke="#666666" points="184,-130 74,-130 74,-111 184,-111 184,-130"/>
<text text-anchor="middle" x="129" y="-118" font-family="Helvetica,sans-Serif" font-size="10.00">policy_avoid_preempt</text>
</a>
</g>
</g>
<!-- Node1&#45;&gt;Node35 -->
<g id="edge39_Node000001_Node000035" class="edge">
<title>Node1&#45;&gt;Node35</title>
<g id="a_edge39_Node000001_Node000035"><a xlink:title=" ">
<path fill="none" stroke="#63b8ff" d="M20.77,-276.75C23.36,-250.74 33.93,-179.02 74,-139.5 75.05,-138.46 76.17,-137.48 77.33,-136.55"/>
<polygon fill="#63b8ff" stroke="#63b8ff" points="79.19,-139.52 85.78,-131.22 75.45,-133.59 79.19,-139.52"/>
</a>
</g>
</g>
<!-- Node36 -->
<g id="Node000036" class="node">
<title>Node36</title>
<g id="a_Node000036"><a xlink:href="prevention__banker_8c.html#a0ee4f791cdb037548f2cf33a793fb6de" target="_top" xlink:title=" ">
<polygon fill="white" stroke="#666666" points="167.5,-93 90.5,-93 90.5,-74 167.5,-74 167.5,-93"/>
<text text-anchor="middle" x="129" y="-81" font-family="Helvetica,sans-Serif" font-size="10.00">policy_banker</text>
</a>
</g>
</g>
<!-- Node1&#45;&gt;Node36 -->
<g id="edge41_Node000001_Node000036" class="edge">
<title>Node1&#45;&gt;Node36</title>
<g id="a_edge41_Node000001_Node000036"><a xlink:title=" ">
<path fill="none" stroke="#63b8ff" d="M19.93,-276.6C20.27,-246.29 25.43,-153.71 74,-102.5 75.94,-100.45 78.12,-98.62 80.46,-96.99"/>
<polygon fill="#63b8ff" stroke="#63b8ff" points="81.74,-100.28 88.78,-92.36 78.34,-94.16 81.74,-100.28"/>
</a>
</g>
</g>
<!-- Node37 -->
<g id="Node000037" class="node">
<title>Node37</title>
<g id="a_Node000037"><a xlink:href="resolver__abort_8c.html#a6905da1484c0d2ff4f64e0a50fbec21e" target="_top" xlink:title=" ">
<polygon fill="white" stroke="#666666" points="167.5,-56 90.5,-56 90.5,-37 167.5,-37 167.5,-56"/>
<text text-anchor="middle" x="129" y="-44" font-family="Helvetica,sans-Serif" font-size="10.00">resolver_abort</text>
</a>
</g>
</g>
<!-- Node1&#45;&gt;Node37 -->
<g id="edge43_Node000001_Node000037" class="edge">
<title>Node1&#45;&gt;Node37</title>
<g id="a_edge43_Node000001_Node000037"><a xlink:title=" ">
<path fill="none" stroke="#63b8ff" d="M21.17,-276.53C25.92,-237.77 44.83,-97.7 74,-65.5 75.86,-63.45 77.95,-61.62 80.2,-59.99"/>
<polygon fill="#63b8ff" stroke="#63b8ff" points="81.9,-63.05 88.88,-55.08 78.45,-56.96 81.9,-63.05"/>
</a>
</g>
</g>
<!-- Node40 -->
<g id="Node000040" class="node">
<title>Node40</title>
<g id="a_Node000040"><a xlink:href="resolver__rollback_8c.html#a67a43d286465df8acf04494205b57db5" target="_top" xlink:title=" ">
<polygon fill="white" stroke="#666666" points="173.5,-19 84.5,-19 84.5,0 173.5,0 173.5,-19"/>
<text text-anchor="middle" x="129" y="-7" font-family="Helvetica,sans-Serif" font-size="10.00">resolver_rollback</text>
</a>
</g>
</g>
<!-- Node1&#45;&gt;Node40 -->
<g id="edge46_Node000001_Node000040" class="edge">
<title>Node1&#45;&gt;Node40</title>
<g id="a_edge46_Node000001_Node000040"><a xlink:title=" ">
<path fill="none" stroke="#63b8ff" d="M20.76,-276.61C24.25,-233.89 39.95,-65.76 74,-27.5 74.36,-27.09 74.73,-26.7 75.11,-26.31"/>
<polygon fill="#63b8ff" stroke="#63b8ff" points="77.14,-29.16 82.98,-20.32 72.9,-23.59 77.14,-29.16"/>
</a>
</g>
</g>
<!-- Node4 -->
<g id="Node000004" class="node">
<title>Node4</title>
<g id="a_Node000004"><a xlink:href="detector__matrix_8c.html#a799885c5715d470f18a66e692715652f" target="_top" xlink:title=" ">
<polygon fill="white" stroke="#666666" points="305,-687 238,-687 238,-668 305,-668 305,-687"/>
<text text-anchor="middle" x="271.5" y="-675" font-family="Helvetica,sans-Serif" font-size="10.00">detect_impl</text>
</a>
</g>
</g>
<!-- Node3&#45;&gt;Node4 -->
<g id="edge3_Node000003_Node000004" class="edge">
<title>Node3&#45;&gt;Node4</title>
<g id="a_edge3_Node000003_Node000004"><a xlink:title=" ">
<path fill="none" stroke="#63b8ff" d="M170.58,-559.37C175.49,-561.78 180.13,-564.78 184,-568.5 215.34,-598.66 188.72,-629.28 220,-659.5 222.24,-661.67 224.77,-663.58 227.46,-665.26"/>
<polygon fill="#63b8ff" stroke="#63b8ff" points="225.87,-668.38 236.38,-669.72 229,-662.12 225.87,-668.38"/>
</a>
</g>
</g>
<!-- Node5 -->
<g id="Node000005" class="node">
<title>Node5</title>
<g id="a_Node000005"><a xlink:href="detector__matrix_8c.html#ae49622d22688d2b6f7c80d47f0b0f485" target="_top" xlink:title=" ">
<polygon fill="white" stroke="#666666" points="434,-687 378,-687 378,-668 434,-668 434,-687"/>
<text text-anchor="middle" x="406" y="-675" font-family="Helvetica,sans-Serif" font-size="10.00">leq_need</text>
</a>
</g>
</g>
<!-- Node4&#45;&gt;Node5 -->
<g id="edge4_Node000004_Node000005" class="edge">
<title>Node4&#45;&gt;Node5</title>
<g id="a_edge4_Node000004_Node000005"><a xlink:title=" ">
<path fill="none" stroke="#63b8ff" d="M305.25,-677.5C323.66,-677.5 346.74,-677.5 366.07,-677.5"/>
<polygon fill="#63b8ff" stroke="#63b8ff" points="366.02,-681 376.02,-677.5 366.02,-674 366.02,-681"/>
</a>
</g>
</g>
<!-- Node6 -->
<g id="Node000006" class="node">
<title>Node6</title>
<g id="a_Node000006"><a xlink:href="model_8c.html#aa3c0059bcf7fe112ca3748600fb2981c" target="_top" xlink:title=" ">
<polygon fill="white" stroke="#666666" points="438.5,-650 373.5,-650 373.5,-631 438.5,-631 438.5,-650"/>
<text text-anchor="middle" x="406" y="-638" font-family="Helvetica,sans-Serif" font-size="10.00">proc_active</text>
</a>
</g>
</g>
<!-- Node4&#45;&gt;Node6 -->
<g id="edge5_Node000004_Node000006" class="edge">
<title>Node4&#45;&gt;Node6</title>
<g id="a_edge5_Node000004_Node000006"><a xlink:title=" ">
<path fill="none" stroke="#63b8ff" d="M305.25,-668.35C322.39,-663.57 343.58,-657.65 362.02,-652.5"/>
<polygon fill="#63b8ff" stroke="#63b8ff" points="362.93,-655.88 371.62,-649.82 361.05,-649.14 362.93,-655.88"/>
</a>
</g>
</g>
<!-- Node7&#45;&gt;Node4 -->
<g id="edge7_Node000007_Node000004" class="edge">
<title>Node7&#45;&gt;Node4</title>
<g id="a_edge7_Node000007_Node000004"><a xlink:title=" ">
<path fill="none" stroke="#63b8ff" d="M164.88,-519.3C171.97,-522.08 178.83,-525.99 184,-531.5 224.43,-574.61 179.66,-616.31 220,-659.5 222.23,-661.89 224.81,-663.97 227.58,-665.76"/>
<polygon fill="#63b8ff" stroke="#63b8ff" points="225.76,-668.77 236.26,-670.19 228.94,-662.53 225.76,-668.77"/>
</a>
</g>
</g>
<!-- Node9 -->
<g id="Node000009" class="node">
<title>Node9</title>
<g id="a_Node000009"><a xlink:href="model_8c.html#aa33a951e7c1123436bc3b03254884e9a" target="_top" xlink:title=" ">
<polygon fill="white" stroke="#666666" points="304,-278 239,-278 239,-259 304,-259 304,-278"/>
<text text-anchor="middle" x="271.5" y="-266" font-family="Helvetica,sans-Serif" font-size="10.00">ensure_res</text>
</a>
</g>
</g>
<!-- Node8&#45;&gt;Node9 -->
<g id="edge9_Node000008_Node000009" class="edge">
<title>Node8&#45;&gt;Node9</title>
<g id="a_edge9_Node000008_Node000009"><a xlink:title=" ">
<path fill="none" stroke="#63b8ff" d="M160.8,-373.83C169.04,-371.15 177.46,-367.23 184,-361.5 211.5,-337.39 192.96,-312.13 220,-287.5 222.55,-285.18 225.41,-283.13 228.44,-281.33"/>
<polygon fill="#63b8ff" stroke="#63b8ff" points="229.74,-284.59 237.16,-277.03 226.64,-278.31 229.74,-284.59"/>
</a>
</g>
</g>
<!-- Node10 -->
<g id="Node000010" class="node">
<title>Node10</title>
<g id="a_Node000010"><a xlink:href="model_8c.html#a0576b308b7a523481db25f3ca758ecef" target="_top" xlink:title=" ">
<polygon fill="white" stroke="#666666" points="299.5,-315 243.5,-315 243.5,-296 299.5,-296 299.5,-315"/>
<text text-anchor="middle" x="271.5" y="-303" font-family="Helvetica,sans-Serif" font-size="10.00">state_init</text>
</a>
</g>
</g>
<!-- Node8&#45;&gt;Node10 -->
<g id="edge10_Node000008_Node000010" class="edge">
<title>Node8&#45;&gt;Node10</title>
<g id="a_edge10_Node000008_Node000010"><a xlink:title=" ">
<path fill="none" stroke="#63b8ff" d="M160.85,-372.02C168.74,-369.37 176.97,-365.91 184,-361.5 203.43,-349.3 200.8,-337.06 220,-324.5 223.97,-321.9 228.34,-319.59 232.81,-317.55"/>
<polygon fill="#63b8ff" stroke="#63b8ff" points="233.9,-320.88 241.83,-313.86 231.25,-314.4 233.9,-320.88"/>
</a>
</g>
</g>
<!-- Node12 -->
<g id="Node000012" class="node">
<title>Node12</title>
<g id="a_Node000012"><a xlink:href="engine_8c.html#af5276fe9fb89c4acc9541144186d9656" target="_top" xlink:title=" ">
<polygon fill="white" stroke="#666666" points="453,-613 359,-613 359,-594 453,-594 453,-613"/>
<text text-anchor="middle" x="406" y="-601" font-family="Helvetica,sans-Serif" font-size="10.00">engine_add_event</text>
</a>
</g>
</g>
<!-- Node11&#45;&gt;Node12 -->
<g id="edge12_Node000011_Node000012" class="edge">
<title>Node11&#45;&gt;Node12</title>
<g id="a_edge12_Node000011_Node000012"><a xlink:title=" ">
<path fill="none" stroke="#63b8ff" d="M308.01,-630.58C323.6,-626.23 342.12,-621.06 358.77,-616.41"/>
<polygon fill="#63b8ff" stroke="#63b8ff" points="359.25,-619.91 367.94,-613.85 357.36,-613.17 359.25,-619.91"/>
</a>
</g>
</g>
<!-- Node14 -->
<g id="Node000014" class="node">
<title>Node14</title>
<g id="a_Node000014"><a xlink:href="engine_8c.html#aa56c4f3a94086972987d63d045d6b229" target="_top" xlink:title=" ">
<polygon fill="white" stroke="#666666" points="431,-446 381,-446 381,-427 431,-427 431,-446"/>
<text text-anchor="middle" x="406" y="-434" font-family="Helvetica,sans-Serif" font-size="10.00">cmp_ev</text>
</a>
</g>
</g>
<!-- Node13&#45;&gt;Node14 -->
<g id="edge14_Node000013_Node000014" class="edge">
<title>Node13&#45;&gt;Node14</title>
<g id="a_edge14_Node000013_Node000014"><a xlink:title=" ">
<path fill="none" stroke="#63b8ff" d="M161.28,-436.5C212.71,-436.5 314.85,-436.5 369.14,-436.5"/>
<polygon fill="#63b8ff" stroke="#63b8ff" points="369.07,-440 379.07,-436.5 369.07,-433 369.07,-440"/>
</a>
</g>
</g>
<!-- Node15 -->
<g id="Node000015" class="node">
<title>Node15</title>
<g id="a_Node000015"><a xlink:href="engine_8c.html#a5710b628059d89386cee9ec869947a71" target="_top" xlink:title=" ">
<polygon fill="white" stroke="#666666" points="323,-389 220,-389 220,-370 323,-370 323,-389"/>
<text text-anchor="middle" x="271.5" y="-377" font-family="Helvetica,sans-Serif" font-size="10.00">do_deadlock_check</text>
</a>
</g>
</g>
<!-- Node13&#45;&gt;Node15 -->
<g id="edge15_Node000013_Node000015" class="edge">
<title>Node13&#45;&gt;Node15</title>
<g id="a_edge15_Node000013_Node000015"><a xlink:title=" ">
<path fill="none" stroke="#63b8ff" d="M154.47,-426.57C176.94,-417.46 210.46,-403.86 235.71,-393.62"/>
<polygon fill="#63b8ff" stroke="#63b8ff" points="236.95,-396.89 244.9,-389.88 234.32,-390.4 236.95,-396.89"/>
</a>
</g>
</g>
<!-- Node16 -->
<g id="Node000016" class="node">
<title>Node16</title>
<g id="a_Node000016"><a xlink:href="engine_8c.html#afcdf5ae2c175384fa2bf3acf6c00249f" target="_top" xlink:title=" ">
<polygon fill="white" stroke="#666666" points="308,-352 235,-352 235,-333 308,-333 308,-352"/>
<text text-anchor="middle" x="271.5" y="-340" font-family="Helvetica,sans-Serif" font-size="10.00">handle_arrive</text>
</a>
</g>
</g>
<!-- Node13&#45;&gt;Node16 -->
<g id="edge16_Node000013_Node000016" class="edge">
<title>Node13&#45;&gt;Node16</title>
<g id="a_edge16_Node000013_Node000016"><a xlink:title=" ">
<path fill="none" stroke="#63b8ff" d="M145.69,-426.58C156.78,-419.3 171.79,-408.91 184,-398.5 201.46,-383.61 200.8,-374.06 220,-361.5 222.37,-359.95 224.88,-358.5 227.46,-357.16"/>
<polygon fill="#63b8ff" stroke="#63b8ff" points="228.7,-360.44 236.31,-353.07 225.77,-354.08 228.7,-360.44"/>
</a>
</g>
</g>
<!-- Node18 -->
<g id="Node000018" class="node">
<title>Node18</title>
<g id="a_Node000018"><a xlink:href="engine_8c.html#ab9eab32ff555a432bc94e74ce2e5ae47" target="_top" xlink:title=" ">
<polygon fill="white" stroke="#666666" points="308,-576 235,-576 235,-557 308,-557 308,-576"/>
<text text-anchor="middle" x="271.5" y="-564" font-family="Helvetica,sans-Serif" font-size="10.00">handle_finish</text>
</a>
</g>
</g>
<!-- Node13&#45;&gt;Node18 -->
<g id="edge18_Node000013_Node000018" class="edge">
<title>Node13&#45;&gt;Node18</title>
<g id="a_edge18_Node000013_Node000018"><a xlink:title=" ">
<path fill="none" stroke="#63b8ff" d="M161.4,-445.69C169.56,-449.27 177.78,-454.1 184,-460.5 213.43,-490.82 189.44,-519.31 220,-548.5 221.56,-549.99 223.26,-551.37 225.05,-552.62"/>
<polygon fill="#63b8ff" stroke="#63b8ff" points="222.89,-555.42 233.32,-557.28 226.33,-549.32 222.89,-555.42"/>
</a>
</g>
</g>
<!-- Node19 -->
<g id="Node000019" class="node">
<title>Node19</title>
<g id="a_Node000019"><a xlink:href="engine_8c.html#ad75a1e07bbac11faaead826dbe7201c5" target="_top" xlink:title=" ">
<polygon fill="white" stroke="#666666" points="302,-539 241,-539 241,-520 302,-520 302,-539"/>
<text text-anchor="middle" x="271.5" y="-527" font-family="Helvetica,sans-Serif" font-size="10.00">handle_rel</text>
</a>
</g>
</g>
<!-- Node13&#45;&gt;Node19 -->
<g id="edge19_Node000013_Node000019" class="edge">
<title>Node13&#45;&gt;Node19</title>
<g id="a_edge19_Node000013_Node000019"><a xlink:title=" ">
<path fill="none" stroke="#63b8ff" d="M159.95,-446.42C168.26,-450.04 176.94,-454.71 184,-460.5 205.45,-478.1 197.9,-494.73 220,-511.5 223.13,-513.88 226.61,-515.96 230.23,-517.79"/>
<polygon fill="#63b8ff" stroke="#63b8ff" points="228.69,-520.93 239.26,-521.66 231.45,-514.5 228.69,-520.93"/>
</a>
</g>
</g>
<!-- Node20 -->
<g id="Node000020" class="node">
<title>Node20</title>
<g id="a_Node000020"><a xlink:href="engine_8c.html#ab3e07adfc8a75247bf95bc59c57518ed" target="_top" xlink:title=" ">
<polygon fill="white" stroke="#666666" points="303.5,-613 239.5,-613 239.5,-594 303.5,-594 303.5,-613"/>
<text text-anchor="middle" x="271.5" y="-601" font-family="Helvetica,sans-Serif" font-size="10.00">handle_req</text>
</a>
</g>
</g>
<!-- Node13&#45;&gt;Node20 -->
<g id="edge20_Node000013_Node000020" class="edge">
<title>Node13&#45;&gt;Node20</title>
<g id="a_edge20_Node000013_Node000020"><a xlink:title=" ">
<path fill="none" stroke="#63b8ff" d="M161.3,-445.02C169.65,-448.62 178,-453.61 184,-460.5 221.97,-504.1 180.41,-543.37 220,-585.5 222.58,-588.25 225.61,-590.58 228.88,-592.55"/>
<polygon fill="#63b8ff" stroke="#63b8ff" points="227.31,-595.68 237.84,-596.82 230.32,-589.36 227.31,-595.68"/>
</a>
</g>
</g>
<!-- Node21 -->
<g id="Node000021" class="node">
<title>Node21</title>
<g id="a_Node000021"><a xlink:href="engine_8c.html#a17f0fe3d39f4a609a92b861e7733109b" target="_top" xlink:title=" ">
<polygon fill="white" stroke="#666666" points="304,-465 239,-465 239,-446 304,-446 304,-465"/>
<text text-anchor="middle" x="271.5" y="-453" font-family="Helvetica,sans-Serif" font-size="10.00">sort_queue</text>
</a>
</g>
</g>
<!-- Node13&#45;&gt;Node21 -->
<g id="edge23_Node000013_Node000021" class="edge">
<title>Node13&#45;&gt;Node21</title>
<g id="a_edge23_Node000013_Node000021"><a xlink:title=" ">
<path fill="none" stroke="#63b8ff" d="M161.18,-440.72C180.78,-443.37 206.33,-446.82 227.8,-449.73"/>
<polygon fill="#63b8ff" stroke="#63b8ff" points="227.04,-453.15 237.42,-451.03 227.98,-446.22 227.04,-453.15"/>
</a>
</g>
</g>
<!-- Node22 -->
<g id="Node000022" class="node">
<title>Node22</title>
<g id="a_Node000022"><a xlink:href="engine_8c.html#a7a920aedb9a8b2866613c1ccf2708dab" target="_top" xlink:title=" ">
<polygon fill="white" stroke="#666666" points="305,-502 238,-502 238,-483 305,-483 305,-502"/>
<text text-anchor="middle" x="271.5" y="-490" font-family="Helvetica,sans-Serif" font-size="10.00">try_unblock</text>
</a>
</g>
</g>
<!-- Node13&#45;&gt;Node22 -->
<g id="edge25_Node000013_Node000022" class="edge">
<title>Node13&#45;&gt;Node22</title>
<g id="a_edge25_Node000013_Node000022"><a xlink:title=" ">
<path fill="none" stroke="#63b8ff" d="M152.42,-446.39C170.54,-454.27 196.76,-465.46 220,-474.5 223.58,-475.89 227.31,-477.3 231.06,-478.69"/>
<polygon fill="#63b8ff" stroke="#63b8ff" points="229.54,-481.86 240.13,-481.99 231.93,-475.28 229.54,-481.86"/>
</a>
</g>
</g>
<!-- Node17 -->
<g id="Node000017" class="node">
<title>Node17</title>
<g id="a_Node000017"><a xlink:href="model_8c.html#a3e8829e3218c3aa91904341746b9ca25" target="_top" xlink:title=" ">
<polygon fill="white" stroke="#666666" points="441,-352 371,-352 371,-333 441,-333 441,-352"/>
<text text-anchor="middle" x="406" y="-340" font-family="Helvetica,sans-Serif" font-size="10.00">ensure_proc</text>
</a>
</g>
</g>
<!-- Node16&#45;&gt;Node17 -->
<g id="edge17_Node000016_Node000017" class="edge">
<title>Node16&#45;&gt;Node17</title>
<g id="a_edge17_Node000016_Node000017"><a xlink:title=" ">
<path fill="none" stroke="#63b8ff" d="M308.36,-342.5C324.17,-342.5 342.94,-342.5 359.71,-342.5"/>
<polygon fill="#63b8ff" stroke="#63b8ff" points="359.43,-346 369.43,-342.5 359.43,-339 359.43,-346"/>
</a>
</g>
</g>
<!-- Node20&#45;&gt;Node6 -->
<g id="edge22_Node000020_Node000006" class="edge">
<title>Node20&#45;&gt;Node6</title>
<g id="a_edge22_Node000020_Node000006"><a xlink:title=" ">
<path fill="none" stroke="#63b8ff" d="M303.9,-612.27C321.35,-617.14 343.3,-623.27 362.29,-628.57"/>
<polygon fill="#63b8ff" stroke="#63b8ff" points="361.33,-631.94 371.91,-631.26 363.22,-625.2 361.33,-631.94"/>
</a>
</g>
</g>
<!-- Node20&#45;&gt;Node12 -->
<g id="edge21_Node000020_Node000012" class="edge">
<title>Node20&#45;&gt;Node12</title>
<g id="a_edge21_Node000020_Node000012"><a xlink:title=" ">
<path fill="none" stroke="#63b8ff" d="M303.9,-603.5C316.89,-603.5 332.38,-603.5 347.28,-603.5"/>
<polygon fill="#63b8ff" stroke="#63b8ff" points="347,-607 357,-603.5 347,-600 347,-607"/>
</a>
</g>
</g>
<!-- Node21&#45;&gt;Node14 -->
<g id="edge24_Node000021_Node000014" class="edge">
<title>Node21&#45;&gt;Node14</title>
<g id="a_edge24_Node000021_Node000014"><a xlink:title=" ">
<path fill="none" stroke="#63b8ff" d="M304.24,-450.95C323.82,-448.14 348.99,-444.53 369.27,-441.62"/>
<polygon fill="#63b8ff" stroke="#63b8ff" points="369.67,-445.1 379.07,-440.22 368.67,-438.17 369.67,-445.1"/>
</a>
</g>
</g>
<!-- Node27 -->
<g id="Node000027" class="node">
<title>Node27</title>
<g id="a_Node000027"><a xlink:href="workload_8c.html#a080aac891486fed820877bbc65e14677" target="_top" xlink:title=" ">
<polygon fill="white" stroke="#666666" points="317.5,-241 225.5,-241 225.5,-222 317.5,-222 317.5,-241"/>
<text text-anchor="middle" x="271.5" y="-229" font-family="Helvetica,sans-Serif" font-size="10.00">parse_event_type</text>
</a>
</g>
</g>
<!-- Node26&#45;&gt;Node27 -->
<g id="edge30_Node000026_Node000027" class="edge">
<title>Node26&#45;&gt;Node27</title>
<g id="a_edge30_Node000026_Node000027"><a xlink:title=" ">
<path fill="none" stroke="#63b8ff" d="M178.35,-231.5C189.9,-231.5 202.33,-231.5 214.2,-231.5"/>
<polygon fill="#63b8ff" stroke="#63b8ff" points="213.85,-235 223.85,-231.5 213.85,-228 213.85,-235"/>
</a>
</g>
</g>
<!-- Node29 -->
<g id="Node000029" class="node">
<title>Node29</title>
<g id="a_Node000029"><a xlink:href="util_8c.html#addd9f5589c47baf239b4f3a42bfba9c7" target="_top" xlink:title=" ">
<polygon fill="white" stroke="#666666" points="298.5,-204 244.5,-204 244.5,-185 298.5,-185 298.5,-204"/>
<text text-anchor="middle" x="271.5" y="-192" font-family="Helvetica,sans-Serif" font-size="10.00">split_csv</text>
</a>
</g>
</g>
<!-- Node26&#45;&gt;Node29 -->
<g id="edge32_Node000026_Node000029" class="edge">
<title>Node26&#45;&gt;Node29</title>
<g id="a_edge32_Node000026_Node000029"><a xlink:title=" ">
<path fill="none" stroke="#63b8ff" d="M167.65,-221.58C187.99,-216.23 213.02,-209.64 233.3,-204.3"/>
<polygon fill="#63b8ff" stroke="#63b8ff" points="234.07,-207.71 242.85,-201.78 232.29,-200.94 234.07,-207.71"/>
</a>
</g>
</g>
<!-- Node31 -->
<g id="Node000031" class="node">
<title>Node31</title>
<g id="a_Node000031"><a xlink:href="util_8c.html#a1809d2fe163b346842b75347d27d6107" target="_top" xlink:title=" ">
<polygon fill="white" stroke="#666666" points="292,-167 251,-167 251,-148 292,-148 292,-167"/>
<text text-anchor="middle" x="271.5" y="-155" font-family="Helvetica,sans-Serif" font-size="10.00">to_int</text>
</a>
</g>
</g>
<!-- Node26&#45;&gt;Node31 -->
<g id="edge34_Node000026_Node000031" class="edge">
<title>Node26&#45;&gt;Node31</title>
<g id="a_edge34_Node000026_Node000031"><a xlink:title=" ">
<path fill="none" stroke="#63b8ff" d="M167.66,-221.55C173.34,-219.31 178.98,-216.65 184,-213.5 203.43,-201.3 200.8,-189.06 220,-176.5 226.17,-172.46 233.33,-169.11 240.27,-166.4"/>
<polygon fill="#63b8ff" stroke="#63b8ff" points="241.15,-169.8 249.42,-163.18 238.83,-163.2 241.15,-169.8"/>
</a>
</g>
</g>
<!-- Node28 -->
<g id="Node000028" class="node">
<title>Node28</title>
<g id="a_Node000028"><a xlink:href="util_8c.html#a287ce1feefaf765ad7ea77b09a8a3cc5" target="_top" xlink:title=" ">
<polygon fill="white" stroke="#666666" points="428,-241 384,-241 384,-222 428,-222 428,-241"/>
<text text-anchor="middle" x="406" y="-229" font-family="Helvetica,sans-Serif" font-size="10.00">str_eq</text>
</a>
</g>
</g>
<!-- Node27&#45;&gt;Node28 -->
<g id="edge31_Node000027_Node000028" class="edge">
<title>Node27&#45;&gt;Node28</title>
<g id="a_edge31_Node000027_Node000028"><a xlink:title=" ">
<path fill="none" stroke="#63b8ff" d="M317.73,-231.5C335.71,-231.5 355.99,-231.5 372.47,-231.5"/>
<polygon fill="#63b8ff" stroke="#63b8ff" points="372.2,-235 382.2,-231.5 372.2,-228 372.2,-235"/>
</a>
</g>
</g>
<!-- Node30 -->
<g id="Node000030" class="node">
<title>Node30</title>
<g id="a_Node000030"><a xlink:href="util_8c.html#a11e4cc2c4091382952e3cc3cf2a7bb04" target="_top" xlink:title=" ">
<polygon fill="white" stroke="#666666" points="422.5,-204 389.5,-204 389.5,-185 422.5,-185 422.5,-204"/>
<text text-anchor="middle" x="406" y="-192" font-family="Helvetica,sans-Serif" font-size="10.00">trim</text>
</a>
</g>
</g>
<!-- Node29&#45;&gt;Node30 -->
<g id="edge33_Node000029_Node000030" class="edge">
<title>Node29&#45;&gt;Node30</title>
<g id="a_edge33_Node000029_Node000030"><a xlink:title=" ">
<path fill="none" stroke="#63b8ff" d="M298.99,-194.5C321.91,-194.5 354.9,-194.5 377.97,-194.5"/>
<polygon fill="#63b8ff" stroke="#63b8ff" points="377.82,-198 387.82,-194.5 377.82,-191 377.82,-198"/>
</a>
</g>
</g>
<!-- Node33 -->
<g id="Node000033" class="node">
<title>Node33</title>
<g id="a_Node000033"><a xlink:href="avoidance__nohold_8c.html#a1e3f8cc04fcb24aec1fdb423a9e1ad2d" target="_top" xlink:title=" ">
<polygon fill="white" stroke="#666666" points="315.5,-130 227.5,-130 227.5,-111 315.5,-111 315.5,-130"/>
<text text-anchor="middle" x="271.5" y="-118" font-family="Helvetica,sans-Serif" font-size="10.00">on_request_impl</text>
</a>
</g>
</g>
<!-- Node32&#45;&gt;Node33 -->
<g id="edge36_Node000032_Node000033" class="edge">
<title>Node32&#45;&gt;Node33</title>
<g id="a_edge36_Node000032_Node000033"><a xlink:title=" ">
<path fill="none" stroke="#63b8ff" d="M167.66,-184.55C173.34,-182.31 178.98,-179.65 184,-176.5 203.43,-164.3 200.8,-152.06 220,-139.5 222.37,-137.95 224.88,-136.5 227.46,-135.16"/>
<polygon fill="#63b8ff" stroke="#63b8ff" points="228.7,-138.44 236.31,-131.07 225.77,-132.08 228.7,-138.44"/>
</a>
</g>
</g>
<!-- Node34&#45;&gt;Node33 -->
<g id="edge38_Node000034_Node000033" class="edge">
<title>Node34&#45;&gt;Node33</title>
<g id="a_edge38_Node000034_Node000033"><a xlink:title=" ">
<path fill="none" stroke="#63b8ff" d="M167.65,-147.58C184.27,-143.21 204.01,-138.01 221.73,-133.34"/>
<polygon fill="#63b8ff" stroke="#63b8ff" points="222.5,-136.76 231.28,-130.83 220.72,-129.99 222.5,-136.76"/>
</a>
</g>
</g>
<!-- Node35&#45;&gt;Node33 -->
<g id="edge40_Node000035_Node000033" class="edge">
<title>Node35&#45;&gt;Node33</title>
<g id="a_edge40_Node000035_Node000033"><a xlink:title=" ">
<path fill="none" stroke="#63b8ff" d="M184.32,-120.5C194.64,-120.5 205.45,-120.5 215.79,-120.5"/>
<polygon fill="#63b8ff" stroke="#63b8ff" points="215.69,-124 225.69,-120.5 215.69,-117 215.69,-124"/>
</a>
</g>
</g>
<!-- Node36&#45;&gt;Node33 -->
<g id="edge42_Node000036_Node000033" class="edge">
<title>Node36&#45;&gt;Node33</title>
<g id="a_edge42_Node000036_Node000033"><a xlink:title=" ">
<path fill="none" stroke="#63b8ff" d="M167.65,-93.42C184.27,-97.79 204.01,-102.99 221.73,-107.66"/>
<polygon fill="#63b8ff" stroke="#63b8ff" points="220.72,-111.01 231.28,-110.17 222.5,-104.24 220.72,-111.01"/>
</a>
</g>
</g>
<!-- Node38 -->
<g id="Node000038" class="node">
<title>Node38</title>
<g id="a_Node000038"><a xlink:href="resolver__abort_8c.html#a8d591af0b31d90b2a9298ae8250393a1" target="_top" xlink:title=" ">
<polygon fill="white" stroke="#666666" points="306.5,-38 236.5,-38 236.5,-19 306.5,-19 306.5,-38"/>
<text text-anchor="middle" x="271.5" y="-26" font-family="Helvetica,sans-Serif" font-size="10.00">resolve_impl</text>
</a>
</g>
</g>
<!-- Node37&#45;&gt;Node38 -->
<g id="edge44_Node000037_Node000038" class="edge">
<title>Node37&#45;&gt;Node38</title>
<g id="a_edge44_Node000037_Node000038"><a xlink:title=" ">
<path fill="none" stroke="#63b8ff" d="M167.65,-41.68C185.2,-39.43 206.25,-36.73 224.71,-34.37"/>
<polygon fill="#63b8ff" stroke="#63b8ff" points="225.14,-37.84 234.61,-33.1 224.25,-30.9 225.14,-37.84"/>
</a>
</g>
</g>
<!-- Node39 -->
<g id="Node000039" class="node">
<title>Node39</title>
<g id="a_Node000039"><a xlink:href="resolver__abort_8c.html#ac32f7d7f6278f42fe3c9253d7699507b" target="_top" xlink:title=" ">
<polygon fill="white" stroke="#666666" points="435.5,-38 376.5,-38 376.5,-19 435.5,-19 435.5,-38"/>
<text text-anchor="middle" x="406" y="-26" font-family="Helvetica,sans-Serif" font-size="10.00">held_total</text>
</a>
</g>
</g>
<!-- Node38&#45;&gt;Node39 -->
<g id="edge45_Node000038_Node000039" class="edge">
<title>Node38&#45;&gt;Node39</title>
<g id="a_edge45_Node000038_Node000039"><a xlink:title=" ">
<path fill="none" stroke="#63b8ff" d="M306.97,-28.5C324.66,-28.5 346.32,-28.5 364.78,-28.5"/>
<polygon fill="#63b8ff" stroke="#63b8ff" points="364.57,-32 374.57,-28.5 364.57,-25 364.57,-32"/>
</a>
</g>
</g>
<!-- Node40&#45;&gt;Node38 -->
<g id="edge47_Node000040_Node000038" class="edge">
<title>Node40&#45;&gt;Node38</title>
<g id="a_edge47_Node000040_Node000038"><a xlink:title=" ">
<path fill="none" stroke="#63b8ff" d="M173.68,-15.41C190.05,-17.62 208.67,-20.14 225.17,-22.37"/>
<polygon fill="#63b8ff" stroke="#63b8ff" points="224.33,-25.79 234.71,-23.66 225.27,-18.85 224.33,-25.79"/>
</a>
</g>
</g>
</g>
</svg>

<g id="navigator" transform="translate(0 0)" fill="#404254">
  <rect fill="#f2f5e9" fill-opacity="0.5" stroke="#606060" stroke-width=".5" x="0" y="0" width="60" height="60"/>
  <use id="zoomplus" xlink:href="#zoomPlus" x="17" y="9" onmousedown="handleZoom(evt,'in')"/>
  <use id="zoomminus" xlink:href="#zoomMin" x="42" y="9" onmousedown="handleZoom(evt,'out')"/>
  <use id="reset" xlink:href="#resetDef" x="30" y="36" onmousedown="handleReset()"/>
   <use id="arrowup" xlink:href="#arrowUp" x="0" y="0" onmousedown="handlePan(0,-1)"/>
  <use id="arrowright" xlink:href="#arrowRight" x="0" y="0" onmousedown="handlePan(1,0)"/>
  <use id="arrowdown" xlink:href="#arrowDown" x="0" y="0" onmousedown="handlePan(0,1)"/>
  <use id="arrowleft" xlink:href="#arrowLeft" x="0" y="0" onmousedown="handlePan(-1,0)"/>
</g>
<svg viewBox="0 0 15 15" width="100%" height="30px" preserveAspectRatio="xMaxYMin meet">
 <g id="arrow_out" transform="scale(0.3 0.3)">
  <a xlink:href="main_8c_a3c04138a5bfe5d72780bb7e82a18e627_cgraph_org.svg" target="_base">
   <rect id="button" ry="5" rx="5" y="6" x="6" height="38" width="38"
        fill="#f2f5e9" fill-opacity="0.5" stroke="#606060" stroke-width="1.0"/>
   <path id="arrow"
     d="M 11.500037,31.436501 C 11.940474,20.09759 22.043105,11.32322 32.158766,21.979434 L 37.068811,17.246167 C 37.068811,17.246167 37.088388,32 37.088388,32 L 22.160133,31.978069 C 22.160133,31.978069 26.997745,27.140456 26.997745,27.140456 C 18.528582,18.264221 13.291696,25.230495 11.500037,31.436501 z"
     style="fill:#404040;"/>
  </a>
 </g>
</svg>

<style type='text/css'>
<![CDATA[
[data-mouse-over-selected='false'] { opacity: 0.7; }
[data-mouse-over-selected='true']  { opacity: 1.0; }
]]>
</style>
<script type="application/ecmascript"><![CDATA[
document.addEventListener('DOMContentLoaded', (event) => {
  highlightEdges();
  highlightAdjacentNodes();
});
]]></script>
</svg>
