<?xml version="1.0" encoding="UTF-8" standalone="no"?>
<!DOCTYPE svg PUBLIC "-//W3C//DTD SVG 1.1//EN"
 "http://www.w3.org/Graphics/SVG/1.1/DTD/svg11.dtd">
<!-- Generated by graphviz version 7.1.0 (20230121.1956)
 -->
<!-- Title: src/core/model.h Pages: 1 -->
<!--zoomable 214 -->

<svg id="main" version="1.1" xmlns="http://www.w3.org/2000/svg" xmlns:xlink="http://www.w3.org/1999/xlink" xml:space="preserve" onload="init(evt)">

<style type="text/css"><![CDATA[
.node, .edge {opacity: 0.7;}
.node.selected, .edge.selected {opacity: 1;}
.edge:hover path { stroke: red; }
.edge:hover polygon { stroke: red; fill: red; }
]]></style>

<defs>
  <circle id="rim" cx="0" cy="0" r="7"/>
  <circle id="rim2" cx="0" cy="0" r="3.5"/>
  <g id="zoomPlus">
    <use xlink:href="#rim" fill="#404040"><set attributeName="fill" to="#808080" begin="zoomplus.mouseover" end="zoomplus.mouseout"/></use>
    <path d="M-4,0h8M0,-4v8" fill="none" stroke="white" stroke-width="1.5" pointer-events="none"/>
  </g>
  <g id="zoomMin">
    <use xlink:href="#rim" fill="#404040"><set attributeName="fill" to="#808080" begin="zoomminus.mouseover" end="zoomminus.mouseout"/></use>
    <path d="M-4,0h8" fill="none" stroke="white" stroke-width="1.5" pointer-events="none"/>
  </g>
  <g id="arrowUp" transform="translate(30 24)">
    <use xlink:href="#rim"/>
    <path pointer-events="none" fill="none" stroke="white" stroke-width="1.5" d="M0,-3.0v7 M-2.5,-0.5L0,-3.0L2.5,-0.5"/>
  </g>
  <g id="arrowRight" transform="rotate(90) translate(36 -43)">
    <use xlink:href="#rim"/>
    <path pointer-events="none" fill="none" stroke="white" stroke-width="1.5" d="M0,-3.0v7 M-2.5,-0.5L0,-3.0L2.5,-0.5"/>
  </g>
  <g id="arrowDown" transform="rotate(180) translate(-30 -48)">
    <use xlink:href="#rim"/>
    <path pointer-events="none" fill="none" stroke="white" stroke-width="1.5" d="M0,-3.0v7 M-2.5,-0.5L0,-3.0L2.5,-0.5"/>
  </g>
  <g id="arrowLeft" transform="rotate(270) translate(-36 17)">
    <use xlink:href="#rim"/>
    <path pointer-events="none" fill="none" stroke="white" stroke-width="1.5" d="M0,-3.0v7 M-2.5,-0.5L0,-3.0L2.5,-0.5"/>
  </g>
  <g id="resetDef">
    <use xlink:href="#rim2" fill="#404040"><set attributeName="fill" to="#808080" begin="reset.mouseover" end="reset.mouseout"/></use>
  </g>
</defs>
<script type="application/ecmascript">
var viewWidth = 1186;
var viewHeight = 214;
var sectionId = 'dynsection-1';
</script>
<script type="application/ecmascript" xlink:href="svg.min.js"/>
<svg id="graph" class="graph">
<g id="viewport">
<title>src/core/model.h</title>
<!-- Node1 -->
<g id="Node000001" class="node">
<title>Node1</title>
<g id="a_Node000001"><a xlink:title=" ">
<polygon fill="#999999" stroke="#666666" points="558.5,-206 469.5,-206 469.5,-187 558.5,-187 558.5,-206"/>
<text text-anchor="middle" x="514" y="-194" font-family="Helvetica,sans-Serif" font-size="10.00">src/core/model.h</text>
</a>
</g>
</g>
<!-- Node2 -->
<g id="Node000002" class="node">
<title>Node2</title>
<g id="a_Node000002"><a xlink:href="engine_8h.html" target="_top" xlink:title=" ">
<polygon fill="white" stroke="#666666" points="132,-90.5 40,-90.5 40,-71.5 132,-71.5 132,-90.5"/>
<text text-anchor="middle" x="86" y="-78.5" font-family="Helvetica,sans-Serif" font-size="10.00">src/core/engine.h</text>
</a>
</g>
</g>
<!-- Node1&#45;&gt;Node2 -->
<g id="edge1_Node000001_Node000002" class="edge">
<title>Node1&#45;&gt;Node2</title>
<g id="a_edge1_Node000001_Node000002"><a xlink:title=" ">
<path fill="none" stroke="#63b8ff" d="M469.46,-183.69C383.48,-160.89 196.33,-111.26 119.72,-90.94"/>
<polygon fill="#63b8ff" stroke="#63b8ff" points="468.39,-187.03 478.95,-186.21 470.18,-180.26 468.39,-187.03"/>
</a>
</g>
</g>
<!-- Node5 -->
<g id="Node000005" class="node">
<title>Node5</title>
<g id="a_Node000005"><a xlink:href="model_8c.html" target="_top" xlink:title=" ">
<polygon fill="white" stroke="#666666" points="672.5,-151 583.5,-151 583.5,-132 672.5,-132 672.5,-151"/>
<text text-anchor="middle" x="628" y="-139" font-family="Helvetica,sans-Serif" font-size="10.00">src/core/model.c</text>
</a>
</g>
</g>
<!-- Node1&#45;&gt;Node5 -->
<g id="edge4_Node000001_Node000005" class="edge">
<title>Node1&#45;&gt;Node5</title>
<g id="a_edge4_Node000001_Node000005"><a xlink:title=" ">
<path fill="none" stroke="#63b8ff" d="M543.76,-181.67C564.36,-172.09 591.17,-159.62 608.95,-151.36"/>
<polygon fill="#63b8ff" stroke="#63b8ff" points="542.3,-178.48 534.71,-185.87 545.25,-184.83 542.3,-178.48"/>
</a>
</g>
</g>
<!-- Node6 -->
<g id="Node000006" class="node">
<title>Node6</title>
<g id="a_Node000006"><a xlink:href="policy_8h.html" target="_top" xlink:title=" ">
<polygon fill="white" stroke="#666666" points="565.5,-151 462.5,-151 462.5,-132 565.5,-132 565.5,-151"/>
<text text-anchor="middle" x="514" y="-139" font-family="Helvetica,sans-Serif" font-size="10.00">src/policies/policy.h</text>
</a>
</g>
</g>
<!-- Node1&#45;&gt;Node6 -->
<g id="edge5_Node000001_Node000006" class="edge">
<title>Node1&#45;&gt;Node6</title>
<g id="a_edge5_Node000001_Node000006"><a xlink:title=" ">
<path fill="none" stroke="#63b8ff" d="M514,-175.35C514,-167.1 514,-157.97 514,-151.44"/>
<polygon fill="#63b8ff" stroke="#63b8ff" points="510.5,-175.23 514,-185.23 517.5,-175.23 510.5,-175.23"/>
</a>
</g>
</g>
<!-- Node3 -->
<g id="Node000003" class="node">
<title>Node3</title>
<g id="a_Node000003"><a xlink:href="engine_8c.html" target="_top" xlink:title=" ">
<polygon fill="white" stroke="#666666" points="92,-24.5 0,-24.5 0,-5.5 92,-5.5 92,-24.5"/>
<text text-anchor="middle" x="46" y="-12.5" font-family="Helvetica,sans-Serif" font-size="10.00">src/core/engine.c</text>
</a>
</g>
</g>
<!-- Node2&#45;&gt;Node3 -->
<g id="edge2_Node000002_Node000003" class="edge">
<title>Node2&#45;&gt;Node3</title>
<g id="a_edge2_Node000002_Node000003"><a xlink:title=" ">
<path fill="none" stroke="#63b8ff" d="M74.46,-61.53C66.91,-49.46 57.41,-34.25 51.51,-24.82"/>
<polygon fill="#63b8ff" stroke="#63b8ff" points="71.37,-63.19 79.64,-69.82 77.3,-59.48 71.37,-63.19"/>
</a>
</g>
</g>
<!-- Node4 -->
<g id="Node000004" class="node">
<title>Node4</title>
<g id="a_Node000004"><a xlink:href="main_8c.html" target="_top" xlink:title=" ">
<polygon fill="white" stroke="#666666" points="668,-24.5 606,-24.5 606,-5.5 668,-5.5 668,-24.5"/>
<text text-anchor="middle" x="637" y="-12.5" font-family="Helvetica,sans-Serif" font-size="10.00">src/main.c</text>
</a>
</g>
</g>
<!-- Node2&#45;&gt;Node4 -->
<g id="edge3_Node000002_Node000004" class="edge">
<title>Node2&#45;&gt;Node4</title>
<g id="a_edge3_Node000002_Node000004"><a xlink:title=" ">
<path fill="none" stroke="#63b8ff" d="M128.34,-68.46C132.59,-67.53 136.87,-66.68 141,-66 341.57,-32.8 398.07,-71.93 597,-30 602.9,-28.76 609.13,-26.87 614.86,-24.89"/>
<polygon fill="#63b8ff" stroke="#63b8ff" points="127.62,-65.03 118.69,-70.73 129.23,-71.84 127.62,-65.03"/>
</a>
</g>
</g>
<!-- Node6&#45;&gt;Node2 -->
<g id="edge6_Node000006_Node000002" class="edge">
<title>Node6&#45;&gt;Node2</title>
<g id="a_edge6_Node000006_Node000002"><a xlink:title=" ">
<path fill="none" stroke="#63b8ff" d="M451.05,-135.52C376.59,-129.04 249.1,-116.12 141,-96 133.64,-94.63 125.8,-92.84 118.42,-91"/>
<polygon fill="#63b8ff" stroke="#63b8ff" points="450.32,-138.97 460.58,-136.33 450.92,-131.99 450.32,-138.97"/>
</a>
</g>
</g>
<!-- Node7 -->
<g id="Node000007" class="node">
<title>Node7</title>
<g id="a_Node000007"><a xlink:href="avoidance__nohold_8h.html" target="_top" xlink:title=" ">
<polygon fill="white" stroke="#666666" points="878,-96 766,-96 766,-66 878,-66 878,-96"/>
<text text-anchor="start" x="774" y="-84" font-family="Helvetica,sans-Serif" font-size="10.00">src/policies/avoidance</text>
<text text-anchor="middle" x="822" y="-73" font-family="Helvetica,sans-Serif" font-size="10.00">_nohold.h</text>
</a>
</g>
</g>
<!-- Node6&#45;&gt;Node7 -->
<g id="edge7_Node000006_Node000007" class="edge">
<title>Node6&#45;&gt;Node7</title>
<g id="a_edge7_Node000006_Node000007"><a xlink:title=" ">
<path fill="none" stroke="#63b8ff" d="M576.84,-129.54C625.97,-120.85 695.93,-108.17 757,-96 759.83,-95.44 762.73,-94.85 765.65,-94.25"/>
<polygon fill="#63b8ff" stroke="#63b8ff" points="576.49,-126.05 567.25,-131.24 577.71,-132.95 576.49,-126.05"/>
</a>
</g>
</g>
<!-- Node9 -->
<g id="Node000009" class="node">
<title>Node9</title>
<g id="a_Node000009"><a xlink:href="avoidance__ordering_8h.html" target="_top" xlink:title=" ">
<polygon fill="white" stroke="#666666" points="1008,-96 896,-96 896,-66 1008,-66 1008,-96"/>
<text text-anchor="start" x="904" y="-84" font-family="Helvetica,sans-Serif" font-size="10.00">src/policies/avoidance</text>
<text text-anchor="middle" x="952" y="-73" font-family="Helvetica,sans-Serif" font-size="10.00">_ordering.h</text>
</a>
</g>
</g>
<!-- Node6&#45;&gt;Node9 -->
<g id="edge10_Node000006_Node000009" class="edge">
<title>Node6&#45;&gt;Node9</title>
<g id="a_edge10_Node000006_Node000009"><a xlink:title=" ">
<path fill="none" stroke="#63b8ff" d="M577.11,-131.64C714.86,-114.4 752.48,-118.17 887,-96 889.85,-95.53 892.76,-95.02 895.69,-94.48"/>
<polygon fill="#63b8ff" stroke="#63b8ff" points="576.68,-128.17 567.2,-132.9 577.56,-135.11 576.68,-128.17"/>
</a>
</g>
</g>
<!-- Node11 -->
<g id="Node000011" class="node">
<title>Node11</title>
<g id="a_Node000011"><a xlink:href="avoidance__preempt_8h.html" target="_top" xlink:title=" ">
<polygon fill="white" stroke="#666666" points="1138,-96 1026,-96 1026,-66 1138,-66 1138,-96"/>
<text text-anchor="start" x="1034" y="-84" font-family="Helvetica,sans-Serif" font-size="10.00">src/policies/avoidance</text>
<text text-anchor="middle" x="1082" y="-73" font-family="Helvetica,sans-Serif" font-size="10.00">_preempt.h</text>
</a>
</g>
</g>
<!-- Node6&#45;&gt;Node11 -->
<g id="edge13_Node000006_Node000011" class="edge">
<title>Node6&#45;&gt;Node11</title>
<g id="a_edge13_Node000006_Node000011"><a xlink:title=" ">
<path fill="none" stroke="#63b8ff" d="M576.92,-131.75C772.28,-110.67 825.21,-124.32 1017,-96 1019.85,-95.58 1022.77,-95.11 1025.71,-94.6"/>
<polygon fill="#63b8ff" stroke="#63b8ff" points="576.75,-128.24 567.19,-132.81 577.51,-135.2 576.75,-128.24"/>
</a>
</g>
</g>
<!-- Node13 -->
<g id="Node000013" class="node">
<title>Node13</title>
<g id="a_Node000013"><a xlink:href="detector__matrix_8h.html" target="_top" xlink:title=" ">
<polygon fill="white" stroke="#666666" points="254,-96 150,-96 150,-66 254,-66 254,-96"/>
<text text-anchor="start" x="158" y="-84" font-family="Helvetica,sans-Serif" font-size="10.00">src/policies/detector</text>
<text text-anchor="middle" x="202" y="-73" font-family="Helvetica,sans-Serif" font-size="10.00">_matrix.h</text>
</a>
</g>
</g>
<!-- Node6&#45;&gt;Node13 -->
<g id="edge16_Node000006_Node000013" class="edge">
<title>Node6&#45;&gt;Node13</title>
<g id="a_edge16_Node000006_Node000013"><a xlink:title=" ">
<path fill="none" stroke="#63b8ff" d="M451.28,-130.28C400.41,-121.77 326.91,-108.99 263,-96 260.13,-95.42 257.18,-94.8 254.21,-94.16"/>
<polygon fill="#63b8ff" stroke="#63b8ff" points="450.49,-133.69 460.93,-131.88 451.64,-126.79 450.49,-133.69"/>
</a>
</g>
</g>
<!-- Node15 -->
<g id="Node000015" class="node">
<title>Node15</title>
<g id="a_Node000015"><a xlink:href="detector__wfg_8h.html" target="_top" xlink:title=" ">
<polygon fill="white" stroke="#666666" points="376,-96 272,-96 272,-66 376,-66 376,-96"/>
<text text-anchor="start" x="280" y="-84" font-family="Helvetica,sans-Serif" font-size="10.00">src/policies/detector</text>
<text text-anchor="middle" x="324" y="-73" font-family="Helvetica,sans-Serif" font-size="10.00">_wfg.h</text>
</a>
</g>
</g>
<!-- Node6&#45;&gt;Node15 -->
<g id="edge19_Node000006_Node000015" class="edge">
<title>Node6&#45;&gt;Node15</title>
<g id="a_edge19_Node000006_Node000015"><a xlink:title=" ">
<path fill="none" stroke="#63b8ff" d="M474.2,-128.25C444.08,-118.97 402.63,-106.21 370.9,-96.44"/>
<polygon fill="#63b8ff" stroke="#63b8ff" points="473.11,-131.57 483.7,-131.17 475.17,-124.88 473.11,-131.57"/>
</a>
</g>
</g>
<!-- Node17 -->
<g id="Node000017" class="node">
<title>Node17</title>
<g id="a_Node000017"><a xlink:href="prevention__banker_8h.html" target="_top" xlink:title=" ">
<polygon fill="white" stroke="#666666" points="507.5,-96 394.5,-96 394.5,-66 507.5,-66 507.5,-96"/>
<text text-anchor="start" x="402.5" y="-84" font-family="Helvetica,sans-Serif" font-size="10.00">src/policies/prevention</text>
<text text-anchor="middle" x="451" y="-73" font-family="Helvetica,sans-Serif" font-size="10.00">_banker.h</text>
</a>
</g>
</g>
<!-- Node6&#45;&gt;Node17 -->
<g id="edge22_Node000006_Node000017" class="edge">
<title>Node6&#45;&gt;Node17</title>
<g id="a_edge22_Node000006_Node000017"><a xlink:title=" ">
<path fill="none" stroke="#63b8ff" d="M496.23,-124C486.89,-115.32 475.54,-104.79 466.55,-96.44"/>
<polygon fill="#63b8ff" stroke="#63b8ff" points="493.61,-126.35 503.32,-130.59 498.38,-121.22 493.61,-126.35"/>
</a>
</g>
</g>
<!-- Node19 -->
<g id="Node000019" class="node">
<title>Node19</title>
<g id="a_Node000019"><a xlink:href="resolver__abort_8h.html" target="_top" xlink:title=" ">
<polygon fill="white" stroke="#666666" points="628,-96 526,-96 526,-66 628,-66 628,-96"/>
<text text-anchor="start" x="534" y="-84" font-family="Helvetica,sans-Serif" font-size="10.00">src/policies/resolver</text>
<text text-anchor="middle" x="577" y="-73" font-family="Helvetica,sans-Serif" font-size="10.00">_abort.h</text>
</a>
</g>
</g>
<!-- Node6&#45;&gt;Node19 -->
<g id="edge25_Node000006_Node000019" class="edge">
<title>Node6&#45;&gt;Node19</title>
<g id="a_edge25_Node000006_Node000019"><a xlink:title=" ">
<path fill="none" stroke="#63b8ff" d="M531.77,-124C541.11,-115.32 552.46,-104.79 561.45,-96.44"/>
<polygon fill="#63b8ff" stroke="#63b8ff" points="529.62,-121.22 524.68,-130.59 534.39,-126.35 529.62,-121.22"/>
</a>
</g>
</g>
<!-- Node21 -->
<g id="Node000021" class="node">
<title>Node21</title>
<g id="a_Node000021"><a xlink:href="resolver__rollback_8h.html" target="_top" xlink:title=" ">
<polygon fill="white" stroke="#666666" points="748,-96 646,-96 646,-66 748,-66 748,-96"/>
<text text-anchor="start" x="654" y="-84" font-family="Helvetica,sans-Serif" font-size="10.00">src/policies/resolver</text>
<text text-anchor="middle" x="697" y="-73" font-family="Helvetica,sans-Serif" font-size="10.00">_rollback.h</text>
</a>
</g>
</g>
<!-- Node6&#45;&gt;Node21 -->
<g id="edge28_Node000006_Node000021" class="edge">
<title>Node6&#45;&gt;Node21</title>
<g id="a_edge28_Node000006_Node000021"><a xlink:title=" ">
<path fill="none" stroke="#63b8ff" d="M552.72,-128.12C581.7,-118.86 621.4,-106.17 651.83,-96.44"/>
<polygon fill="#63b8ff" stroke="#63b8ff" points="551.69,-124.78 543.24,-131.15 553.83,-131.44 551.69,-124.78"/>
</a>
</g>
</g>
<!-- Node7&#45;&gt;Node4 -->
<g id="edge8_Node000007_Node000004" class="edge">
<title>Node7&#45;&gt;Node4</title>
<g id="a_edge8_Node000007_Node000004"><a xlink:title=" ">
<path fill="none" stroke="#63b8ff" d="M769.21,-61.86C741.71,-52.4 707.53,-40.61 677,-30 672.27,-28.36 667.24,-26.6 662.39,-24.9"/>
<polygon fill="#63b8ff" stroke="#63b8ff" points="767.76,-65.07 778.36,-65.01 770.04,-58.45 767.76,-65.07"/>
</a>
</g>
</g>
<!-- Node8 -->
<g id="Node000008" class="node">
<title>Node8</title>
<g id="a_Node000008"><a xlink:href="avoidance__nohold_8c.html" target="_top" xlink:title=" ">
<polygon fill="white" stroke="#666666" points="918,-30 806,-30 806,0 918,0 918,-30"/>
<text text-anchor="start" x="814" y="-18" font-family="Helvetica,sans-Serif" font-size="10.00">src/policies/avoidance</text>
<text text-anchor="middle" x="862" y="-7" font-family="Helvetica,sans-Serif" font-size="10.00">_nohold.c</text>
</a>
</g>
</g>
<!-- Node7&#45;&gt;Node8 -->
<g id="edge9_Node000007_Node000008" class="edge">
<title>Node7&#45;&gt;Node8</title>
<g id="a_edge9_Node000007_Node000008"><a xlink:title=" ">
<path fill="none" stroke="#63b8ff" d="M836.93,-56.11C842.39,-47.38 848.39,-37.78 853.15,-30.16"/>
<polygon fill="#63b8ff" stroke="#63b8ff" points="834.01,-54.18 831.68,-64.51 839.95,-57.89 834.01,-54.18"/>
</a>
</g>
</g>
<!-- Node9&#45;&gt;Node4 -->
<g id="edge11_Node000009_Node000004" class="edge">
<title>Node9&#45;&gt;Node4</title>
<g id="a_edge11_Node000009_Node000004"><a xlink:title=" ">
<path fill="none" stroke="#63b8ff" d="M884.37,-65.57C792,-48.42 765.18,-52.82 677,-30 671.59,-28.6 665.86,-26.8 660.49,-24.95"/>
<polygon fill="#63b8ff" stroke="#63b8ff" points="883.7,-69 894.17,-67.43 885,-62.13 883.7,-69"/>
</a>
</g>
</g>
<!-- Node10 -->
<g id="Node000010" class="node">
<title>Node10</title>
<g id="a_Node000010"><a xlink:href="avoidance__ordering_8c.html" target="_top" xlink:title=" ">
<polygon fill="white" stroke="#666666" points="1048,-30 936,-30 936,0 1048,0 1048,-30"/>
<text text-anchor="start" x="944" y="-18" font-family="Helvetica,sans-Serif" font-size="10.00">src/policies/avoidance</text>
<text text-anchor="middle" x="992" y="-7" font-family="Helvetica,sans-Serif" font-size="10.00">_ordering.c</text>
</a>
</g>
</g>
<!-- Node9&#45;&gt;Node10 -->
<g id="edge12_Node000009_Node000010" class="edge">
<title>Node9&#45;&gt;Node10</title>
<g id="a_edge12_Node000009_Node000010"><a xlink:title=" ">
<path fill="none" stroke="#63b8ff" d="M966.93,-56.11C972.39,-47.38 978.39,-37.78 983.15,-30.16"/>
<polygon fill="#63b8ff" stroke="#63b8ff" points="964.01,-54.18 961.68,-64.51 969.95,-57.89 964.01,-54.18"/>
</a>
</g>
</g>
<!-- Node11&#45;&gt;Node4 -->
<g id="edge14_Node000011_Node000004" class="edge">
<title>Node11&#45;&gt;Node4</title>
<g id="a_edge14_Node000011_Node000004"><a xlink:title=" ">
<path fill="none" stroke="#63b8ff" d="M1014.73,-65.77C864.94,-42.94 821.78,-62.54 677,-30 671.26,-28.71 665.2,-26.86 659.58,-24.92"/>
<polygon fill="#63b8ff" stroke="#63b8ff" points="1013.78,-69.17 1024.2,-67.26 1014.87,-62.25 1013.78,-69.17"/>
</a>
</g>
</g>
<!-- Node12 -->
<g id="Node000012" class="node">
<title>Node12</title>
<g id="a_Node000012"><a xlink:href="avoidance__preempt_8c.html" target="_top" xlink:title=" ">
<polygon fill="white" stroke="#666666" points="1178,-30 1066,-30 1066,0 1178,0 1178,-30"/>
<text text-anchor="start" x="1074" y="-18" font-family="Helvetica,sans-Serif" font-size="10.00">src/policies/avoidance</text>
<text text-anchor="middle" x="1122" y="-7" font-family="Helvetica,sans-Serif" font-size="10.00">_preempt.c</text>
</a>
</g>
</g>
<!-- Node11&#45;&gt;Node12 -->
<g id="edge15_Node000011_Node000012" class="edge">
<title>Node11&#45;&gt;Node12</title>
<g id="a_edge15_Node000011_Node000012"><a xlink:title=" ">
<path fill="none" stroke="#63b8ff" d="M1096.93,-56.11C1102.39,-47.38 1108.39,-37.78 1113.15,-30.16"/>
<polygon fill="#63b8ff" stroke="#63b8ff" points="1094.01,-54.18 1091.68,-64.51 1099.95,-57.89 1094.01,-54.18"/>
</a>
</g>
</g>
<!-- Node13&#45;&gt;Node4 -->
<g id="edge17_Node000013_Node000004" class="edge">
<title>Node13&#45;&gt;Node4</title>
<g id="a_edge17_Node000013_Node000004"><a xlink:title=" ">
<path fill="none" stroke="#63b8ff" d="M265.7,-65.7C412.31,-42.28 454.92,-62.07 597,-30 602.74,-28.7 608.8,-26.85 614.42,-24.92"/>
<polygon fill="#63b8ff" stroke="#63b8ff" points="265.29,-62.22 255.99,-67.29 266.42,-69.12 265.29,-62.22"/>
</a>
</g>
</g>
<!-- Node14 -->
<g id="Node000014" class="node">
<title>Node14</title>
<g id="a_Node000014"><a xlink:href="detector__matrix_8c.html" target="_top" xlink:title=" ">
<polygon fill="white" stroke="#666666" points="214,-30 110,-30 110,0 214,0 214,-30"/>
<text text-anchor="start" x="118" y="-18" font-family="Helvetica,sans-Serif" font-size="10.00">src/policies/detector</text>
<text text-anchor="middle" x="162" y="-7" font-family="Helvetica,sans-Serif" font-size="10.00">_matrix.c</text>
</a>
</g>
</g>
<!-- Node13&#45;&gt;Node14 -->
<g id="edge18_Node000013_Node000014" class="edge">
<title>Node13&#45;&gt;Node14</title>
<g id="a_edge18_Node000013_Node000014"><a xlink:title=" ">
<path fill="none" stroke="#63b8ff" d="M187.07,-56.11C181.61,-47.38 175.61,-37.78 170.85,-30.16"/>
<polygon fill="#63b8ff" stroke="#63b8ff" points="184.05,-57.89 192.32,-64.51 189.99,-54.18 184.05,-57.89"/>
</a>
</g>
</g>
<!-- Node15&#45;&gt;Node4 -->
<g id="edge20_Node000015_Node000004" class="edge">
<title>Node15&#45;&gt;Node4</title>
<g id="a_edge20_Node000015_Node000004"><a xlink:title=" ">
<path fill="none" stroke="#63b8ff" d="M387.3,-65.64C480.73,-47.75 507.89,-52.98 597,-30 602.41,-28.6 608.14,-26.8 613.51,-24.96"/>
<polygon fill="#63b8ff" stroke="#63b8ff" points="386.83,-62.16 377.69,-67.52 388.17,-69.03 386.83,-62.16"/>
</a>
</g>
</g>
<!-- Node16 -->
<g id="Node000016" class="node">
<title>Node16</title>
<g id="a_Node000016"><a xlink:href="detector__wfg_8c.html" target="_top" xlink:title=" ">
<polygon fill="white" stroke="#666666" points="336,-30 232,-30 232,0 336,0 336,-30"/>
<text text-anchor="start" x="240" y="-18" font-family="Helvetica,sans-Serif" font-size="10.00">src/policies/detector</text>
<text text-anchor="middle" x="284" y="-7" font-family="Helvetica,sans-Serif" font-size="10.00">_wfg.c</text>
</a>
</g>
</g>
<!-- Node15&#45;&gt;Node16 -->
<g id="edge21_Node000015_Node000016" class="edge">
<title>Node15&#45;&gt;Node16</title>
<g id="a_edge21_Node000015_Node000016"><a xlink:title=" ">
<path fill="none" stroke="#63b8ff" d="M309.07,-56.11C303.61,-47.38 297.61,-37.78 292.85,-30.16"/>
<polygon fill="#63b8ff" stroke="#63b8ff" points="306.05,-57.89 314.32,-64.51 311.99,-54.18 306.05,-57.89"/>
</a>
</g>
</g>
<!-- Node17&#45;&gt;Node4 -->
<g id="edge23_Node000017_Node000004" class="edge">
<title>Node17&#45;&gt;Node4</title>
<g id="a_edge23_Node000017_Node000004"><a xlink:title=" ">
<path fill="none" stroke="#63b8ff" d="M504.16,-61.89C531.85,-52.43 566.27,-40.64 597,-30 601.73,-28.36 606.77,-26.61 611.62,-24.91"/>
<polygon fill="#63b8ff" stroke="#63b8ff" points="503.28,-58.49 494.94,-65.04 505.54,-65.12 503.28,-58.49"/>
</a>
</g>
</g>
<!-- Node18 -->
<g id="Node000018" class="node">
<title>Node18</title>
<g id="a_Node000018"><a xlink:href="prevention__banker_8c.html" target="_top" xlink:title=" ">
<polygon fill="white" stroke="#666666" points="467.5,-30 354.5,-30 354.5,0 467.5,0 467.5,-30"/>
<text text-anchor="start" x="362.5" y="-18" font-family="Helvetica,sans-Serif" font-size="10.00">src/policies/prevention</text>
<text text-anchor="middle" x="411" y="-7" font-family="Helvetica,sans-Serif" font-size="10.00">_banker.c</text>
</a>
</g>
</g>
<!-- Node17&#45;&gt;Node18 -->
<g id="edge24_Node000017_Node000018" class="edge">
<title>Node17&#45;&gt;Node18</title>
<g id="a_edge24_Node000017_Node000018"><a xlink:title=" ">
<path fill="none" stroke="#63b8ff" d="M436.07,-56.11C430.61,-47.38 424.61,-37.78 419.85,-30.16"/>
<polygon fill="#63b8ff" stroke="#63b8ff" points="433.05,-57.89 441.32,-64.51 438.99,-54.18 433.05,-57.89"/>
</a>
</g>
</g>
<!-- Node19&#45;&gt;Node4 -->
<g id="edge26_Node000019_Node000004" class="edge">
<title>Node19&#45;&gt;Node4</title>
<g id="a_edge26_Node000019_Node000004"><a xlink:title=" ">
<path fill="none" stroke="#63b8ff" d="M597.99,-57.61C608.57,-46.32 620.8,-33.28 628.71,-24.84"/>
<polygon fill="#63b8ff" stroke="#63b8ff" points="595.64,-55 591.35,-64.69 600.74,-59.79 595.64,-55"/>
</a>
</g>
</g>
<!-- Node20 -->
<g id="Node000020" class="node">
<title>Node20</title>
<g id="a_Node000020"><a xlink:href="resolver__abort_8c.html" target="_top" xlink:title=" ">
<polygon fill="white" stroke="#666666" points="588,-30 486,-30 486,0 588,0 588,-30"/>
<text text-anchor="start" x="494" y="-18" font-family="Helvetica,sans-Serif" font-size="10.00">src/policies/resolver</text>
<text text-anchor="middle" x="537" y="-7" font-family="Helvetica,sans-Serif" font-size="10.00">_abort.c</text>
</a>
</g>
</g>
<!-- Node19&#45;&gt;Node20 -->
<g id="edge27_Node000019_Node000020" class="edge">
<title>Node19&#45;&gt;Node20</title>
<g id="a_edge27_Node000019_Node000020"><a xlink:title=" ">
<path fill="none" stroke="#63b8ff" d="M562.07,-56.11C556.61,-47.38 550.61,-37.78 545.85,-30.16"/>
<polygon fill="#63b8ff" stroke="#63b8ff" points="559.05,-57.89 567.32,-64.51 564.99,-54.18 559.05,-57.89"/>
</a>
</g>
</g>
<!-- Node21&#45;&gt;Node4 -->
<g id="edge29_Node000021_Node000004" class="edge">
<title>Node21&#45;&gt;Node4</title>
<g id="a_edge29_Node000021_Node000004"><a xlink:title=" ">
<path fill="none" stroke="#63b8ff" d="M676.01,-57.61C665.43,-46.32 653.2,-33.28 645.29,-24.84"/>
<polygon fill="#63b8ff" stroke="#63b8ff" points="673.26,-59.79 682.65,-64.69 678.36,-55 673.26,-59.79"/>
</a>
</g>
</g>
<!-- Node22 -->
<g id="Node000022" class="node">
<title>Node22</title>
<g id="a_Node000022"><a xlink:href="resolver__rollback_8c.html" target="_top" xlink:title=" ">
<polygon fill="white" stroke="#666666" points="788,-30 686,-30 686,0 788,0 788,-30"/>
<text text-anchor="start" x="694" y="-18" font-family="Helvetica,sans-Serif" font-size="10.00">src/policies/resolver</text>
<text text-anchor="middle" x="737" y="-7" font-family="Helvetica,sans-Serif" font-size="10.00">_rollback.c</text>
</a>
</g>
</g>
<!-- Node21&#45;&gt;Node22 -->
<g id="edge30_Node000021_Node000022" class="edge">
<title>Node21&#45;&gt;Node22</title>
<g id="a_edge30_Node000021_Node000022"><a xlink:title=" ">
<path fill="none" stroke="#63b8ff" d="M711.93,-56.11C717.39,-47.38 723.39,-37.78 728.15,-30.16"/>
<polygon fill="#63b8ff" stroke="#63b8ff" points="709.01,-54.18 706.68,-64.51 714.95,-57.89 709.01,-54.18"/>
</a>
</g>
</g>
</g>
</svg>

<g id="navigator" transform="translate(0 0)" fill="#404254">
  <rect fill="#f2f5e9" fill-opacity="0.5" stroke="#606060" stroke-width=".5" x="0" y="0" width="60" height="60"/>
  <use id="zoomplus" xlink:href="#zoomPlus" x="17" y="9" onmousedown="handleZoom(evt,'in')"/>
  <use id="zoomminus" xlink:href="#zoomMin" x="42" y="9" onmousedown="handleZoom(evt,'out')"/>
  <use id="reset" xlink:href="#resetDef" x="30" y="36" onmousedown="handleReset()"/>
   <use id="arrowup" xlink:href="#arrowUp" x="0" y="0" onmousedown="handlePan(0,-1)"/>
  <use id="arrowright" xlink:href="#arrowRight" x="0" y="0" onmousedown="handlePan(1,0)"/>
  <use id="arrowdown" xlink:href="#arrowDown" x="0" y="0" onmousedown="handlePan(0,1)"/>
  <use id="arrowleft" xlink:href="#arrowLeft" x="0" y="0" onmousedown="handlePan(-1,0)"/>
</g>
<svg viewBox="0 0 15 15" width="100%" height="30px" preserveAspectRatio="xMaxYMin meet">
 <g id="arrow_out" transform="scale(0.3 0.3)">
  <a xlink:href="model_8h__dep__incl_org.svg" target="_base">
   <rect id="button" ry="5" rx="5" y="6" x="6" height="38" width="38"
        fill="#f2f5e9" fill-opacity="0.5" stroke="#606060" stroke-width="1.0"/>
   <path id="arrow"
     d="M 11.500037,31.436501 C 11.940474,20.09759 22.043105,11.32322 32.158766,21.979434 L 37.068811,17.246167 C 37.068811,17.246167 37.088388,32 37.088388,32 L 22.160133,31.978069 C 22.160133,31.978069 26.997745,27.140456 26.997745,27.140456 C 18.528582,18.264221 13.291696,25.230495 11.500037,31.436501 z"
     style="fill:#404040;"/>
  </a>
 </g>
</svg>

<style type='text/css'>
<![CDATA[
[data-mouse-over-selected='false'] { opacity: 0.7; }
[data-mouse-over-selected='true']  { opacity: 1.0; }
]]>
</style>
<script type="application/ecmascript"><![CDATA[
document.addEventListener('DOMContentLoaded', (event) => {
  highlightEdges();
  highlightAdjacentNodes();
});
]]></script>
</svg>
