<?xml version="1.0" encoding="UTF-8" standalone="no"?>
<!DOCTYPE svg PUBLIC "-//W3C//DTD SVG 1.1//EN"
 "http://www.w3.org/Graphics/SVG/1.1/DTD/svg11.dtd">
<!-- Generated by graphviz version 7.1.0 (20230121.1956)
 -->
<!-- Title: proc_active Pages: 1 -->
<svg width="381pt" height="138pt"
 viewBox="0.00 0.00 381.00 138.00" xmlns="http://www.w3.org/2000/svg" xmlns:xlink="http://www.w3.org/1999/xlink">
<g id="graph0" class="graph" transform="scale(1 1) rotate(0) translate(4 134)">
<title>proc_active</title>
<!-- Node1 -->
<g id="Node000001" class="node">
<title>Node1</title>
<g id="a_Node000001"><a xlink:title=" ">
<polygon fill="#999999" stroke="#666666" points="373,-74 308,-74 308,-55 373,-55 373,-74"/>
<text text-anchor="middle" x="340.5" y="-62" font-family="Helvetica,sans-Serif" font-size="10.00">proc_active</text>
</a>
</g>
</g>
<!-- Node2 -->
<g id="Node000002" class="node">
<title>Node2</title>
<g id="a_Node000002"><a xlink:href="detector__matrix_8c.html#a799885c5715d470f18a66e692715652f" target="_top" xlink:title=" ">
<polygon fill="white" stroke="#666666" points="268.5,-130 201.5,-130 201.5,-111 268.5,-111 268.5,-130"/>
<text text-anchor="middle" x="235" y="-118" font-family="Helvetica,sans-Serif" font-size="10.00">detect_impl</text>
</a>
</g>
</g>
<!-- Node1&#45;&gt;Node2 -->
<g id="edge1_Node000001_Node000002" class="edge">
<title>Node1&#45;&gt;Node2</title>
<g id="a_edge1_Node000001_Node000002"><a xlink:title=" ">
<path fill="none" stroke="#63b8ff" d="M312.75,-79.96C300.42,-86.98 285.55,-95.31 272,-102.5 266.94,-105.19 261.43,-108 256.27,-110.58"/>
<polygon fill="#63b8ff" stroke="#63b8ff" points="314.17,-83.18 321.11,-75.17 310.7,-77.1 314.17,-83.18"/>
</a>
</g>
</g>
<!-- Node6 -->
<g id="Node000006" class="node">
<title>Node6</title>
<g id="a_Node000006"><a xlink:href="detector__wfg_8c.html#a799885c5715d470f18a66e692715652f" target="_top" xlink:title=" ">
<polygon fill="white" stroke="#666666" points="268.5,-93 201.5,-93 201.5,-74 268.5,-74 268.5,-93"/>
<text text-anchor="middle" x="235" y="-81" font-family="Helvetica,sans-Serif" font-size="10.00">detect_impl</text>
</a>
</g>
</g>
<!-- Node1&#45;&gt;Node6 -->
<g id="edge6_Node000001_Node000006" class="edge">
<title>Node1&#45;&gt;Node6</title>
<g id="a_edge6_Node000001_Node000006"><a xlink:title=" ">
<path fill="none" stroke="#63b8ff" d="M296.53,-72.39C287.22,-74.1 277.52,-75.88 268.69,-77.5"/>
<polygon fill="#63b8ff" stroke="#63b8ff" points="296.91,-75.88 306.11,-70.63 295.65,-68.99 296.91,-75.88"/>
</a>
</g>
</g>
<!-- Node7 -->
<g id="Node000007" class="node">
<title>Node7</title>
<g id="a_Node000007"><a xlink:href="engine_8c.html#ab3e07adfc8a75247bf95bc59c57518ed" target="_top" xlink:title=" ">
<polygon fill="white" stroke="#666666" points="267,-56 203,-56 203,-37 267,-37 267,-56"/>
<text text-anchor="middle" x="235" y="-44" font-family="Helvetica,sans-Serif" font-size="10.00">handle_req</text>
</a>
</g>
</g>
<!-- Node1&#45;&gt;Node7 -->
<g id="edge7_Node000001_Node000007" class="edge">
<title>Node1&#45;&gt;Node7</title>
<g id="a_edge7_Node000001_Node000007"><a xlink:title=" ">
<path fill="none" stroke="#63b8ff" d="M296.41,-57.01C286.63,-55.31 276.43,-53.53 267.26,-51.94"/>
<polygon fill="#63b8ff" stroke="#63b8ff" points="295.66,-60.43 306.11,-58.69 296.86,-53.53 295.66,-60.43"/>
</a>
</g>
</g>
<!-- Node9 -->
<g id="Node000009" class="node">
<title>Node9</title>
<g id="a_Node000009"><a xlink:href="prevention__banker_8c.html#ad2516128d8915902d8b7d277b82c6c3d" target="_top" xlink:title=" ">
<polygon fill="white" stroke="#666666" points="272,-19 198,-19 198,0 272,0 272,-19"/>
<text text-anchor="middle" x="235" y="-7" font-family="Helvetica,sans-Serif" font-size="10.00">safety_check</text>
</a>
</g>
</g>
<!-- Node1&#45;&gt;Node9 -->
<g id="edge10_Node000001_Node000009" class="edge">
<title>Node1&#45;&gt;Node9</title>
<g id="a_edge10_Node000001_Node000009"><a xlink:title=" ">
<path fill="none" stroke="#63b8ff" d="M311.84,-49.03C299.67,-42.31 285.18,-34.41 272,-27.5 266.92,-24.84 261.41,-22.04 256.25,-19.46"/>
<polygon fill="#63b8ff" stroke="#63b8ff" points="310.07,-52.05 320.51,-53.84 313.47,-45.93 310.07,-52.05"/>
</a>
</g>
</g>
<!-- Node3 -->
<g id="Node000003" class="node">
<title>Node3</title>
<g id="a_Node000003"><a xlink:href="detector__matrix_8c.html#a27be77df0494a73757489571afd186c6" target="_top" xlink:title=" ">
<polygon fill="white" stroke="#666666" points="160,-130 76,-130 76,-111 160,-111 160,-130"/>
<text text-anchor="middle" x="118" y="-118" font-family="Helvetica,sans-Serif" font-size="10.00">detector_matrix</text>
</a>
</g>
</g>
<!-- Node2&#45;&gt;Node3 -->
<g id="edge2_Node000002_Node000003" class="edge">
<title>Node2&#45;&gt;Node3</title>
<g id="a_edge2_Node000002_Node000003"><a xlink:title=" ">
<path fill="none" stroke="#63b8ff" d="M189.58,-120.5C179.9,-120.5 169.7,-120.5 160.15,-120.5"/>
<polygon fill="#63b8ff" stroke="#63b8ff" points="189.53,-124 199.53,-120.5 189.53,-117 189.53,-124"/>
</a>
</g>
</g>
<!-- Node5 -->
<g id="Node000005" class="node">
<title>Node5</title>
<g id="a_Node000005"><a xlink:href="detector__wfg_8c.html#a8237d33d78b8a2741ffa4937e48185e6" target="_top" xlink:title=" ">
<polygon fill="white" stroke="#666666" points="153.5,-93 82.5,-93 82.5,-74 153.5,-74 153.5,-93"/>
<text text-anchor="middle" x="118" y="-81" font-family="Helvetica,sans-Serif" font-size="10.00">detector_wfg</text>
</a>
</g>
</g>
<!-- Node2&#45;&gt;Node5 -->
<g id="edge4_Node000002_Node000005" class="edge">
<title>Node2&#45;&gt;Node5</title>
<g id="a_edge4_Node000002_Node000005"><a xlink:title=" ">
<path fill="none" stroke="#63b8ff" d="M192.31,-107.09C178.3,-102.58 162.93,-97.63 149.9,-93.44"/>
<polygon fill="#63b8ff" stroke="#63b8ff" points="191.15,-110.39 201.74,-110.12 193.29,-103.73 191.15,-110.39"/>
</a>
</g>
</g>
<!-- Node4 -->
<g id="Node000004" class="node">
<title>Node4</title>
<g id="a_Node000004"><a xlink:href="main_8c.html#a3c04138a5bfe5d72780bb7e82a18e627" target="_top" xlink:title=" ">
<polygon fill="white" stroke="#666666" points="38,-93 0,-93 0,-74 38,-74 38,-93"/>
<text text-anchor="middle" x="19" y="-81" font-family="Helvetica,sans-Serif" font-size="10.00">main</text>
</a>
</g>
</g>
<!-- Node3&#45;&gt;Node4 -->
<g id="edge3_Node000003_Node000004" class="edge">
<title>Node3&#45;&gt;Node4</title>
<g id="a_edge3_Node000003_Node000004"><a xlink:title=" ">
<path fill="none" stroke="#63b8ff" d="M80.41,-106.54C66.07,-101.07 50.24,-95.03 38.38,-90.51"/>
<polygon fill="#63b8ff" stroke="#63b8ff" points="79,-109.75 89.59,-110.05 81.5,-103.21 79,-109.75"/>
</a>
</g>
</g>
<!-- Node5&#45;&gt;Node4 -->
<g id="edge5_Node000005_Node000004" class="edge">
<title>Node5&#45;&gt;Node4</title>
<g id="a_edge5_Node000005_Node000004"><a xlink:title=" ">
<path fill="none" stroke="#63b8ff" d="M70.91,-83.5C59.41,-83.5 47.73,-83.5 38.47,-83.5"/>
<polygon fill="#63b8ff" stroke="#63b8ff" points="70.74,-87 80.74,-83.5 70.74,-80 70.74,-87"/>
</a>
</g>
</g>
<!-- Node8 -->
<g id="Node000008" class="node">
<title>Node8</title>
<g id="a_Node000008"><a xlink:href="engine_8c.html#a5215321b2359f517366504415e0001fc" target="_top" xlink:title=" ">
<polygon fill="white" stroke="#666666" points="150,-56 86,-56 86,-37 150,-37 150,-56"/>
<text text-anchor="middle" x="118" y="-44" font-family="Helvetica,sans-Serif" font-size="10.00">engine_run</text>
</a>
</g>
</g>
<!-- Node7&#45;&gt;Node8 -->
<g id="edge8_Node000007_Node000008" class="edge">
<title>Node7&#45;&gt;Node8</title>
<g id="a_edge8_Node000007_Node000008"><a xlink:title=" ">
<path fill="none" stroke="#63b8ff" d="M191.09,-46.5C177.58,-46.5 162.93,-46.5 150.39,-46.5"/>
<polygon fill="#63b8ff" stroke="#63b8ff" points="191.06,-50 201.06,-46.5 191.06,-43 191.06,-50"/>
</a>
</g>
</g>
<!-- Node8&#45;&gt;Node4 -->
<g id="edge9_Node000008_Node000004" class="edge">
<title>Node8&#45;&gt;Node4</title>
<g id="a_edge9_Node000008_Node000004"><a xlink:title=" ">
<path fill="none" stroke="#63b8ff" d="M80.41,-60.46C66.07,-65.93 50.24,-71.97 38.38,-76.49"/>
<polygon fill="#63b8ff" stroke="#63b8ff" points="81.5,-63.79 89.59,-56.95 79,-57.25 81.5,-63.79"/>
</a>
</g>
</g>
<!-- Node10 -->
<g id="Node000010" class="node">
<title>Node10</title>
<g id="a_Node000010"><a xlink:href="prevention__banker_8c.html#a1e3f8cc04fcb24aec1fdb423a9e1ad2d" target="_top" xlink:title=" ">
<polygon fill="white" stroke="#666666" points="162,-19 74,-19 74,0 162,0 162,-19"/>
<text text-anchor="middle" x="118" y="-7" font-family="Helvetica,sans-Serif" font-size="10.00">on_request_impl</text>
</a>
</g>
</g>
<!-- Node9&#45;&gt;Node10 -->
<g id="edge11_Node000009_Node000010" class="edge">
<title>Node9&#45;&gt;Node10</title>
<g id="a_edge11_Node000009_Node000010"><a xlink:title=" ">
<path fill="none" stroke="#63b8ff" d="M186.27,-9.5C178.36,-9.5 170.19,-9.5 162.39,-9.5"/>
<polygon fill="#63b8ff" stroke="#63b8ff" points="186.1,-13 196.1,-9.5 186.1,-6 186.1,-13"/>
</a>
</g>
</g>
</g>
</svg>
