<?xml version="1.0" encoding="UTF-8" standalone="no"?>
<!DOCTYPE svg PUBLIC "-//W3C//DTD SVG 1.1//EN"
 "http://www.w3.org/Graphics/SVG/1.1/DTD/svg11.dtd">
<!-- Generated by graphviz version 7.1.0 (20230121.1956)
 -->
<!-- Title: src/policies/policy.h Pages: 1 -->
<!--zoomable 159 -->

<svg id="main" version="1.1" xmlns="http://www.w3.org/2000/svg" xmlns:xlink="http://www.w3.org/1999/xlink" xml:space="preserve" onload="init(evt)">

<style type="text/css"><![CDATA[
.node, .edge {opacity: 0.7;}
.node.selected, .edge.selected {opacity: 1;}
.edge:hover path { stroke: red; }
.edge:hover polygon { stroke: red; fill: red; }
]]></style>

<defs>
  <circle id="rim" cx="0" cy="0" r="7"/>
  <circle id="rim2" cx="0" cy="0" r="3.5"/>
  <g id="zoomPlus">
    <use xlink:href="#rim" fill="#404040"><set attributeName="fill" to="#808080" begin="zoomplus.mouseover" end="zoomplus.mouseout"/></use>
    <path d="M-4,0h8M0,-4v8" fill="none" stroke="white" stroke-width="1.5" pointer-events="none"/>
  </g>
  <g id="zoomMin">
    <use xlink:href="#rim" fill="#404040"><set attributeName="fill" to="#808080" begin="zoomminus.mouseover" end="zoomminus.mouseout"/></use>
    <path d="M-4,0h8" fill="none" stroke="white" stroke-width="1.5" pointer-events="none"/>
  </g>
  <g id="arrowUp" transform="translate(30 24)">
    <use xlink:href="#rim"/>
    <path pointer-events="none" fill="none" stroke="white" stroke-width="1.5" d="M0,-3.0v7 M-2.5,-0.5L0,-3.0L2.5,-0.5"/>
  </g>
  <g id="arrowRight" transform="rotate(90) translate(36 -43)">
    <use xlink:href="#rim"/>
    <path pointer-events="none" fill="none" stroke="white" stroke-width="1.5" d="M0,-3.0v7 M-2.5,-0.5L0,-3.0L2.5,-0.5"/>
  </g>
  <g id="arrowDown" transform="rotate(180) translate(-30 -48)">
    <use xlink:href="#rim"/>
    <path pointer-events="none" fill="none" stroke="white" stroke-width="1.5" d="M0,-3.0v7 M-2.5,-0.5L0,-3.0L2.5,-0.5"/>
  </g>
  <g id="arrowLeft" transform="rotate(270) translate(-36 17)">
    <use xlink:href="#rim"/>
    <path pointer-events="none" fill="none" stroke="white" stroke-width="1.5" d="M0,-3.0v7 M-2.5,-0.5L0,-3.0L2.5,-0.5"/>
  </g>
  <g id="resetDef">
    <use xlink:href="#rim2" fill="#404040"><set attributeName="fill" to="#808080" begin="reset.mouseover" end="reset.mouseout"/></use>
  </g>
</defs>
<script type="application/ecmascript">
var viewWidth = 1186;
var viewHeight = 159;
var sectionId = 'dynsection-1';
</script>
<script type="application/ecmascript" xlink:href="svg.min.js"/>
<svg id="graph" class="graph">
<g id="viewport">
<title>src/policies/policy.h</title>
<!-- Node1 -->
<g id="Node000001" class="node">
<title>Node1</title>
<g id="a_Node000001"><a xlink:title=" ">
<polygon fill="#999999" stroke="#666666" points="643.5,-151 540.5,-151 540.5,-132 643.5,-132 643.5,-151"/>
<text text-anchor="middle" x="592" y="-139" font-family="Helvetica,sans-Serif" font-size="10.00">src/policies/policy.h</text>
</a>
</g>
</g>
<!-- Node2 -->
<g id="Node000002" class="node">
<title>Node2</title>
<g id="a_Node000002"><a xlink:href="engine_8h.html" target="_top" xlink:title=" ">
<polygon fill="white" stroke="#666666" points="132,-90.5 40,-90.5 40,-71.5 132,-71.5 132,-90.5"/>
<text text-anchor="middle" x="86" y="-78.5" font-family="Helvetica,sans-Serif" font-size="10.00">src/core/engine.h</text>
</a>
</g>
</g>
<!-- Node1&#45;&gt;Node2 -->
<g id="edge1_Node000001_Node000002" class="edge">
<title>Node1&#45;&gt;Node2</title>
<g id="a_edge1_Node000001_Node000002"><a xlink:title=" ">
<path fill="none" stroke="#63b8ff" d="M528.92,-137.29C441.35,-132.14 278.2,-120.09 141,-96 133.43,-94.67 125.37,-92.85 117.81,-90.97"/>
<polygon fill="#63b8ff" stroke="#63b8ff" points="528.56,-140.77 538.74,-137.85 528.96,-133.78 528.56,-140.77"/>
</a>
</g>
</g>
<!-- Node5 -->
<g id="Node000005" class="node">
<title>Node5</title>
<g id="a_Node000005"><a xlink:href="avoidance__nohold_8h.html" target="_top" xlink:title=" ">
<polygon fill="white" stroke="#666666" points="262,-96 150,-96 150,-66 262,-66 262,-96"/>
<text text-anchor="start" x="158" y="-84" font-family="Helvetica,sans-Serif" font-size="10.00">src/policies/avoidance</text>
<text text-anchor="middle" x="206" y="-73" font-family="Helvetica,sans-Serif" font-size="10.00">_nohold.h</text>
</a>
</g>
</g>
<!-- Node1&#45;&gt;Node5 -->
<g id="edge4_Node000001_Node000005" class="edge">
<title>Node1&#45;&gt;Node5</title>
<g id="a_edge4_Node000001_Node000005"><a xlink:title=" ">
<path fill="none" stroke="#63b8ff" d="M528.85,-133.15C463.96,-125.28 360.11,-111.75 271,-96 268.16,-95.5 265.25,-94.96 262.32,-94.4"/>
<polygon fill="#63b8ff" stroke="#63b8ff" points="528.26,-136.61 538.61,-134.33 529.1,-129.66 528.26,-136.61"/>
</a>
</g>
</g>
<!-- Node7 -->
<g id="Node000007" class="node">
<title>Node7</title>
<g id="a_Node000007"><a xlink:href="avoidance__ordering_8h.html" target="_top" xlink:title=" ">
<polygon fill="white" stroke="#666666" points="392,-96 280,-96 280,-66 392,-66 392,-96"/>
<text text-anchor="start" x="288" y="-84" font-family="Helvetica,sans-Serif" font-size="10.00">src/policies/avoidance</text>
<text text-anchor="middle" x="336" y="-73" font-family="Helvetica,sans-Serif" font-size="10.00">_ordering.h</text>
</a>
</g>
</g>
<!-- Node1&#45;&gt;Node7 -->
<g id="edge7_Node000001_Node000007" class="edge">
<title>Node1&#45;&gt;Node7</title>
<g id="a_edge7_Node000001_Node000007"><a xlink:title=" ">
<path fill="none" stroke="#63b8ff" d="M541.79,-129.03C498.78,-119.2 436.91,-105.06 392.25,-94.85"/>
<polygon fill="#63b8ff" stroke="#63b8ff" points="540.84,-132.4 551.36,-131.21 542.4,-125.57 540.84,-132.4"/>
</a>
</g>
</g>
<!-- Node9 -->
<g id="Node000009" class="node">
<title>Node9</title>
<g id="a_Node000009"><a xlink:href="avoidance__preempt_8h.html" target="_top" xlink:title=" ">
<polygon fill="white" stroke="#666666" points="522,-96 410,-96 410,-66 522,-66 522,-96"/>
<text text-anchor="start" x="418" y="-84" font-family="Helvetica,sans-Serif" font-size="10.00">src/policies/avoidance</text>
<text text-anchor="middle" x="466" y="-73" font-family="Helvetica,sans-Serif" font-size="10.00">_preempt.h</text>
</a>
</g>
</g>
<!-- Node1&#45;&gt;Node9 -->
<g id="edge10_Node000001_Node000009" class="edge">
<title>Node1&#45;&gt;Node9</title>
<g id="a_edge10_Node000001_Node000009"><a xlink:title=" ">
<path fill="none" stroke="#63b8ff" d="M562.65,-126.87C542.98,-117.74 517.12,-105.74 497.1,-96.44"/>
<polygon fill="#63b8ff" stroke="#63b8ff" points="560.95,-129.94 571.49,-130.98 563.89,-123.59 560.95,-129.94"/>
</a>
</g>
</g>
<!-- Node11 -->
<g id="Node000011" class="node">
<title>Node11</title>
<g id="a_Node000011"><a xlink:href="detector__matrix_8h.html" target="_top" xlink:title=" ">
<polygon fill="white" stroke="#666666" points="644,-96 540,-96 540,-66 644,-66 644,-96"/>
<text text-anchor="start" x="548" y="-84" font-family="Helvetica,sans-Serif" font-size="10.00">src/policies/detector</text>
<text text-anchor="middle" x="592" y="-73" font-family="Helvetica,sans-Serif" font-size="10.00">_matrix.h</text>
</a>
</g>
</g>
<!-- Node1&#45;&gt;Node11 -->
<g id="edge13_Node000001_Node000011" class="edge">
<title>Node1&#45;&gt;Node11</title>
<g id="a_edge13_Node000001_Node000011"><a xlink:title=" ">
<path fill="none" stroke="#63b8ff" d="M592,-120.51C592,-112.49 592,-103.43 592,-96.11"/>
<polygon fill="#63b8ff" stroke="#63b8ff" points="588.5,-120.35 592,-130.35 595.5,-120.35 588.5,-120.35"/>
</a>
</g>
</g>
<!-- Node13 -->
<g id="Node000013" class="node">
<title>Node13</title>
<g id="a_Node000013"><a xlink:href="detector__wfg_8h.html" target="_top" xlink:title=" ">
<polygon fill="white" stroke="#666666" points="766,-96 662,-96 662,-66 766,-66 766,-96"/>
<text text-anchor="start" x="670" y="-84" font-family="Helvetica,sans-Serif" font-size="10.00">src/policies/detector</text>
<text text-anchor="middle" x="714" y="-73" font-family="Helvetica,sans-Serif" font-size="10.00">_wfg.h</text>
</a>
</g>
</g>
<!-- Node1&#45;&gt;Node13 -->
<g id="edge16_Node000001_Node000013" class="edge">
<title>Node1&#45;&gt;Node13</title>
<g id="a_edge16_Node000001_Node000013"><a xlink:title=" ">
<path fill="none" stroke="#63b8ff" d="M620.68,-126.75C639.69,-117.63 664.59,-105.69 683.89,-96.44"/>
<polygon fill="#63b8ff" stroke="#63b8ff" points="619.4,-123.48 611.89,-130.96 622.42,-129.79 619.4,-123.48"/>
</a>
</g>
</g>
<!-- Node15 -->
<g id="Node000015" class="node">
<title>Node15</title>
<g id="a_Node000015"><a xlink:href="prevention__banker_8h.html" target="_top" xlink:title=" ">
<polygon fill="white" stroke="#666666" points="897.5,-96 784.5,-96 784.5,-66 897.5,-66 897.5,-96"/>
<text text-anchor="start" x="792.5" y="-84" font-family="Helvetica,sans-Serif" font-size="10.00">src/policies/prevention</text>
<text text-anchor="middle" x="841" y="-73" font-family="Helvetica,sans-Serif" font-size="10.00">_banker.h</text>
</a>
</g>
</g>
<!-- Node1&#45;&gt;Node15 -->
<g id="edge19_Node000001_Node000015" class="edge">
<title>Node1&#45;&gt;Node15</title>
<g id="a_edge19_Node000001_Node000015"><a xlink:title=" ">
<path fill="none" stroke="#63b8ff" d="M641.22,-128.94C682.43,-119.25 741.28,-105.43 784.43,-95.29"/>
<polygon fill="#63b8ff" stroke="#63b8ff" points="640.5,-125.51 631.56,-131.21 642.1,-132.33 640.5,-125.51"/>
</a>
</g>
</g>
<!-- Node17 -->
<g id="Node000017" class="node">
<title>Node17</title>
<g id="a_Node000017"><a xlink:href="resolver__abort_8h.html" target="_top" xlink:title=" ">
<polygon fill="white" stroke="#666666" points="1018,-96 916,-96 916,-66 1018,-66 1018,-96"/>
<text text-anchor="start" x="924" y="-84" font-family="Helvetica,sans-Serif" font-size="10.00">src/policies/resolver</text>
<text text-anchor="middle" x="967" y="-73" font-family="Helvetica,sans-Serif" font-size="10.00">_abort.h</text>
</a>
</g>
</g>
<!-- Node1&#45;&gt;Node17 -->
<g id="edge22_Node000001_Node000017" class="edge">
<title>Node1&#45;&gt;Node17</title>
<g id="a_edge22_Node000001_Node000017"><a xlink:title=" ">
<path fill="none" stroke="#63b8ff" d="M654.86,-133.29C718.63,-125.58 820.06,-112.25 907,-96 909.84,-95.47 912.75,-94.89 915.68,-94.29"/>
<polygon fill="#63b8ff" stroke="#63b8ff" points="654.81,-129.77 645.29,-134.44 655.64,-136.72 654.81,-129.77"/>
</a>
</g>
</g>
<!-- Node19 -->
<g id="Node000019" class="node">
<title>Node19</title>
<g id="a_Node000019"><a xlink:href="resolver__rollback_8h.html" target="_top" xlink:title=" ">
<polygon fill="white" stroke="#666666" points="1138,-96 1036,-96 1036,-66 1138,-66 1138,-96"/>
<text text-anchor="start" x="1044" y="-84" font-family="Helvetica,sans-Serif" font-size="10.00">src/policies/resolver</text>
<text text-anchor="middle" x="1087" y="-73" font-family="Helvetica,sans-Serif" font-size="10.00">_rollback.h</text>
</a>
</g>
</g>
<!-- Node1&#45;&gt;Node19 -->
<g id="edge25_Node000001_Node000019" class="edge">
<title>Node1&#45;&gt;Node19</title>
<g id="a_edge25_Node000001_Node000019"><a xlink:title=" ">
<path fill="none" stroke="#63b8ff" d="M655.1,-136.57C740.03,-130.72 895.64,-117.95 1027,-96 1029.85,-95.52 1032.76,-94.99 1035.7,-94.42"/>
<polygon fill="#63b8ff" stroke="#63b8ff" points="655.1,-133.07 645.36,-137.24 655.57,-140.05 655.1,-133.07"/>
</a>
</g>
</g>
<!-- Node3 -->
<g id="Node000003" class="node">
<title>Node3</title>
<g id="a_Node000003"><a xlink:href="engine_8c.html" target="_top" xlink:title=" ">
<polygon fill="white" stroke="#666666" points="92,-24.5 0,-24.5 0,-5.5 92,-5.5 92,-24.5"/>
<text text-anchor="middle" x="46" y="-12.5" font-family="Helvetica,sans-Serif" font-size="10.00">src/core/engine.c</text>
</a>
</g>
</g>
<!-- Node2&#45;&gt;Node3 -->
<g id="edge2_Node000002_Node000003" class="edge">
<title>Node2&#45;&gt;Node3</title>
<g id="a_edge2_Node000002_Node000003"><a xlink:title=" ">
<path fill="none" stroke="#63b8ff" d="M74.46,-61.53C66.91,-49.46 57.41,-34.25 51.51,-24.82"/>
<polygon fill="#63b8ff" stroke="#63b8ff" points="71.37,-63.19 79.64,-69.82 77.3,-59.48 71.37,-63.19"/>
</a>
</g>
</g>
<!-- Node4 -->
<g id="Node000004" class="node">
<title>Node4</title>
<g id="a_Node000004"><a xlink:href="main_8c.html" target="_top" xlink:title=" ">
<polygon fill="white" stroke="#666666" points="562,-24.5 500,-24.5 500,-5.5 562,-5.5 562,-24.5"/>
<text text-anchor="middle" x="531" y="-12.5" font-family="Helvetica,sans-Serif" font-size="10.00">src/main.c</text>
</a>
</g>
</g>
<!-- Node2&#45;&gt;Node4 -->
<g id="edge3_Node000002_Node000004" class="edge">
<title>Node2&#45;&gt;Node4</title>
<g id="a_edge3_Node000002_Node000004"><a xlink:title=" ">
<path fill="none" stroke="#63b8ff" d="M128.67,-68.49C132.82,-67.56 136.98,-66.71 141,-66 294.96,-38.64 338.38,-64.06 491,-30 496.74,-28.72 502.81,-26.87 508.42,-24.93"/>
<polygon fill="#63b8ff" stroke="#63b8ff" points="128.22,-65 119.29,-70.71 129.83,-71.81 128.22,-65"/>
</a>
</g>
</g>
<!-- Node5&#45;&gt;Node4 -->
<g id="edge5_Node000005_Node000004" class="edge">
<title>Node5&#45;&gt;Node4</title>
<g id="a_edge5_Node000005_Node000004"><a xlink:title=" ">
<path fill="none" stroke="#63b8ff" d="M273.52,-65.61C370.36,-48.02 398.46,-53.57 491,-30 496.42,-28.62 502.15,-26.82 507.52,-24.98"/>
<polygon fill="#63b8ff" stroke="#63b8ff" points="273.02,-62.14 263.82,-67.41 274.29,-69.02 273.02,-62.14"/>
</a>
</g>
</g>
<!-- Node6 -->
<g id="Node000006" class="node">
<title>Node6</title>
<g id="a_Node000006"><a xlink:href="avoidance__nohold_8c.html" target="_top" xlink:title=" ">
<polygon fill="white" stroke="#666666" points="222,-30 110,-30 110,0 222,0 222,-30"/>
<text text-anchor="start" x="118" y="-18" font-family="Helvetica,sans-Serif" font-size="10.00">src/policies/avoidance</text>
<text text-anchor="middle" x="166" y="-7" font-family="Helvetica,sans-Serif" font-size="10.00">_nohold.c</text>
</a>
</g>
</g>
<!-- Node5&#45;&gt;Node6 -->
<g id="edge6_Node000005_Node000006" class="edge">
<title>Node5&#45;&gt;Node6</title>
<g id="a_edge6_Node000005_Node000006"><a xlink:title=" ">
<path fill="none" stroke="#63b8ff" d="M191.07,-56.11C185.61,-47.38 179.61,-37.78 174.85,-30.16"/>
<polygon fill="#63b8ff" stroke="#63b8ff" points="188.05,-57.89 196.32,-64.51 193.99,-54.18 188.05,-57.89"/>
</a>
</g>
</g>
<!-- Node7&#45;&gt;Node4 -->
<g id="edge8_Node000007_Node000004" class="edge">
<title>Node7&#45;&gt;Node4</title>
<g id="a_edge8_Node000007_Node000004"><a xlink:title=" ">
<path fill="none" stroke="#63b8ff" d="M392.77,-62.06C422.15,-52.68 458.56,-40.91 491,-30 495.74,-28.41 500.79,-26.67 505.64,-24.98"/>
<polygon fill="#63b8ff" stroke="#63b8ff" points="391.78,-58.7 383.32,-65.07 393.91,-65.37 391.78,-58.7"/>
</a>
</g>
</g>
<!-- Node8 -->
<g id="Node000008" class="node">
<title>Node8</title>
<g id="a_Node000008"><a xlink:href="avoidance__ordering_8c.html" target="_top" xlink:title=" ">
<polygon fill="white" stroke="#666666" points="352,-30 240,-30 240,0 352,0 352,-30"/>
<text text-anchor="start" x="248" y="-18" font-family="Helvetica,sans-Serif" font-size="10.00">src/policies/avoidance</text>
<text text-anchor="middle" x="296" y="-7" font-family="Helvetica,sans-Serif" font-size="10.00">_ordering.c</text>
</a>
</g>
</g>
<!-- Node7&#45;&gt;Node8 -->
<g id="edge9_Node000007_Node000008" class="edge">
<title>Node7&#45;&gt;Node8</title>
<g id="a_edge9_Node000007_Node000008"><a xlink:title=" ">
<path fill="none" stroke="#63b8ff" d="M321.07,-56.11C315.61,-47.38 309.61,-37.78 304.85,-30.16"/>
<polygon fill="#63b8ff" stroke="#63b8ff" points="318.05,-57.89 326.32,-64.51 323.99,-54.18 318.05,-57.89"/>
</a>
</g>
</g>
<!-- Node9&#45;&gt;Node4 -->
<g id="edge11_Node000009_Node000004" class="edge">
<title>Node9&#45;&gt;Node4</title>
<g id="a_edge11_Node000009_Node000004"><a xlink:title=" ">
<path fill="none" stroke="#63b8ff" d="M488.4,-57.94C499.94,-46.58 513.37,-33.36 522.02,-24.84"/>
<polygon fill="#63b8ff" stroke="#63b8ff" points="486.17,-55.22 481.5,-64.73 491.09,-60.21 486.17,-55.22"/>
</a>
</g>
</g>
<!-- Node10 -->
<g id="Node000010" class="node">
<title>Node10</title>
<g id="a_Node000010"><a xlink:href="avoidance__preempt_8c.html" target="_top" xlink:title=" ">
<polygon fill="white" stroke="#666666" points="482,-30 370,-30 370,0 482,0 482,-30"/>
<text text-anchor="start" x="378" y="-18" font-family="Helvetica,sans-Serif" font-size="10.00">src/policies/avoidance</text>
<text text-anchor="middle" x="426" y="-7" font-family="Helvetica,sans-Serif" font-size="10.00">_preempt.c</text>
</a>
</g>
</g>
<!-- Node9&#45;&gt;Node10 -->
<g id="edge12_Node000009_Node000010" class="edge">
<title>Node9&#45;&gt;Node10</title>
<g id="a_edge12_Node000009_Node000010"><a xlink:title=" ">
<path fill="none" stroke="#63b8ff" d="M451.07,-56.11C445.61,-47.38 439.61,-37.78 434.85,-30.16"/>
<polygon fill="#63b8ff" stroke="#63b8ff" points="448.05,-57.89 456.32,-64.51 453.99,-54.18 448.05,-57.89"/>
</a>
</g>
</g>
<!-- Node11&#45;&gt;Node4 -->
<g id="edge14_Node000011_Node000004" class="edge">
<title>Node11&#45;&gt;Node4</title>
<g id="a_edge14_Node000011_Node000004"><a xlink:title=" ">
<path fill="none" stroke="#63b8ff" d="M570.66,-57.61C559.9,-46.32 547.47,-33.28 539.43,-24.84"/>
<polygon fill="#63b8ff" stroke="#63b8ff" points="567.98,-59.88 577.42,-64.7 573.05,-55.05 567.98,-59.88"/>
</a>
</g>
</g>
<!-- Node12 -->
<g id="Node000012" class="node">
<title>Node12</title>
<g id="a_Node000012"><a xlink:href="detector__matrix_8c.html" target="_top" xlink:title=" ">
<polygon fill="white" stroke="#666666" points="684,-30 580,-30 580,0 684,0 684,-30"/>
<text text-anchor="start" x="588" y="-18" font-family="Helvetica,sans-Serif" font-size="10.00">src/policies/detector</text>
<text text-anchor="middle" x="632" y="-7" font-family="Helvetica,sans-Serif" font-size="10.00">_matrix.c</text>
</a>
</g>
</g>
<!-- Node11&#45;&gt;Node12 -->
<g id="edge15_Node000011_Node000012" class="edge">
<title>Node11&#45;&gt;Node12</title>
<g id="a_edge15_Node000011_Node000012"><a xlink:title=" ">
<path fill="none" stroke="#63b8ff" d="M606.93,-56.11C612.39,-47.38 618.39,-37.78 623.15,-30.16"/>
<polygon fill="#63b8ff" stroke="#63b8ff" points="604.01,-54.18 601.68,-64.51 609.95,-57.89 604.01,-54.18"/>
</a>
</g>
</g>
<!-- Node13&#45;&gt;Node4 -->
<g id="edge17_Node000013_Node000004" class="edge">
<title>Node13&#45;&gt;Node4</title>
<g id="a_edge17_Node000013_Node000004"><a xlink:title=" ">
<path fill="none" stroke="#63b8ff" d="M662.1,-61.85C627.65,-49.8 583.92,-34.51 556.69,-24.99"/>
<polygon fill="#63b8ff" stroke="#63b8ff" points="660.91,-65.14 671.5,-65.14 663.22,-58.53 660.91,-65.14"/>
</a>
</g>
</g>
<!-- Node14 -->
<g id="Node000014" class="node">
<title>Node14</title>
<g id="a_Node000014"><a xlink:href="detector__wfg_8c.html" target="_top" xlink:title=" ">
<polygon fill="white" stroke="#666666" points="806,-30 702,-30 702,0 806,0 806,-30"/>
<text text-anchor="start" x="710" y="-18" font-family="Helvetica,sans-Serif" font-size="10.00">src/policies/detector</text>
<text text-anchor="middle" x="754" y="-7" font-family="Helvetica,sans-Serif" font-size="10.00">_wfg.c</text>
</a>
</g>
</g>
<!-- Node13&#45;&gt;Node14 -->
<g id="edge18_Node000013_Node000014" class="edge">
<title>Node13&#45;&gt;Node14</title>
<g id="a_edge18_Node000013_Node000014"><a xlink:title=" ">
<path fill="none" stroke="#63b8ff" d="M728.93,-56.11C734.39,-47.38 740.39,-37.78 745.15,-30.16"/>
<polygon fill="#63b8ff" stroke="#63b8ff" points="726.01,-54.18 723.68,-64.51 731.95,-57.89 726.01,-54.18"/>
</a>
</g>
</g>
<!-- Node15&#45;&gt;Node4 -->
<g id="edge20_Node000015_Node000004" class="edge">
<title>Node15&#45;&gt;Node4</title>
<g id="a_edge20_Node000015_Node000004"><a xlink:title=" ">
<path fill="none" stroke="#63b8ff" d="M773.09,-65.7C682.66,-48.77 656.68,-52.4 571,-30 565.59,-28.59 559.87,-26.78 554.49,-24.93"/>
<polygon fill="#63b8ff" stroke="#63b8ff" points="772.18,-69.09 782.66,-67.53 773.49,-62.21 772.18,-69.09"/>
</a>
</g>
</g>
<!-- Node16 -->
<g id="Node000016" class="node">
<title>Node16</title>
<g id="a_Node000016"><a xlink:href="prevention__banker_8c.html" target="_top" xlink:title=" ">
<polygon fill="white" stroke="#666666" points="937.5,-30 824.5,-30 824.5,0 937.5,0 937.5,-30"/>
<text text-anchor="start" x="832.5" y="-18" font-family="Helvetica,sans-Serif" font-size="10.00">src/policies/prevention</text>
<text text-anchor="middle" x="881" y="-7" font-family="Helvetica,sans-Serif" font-size="10.00">_banker.c</text>
</a>
</g>
</g>
<!-- Node15&#45;&gt;Node16 -->
<g id="edge21_Node000015_Node000016" class="edge">
<title>Node15&#45;&gt;Node16</title>
<g id="a_edge21_Node000015_Node000016"><a xlink:title=" ">
<path fill="none" stroke="#63b8ff" d="M855.93,-56.11C861.39,-47.38 867.39,-37.78 872.15,-30.16"/>
<polygon fill="#63b8ff" stroke="#63b8ff" points="853.01,-54.18 850.68,-64.51 858.95,-57.89 853.01,-54.18"/>
</a>
</g>
</g>
<!-- Node17&#45;&gt;Node4 -->
<g id="edge23_Node000017_Node000004" class="edge">
<title>Node17&#45;&gt;Node4</title>
<g id="a_edge23_Node000017_Node000004"><a xlink:title=" ">
<path fill="none" stroke="#63b8ff" d="M904.42,-65.72C756.84,-41.94 713.94,-62.22 571,-30 565.26,-28.71 559.2,-26.85 553.58,-24.92"/>
<polygon fill="#63b8ff" stroke="#63b8ff" points="903.77,-69.16 914.2,-67.35 904.91,-62.26 903.77,-69.16"/>
</a>
</g>
</g>
<!-- Node18 -->
<g id="Node000018" class="node">
<title>Node18</title>
<g id="a_Node000018"><a xlink:href="resolver__abort_8c.html" target="_top" xlink:title=" ">
<polygon fill="white" stroke="#666666" points="1058,-30 956,-30 956,0 1058,0 1058,-30"/>
<text text-anchor="start" x="964" y="-18" font-family="Helvetica,sans-Serif" font-size="10.00">src/policies/resolver</text>
<text text-anchor="middle" x="1007" y="-7" font-family="Helvetica,sans-Serif" font-size="10.00">_abort.c</text>
</a>
</g>
</g>
<!-- Node17&#45;&gt;Node18 -->
<g id="edge24_Node000017_Node000018" class="edge">
<title>Node17&#45;&gt;Node18</title>
<g id="a_edge24_Node000017_Node000018"><a xlink:title=" ">
<path fill="none" stroke="#63b8ff" d="M981.93,-56.11C987.39,-47.38 993.39,-37.78 998.15,-30.16"/>
<polygon fill="#63b8ff" stroke="#63b8ff" points="979.01,-54.18 976.68,-64.51 984.95,-57.89 979.01,-54.18"/>
</a>
</g>
</g>
<!-- Node19&#45;&gt;Node4 -->
<g id="edge26_Node000019_Node000004" class="edge">
<title>Node19&#45;&gt;Node4</title>
<g id="a_edge26_Node000019_Node000004"><a xlink:title=" ">
<path fill="none" stroke="#63b8ff" d="M1024.5,-65.79C824.03,-36.13 766.33,-71.17 571,-30 565.1,-28.76 558.87,-26.87 553.14,-24.89"/>
<polygon fill="#63b8ff" stroke="#63b8ff" points="1023.8,-69.23 1034.22,-67.27 1024.86,-62.31 1023.8,-69.23"/>
</a>
</g>
</g>
<!-- Node20 -->
<g id="Node000020" class="node">
<title>Node20</title>
<g id="a_Node000020"><a xlink:href="resolver__rollback_8c.html" target="_top" xlink:title=" ">
<polygon fill="white" stroke="#666666" points="1178,-30 1076,-30 1076,0 1178,0 1178,-30"/>
<text text-anchor="start" x="1084" y="-18" font-family="Helvetica,sans-Serif" font-size="10.00">src/policies/resolver</text>
<text text-anchor="middle" x="1127" y="-7" font-family="Helvetica,sans-Serif" font-size="10.00">_rollback.c</text>
</a>
</g>
</g>
<!-- Node19&#45;&gt;Node20 -->
<g id="edge27_Node000019_Node000020" class="edge">
<title>Node19&#45;&gt;Node20</title>
<g id="a_edge27_Node000019_Node000020"><a xlink:title=" ">
<path fill="none" stroke="#63b8ff" d="M1101.93,-56.11C1107.39,-47.38 1113.39,-37.78 1118.15,-30.16"/>
<polygon fill="#63b8ff" stroke="#63b8ff" points="1099.01,-54.18 1096.68,-64.51 1104.95,-57.89 1099.01,-54.18"/>
</a>
</g>
</g>
</g>
</svg>

<g id="navigator" transform="translate(0 0)" fill="#404254">
  <rect fill="#f2f5e9" fill-opacity="0.5" stroke="#606060" stroke-width=".5" x="0" y="0" width="60" height="60"/>
  <use id="zoomplus" xlink:href="#zoomPlus" x="17" y="9" onmousedown="handleZoom(evt,'in')"/>
  <use id="zoomminus" xlink:href="#zoomMin" x="42" y="9" onmousedown="handleZoom(evt,'out')"/>
  <use id="reset" xlink:href="#resetDef" x="30" y="36" onmousedown="handleReset()"/>
   <use id="arrowup" xlink:href="#arrowUp" x="0" y="0" onmousedown="handlePan(0,-1)"/>
  <use id="arrowright" xlink:href="#arrowRight" x="0" y="0" onmousedown="handlePan(1,0)"/>
  <use id="arrowdown" xlink:href="#arrowDown" x="0" y="0" onmousedown="handlePan(0,1)"/>
  <use id="arrowleft" xlink:href="#arrowLeft" x="0" y="0" onmousedown="handlePan(-1,0)"/>
</g>
<svg viewBox="0 0 15 15" width="100%" height="30px" preserveAspectRatio="xMaxYMin meet">
 <g id="arrow_out" transform="scale(0.3 0.3)">
  <a xlink:href="policy_8h__dep__incl_org.svg" target="_base">
   <rect id="button" ry="5" rx="5" y="6" x="6" height="38" width="38"
        fill="#f2f5e9" fill-opacity="0.5" stroke="#606060" stroke-width="1.0"/>
   <path id="arrow"
     d="M 11.500037,31.436501 C 11.940474,20.09759 22.043105,11.32322 32.158766,21.979434 L 37.068811,17.246167 C 37.068811,17.246167 37.088388,32 37.088388,32 L 22.160133,31.978069 C 22.160133,31.978069 26.997745,27.140456 26.997745,27.140456 C 18.528582,18.264221 13.291696,25.230495 11.500037,31.436501 z"
     style="fill:#404040;"/>
  </a>
 </g>
</svg>

<style type='text/css'>
<![CDATA[
[data-mouse-over-selected='false'] { opacity: 0.7; }
[data-mouse-over-selected='true']  { opacity: 1.0; }
]]>
</style>
<script type="application/ecmascript"><![CDATA[
document.addEventListener('DOMContentLoaded', (event) => {
  highlightEdges();
  highlightAdjacentNodes();
});
]]></script>
</svg>
