<?xml version="1.0" encoding="UTF-8" standalone="no"?>
<!DOCTYPE svg PUBLIC "-//W3C//DTD SVG 1.1//EN"
 "http://www.w3.org/Graphics/SVG/1.1/DTD/svg11.dtd">
<!-- Generated by graphviz version 7.1.0 (20230121.1956)
 -->
<!-- Title: src/policies/prevention_banker.h Pages: 1 -->
<svg width="202pt" height="104pt"
 viewBox="0.00 0.00 201.50 104.00" xmlns="http://www.w3.org/2000/svg" xmlns:xlink="http://www.w3.org/1999/xlink">
<g id="graph0" class="graph" transform="scale(1 1) rotate(0) translate(4 100)">
<title>src/policies/prevention_banker.h</title>
<!-- Node1 -->
<g id="Node000001" class="node">
<title>Node1</title>
<g id="a_Node000001"><a xlink:title=" ">
<polygon fill="#999999" stroke="#666666" points="140.5,-96 27.5,-96 27.5,-66 140.5,-66 140.5,-96"/>
<text text-anchor="start" x="35.5" y="-84" font-family="Helvetica,sans-Serif" font-size="10.00">src/policies/prevention</text>
<text text-anchor="middle" x="84" y="-73" font-family="Helvetica,sans-Serif" font-size="10.00">_banker.h</text>
</a>
</g>
</g>
<!-- Node2 -->
<g id="Node000002" class="node">
<title>Node2</title>
<g id="a_Node000002"><a xlink:href="main_8c.html" target="_top" xlink:title=" ">
<polygon fill="white" stroke="#666666" points="62,-24.5 0,-24.5 0,-5.5 62,-5.5 62,-24.5"/>
<text text-anchor="middle" x="31" y="-12.5" font-family="Helvetica,sans-Serif" font-size="10.00">src/main.c</text>
</a>
</g>
</g>
<!-- Node1&#45;&gt;Node2 -->
<g id="edge1_Node000001_Node000002" class="edge">
<title>Node1&#45;&gt;Node2</title>
<g id="a_edge1_Node000001_Node000002"><a xlink:title=" ">
<path fill="none" stroke="#63b8ff" d="M64.91,-56.95C55.69,-45.81 45.17,-33.11 38.32,-24.84"/>
<polygon fill="#63b8ff" stroke="#63b8ff" points="62.2,-59.16 71.27,-64.63 67.59,-54.7 62.2,-59.16"/>
</a>
</g>
</g>
<!-- Node3 -->
<g id="Node000003" class="node">
<title>Node3</title>
<g id="a_Node000003"><a xlink:href="prevention__banker_8c.html" target="_top" xlink:title=" ">
<polygon fill="white" stroke="#666666" points="193.5,-30 80.5,-30 80.5,0 193.5,0 193.5,-30"/>
<text text-anchor="start" x="88.5" y="-18" font-family="Helvetica,sans-Serif" font-size="10.00">src/policies/prevention</text>
<text text-anchor="middle" x="137" y="-7" font-family="Helvetica,sans-Serif" font-size="10.00">_banker.c</text>
</a>
</g>
</g>
<!-- Node1&#45;&gt;Node3 -->
<g id="edge2_Node000001_Node000003" class="edge">
<title>Node1&#45;&gt;Node3</title>
<g id="a_edge2_Node000001_Node000003"><a xlink:title=" ">
<path fill="none" stroke="#63b8ff" d="M103.08,-56.96C110.5,-48 118.76,-38.03 125.27,-30.16"/>
<polygon fill="#63b8ff" stroke="#63b8ff" points="100.41,-54.7 96.73,-64.63 105.8,-59.16 100.41,-54.7"/>
</a>
</g>
</g>
</g>
</svg>
