<?xml version="1.0" encoding="UTF-8" standalone="no"?>
<!DOCTYPE svg PUBLIC "-//W3C//DTD SVG 1.1//EN"
 "http://www.w3.org/Graphics/SVG/1.1/DTD/svg11.dtd">
<!-- Generated by graphviz version 7.1.0 (20230121.1956)
 -->
<!-- Title: held_total Pages: 1 -->
<svg width="372pt" height="64pt"
 viewBox="0.00 0.00 372.00 64.00" xmlns="http://www.w3.org/2000/svg" xmlns:xlink="http://www.w3.org/1999/xlink">
<g id="graph0" class="graph" transform="scale(1 1) rotate(0) translate(4 60)">
<title>held_total</title>
<!-- Node1 -->
<g id="Node000001" class="node">
<title>Node1</title>
<g id="a_Node000001"><a xlink:title=" ">
<polygon fill="#999999" stroke="#666666" points="364,-37 305,-37 305,-18 364,-18 364,-37"/>
<text text-anchor="middle" x="334.5" y="-25" font-family="Helvetica,sans-Serif" font-size="10.00">held_total</text>
</a>
</g>
</g>
<!-- Node2 -->
<g id="Node000002" class="node">
<title>Node2</title>
<g id="a_Node000002"><a xlink:href="resolver__abort_8c.html#a8d591af0b31d90b2a9298ae8250393a1" target="_top" xlink:title=" ">
<polygon fill="white" stroke="#666666" points="269,-37 199,-37 199,-18 269,-18 269,-37"/>
<text text-anchor="middle" x="234" y="-25" font-family="Helvetica,sans-Serif" font-size="10.00">resolve_impl</text>
</a>
</g>
</g>
<!-- Node1&#45;&gt;Node2 -->
<g id="edge1_Node000001_Node000002" class="edge">
<title>Node1&#45;&gt;Node2</title>
<g id="a_edge1_Node000001_Node000002"><a xlink:title=" ">
<path fill="none" stroke="#63b8ff" d="M293.34,-27.5C285.33,-27.5 276.98,-27.5 269.19,-27.5"/>
<polygon fill="#63b8ff" stroke="#63b8ff" points="293.23,-31 303.23,-27.5 293.23,-24 293.23,-31"/>
</a>
</g>
</g>
<!-- Node3 -->
<g id="Node000003" class="node">
<title>Node3</title>
<g id="a_Node000003"><a xlink:href="resolver__abort_8c.html#a6905da1484c0d2ff4f64e0a50fbec21e" target="_top" xlink:title=" ">
<polygon fill="white" stroke="#666666" points="157,-56 80,-56 80,-37 157,-37 157,-56"/>
<text text-anchor="middle" x="118.5" y="-44" font-family="Helvetica,sans-Serif" font-size="10.00">resolver_abort</text>
</a>
</g>
</g>
<!-- Node2&#45;&gt;Node3 -->
<g id="edge2_Node000002_Node000003" class="edge">
<title>Node2&#45;&gt;Node3</title>
<g id="a_edge2_Node000002_Node000003"><a xlink:title=" ">
<path fill="none" stroke="#63b8ff" d="M187.58,-35.1C177.54,-36.78 167.01,-38.55 157.31,-40.17"/>
<polygon fill="#63b8ff" stroke="#63b8ff" points="187.86,-38.61 197.15,-33.5 186.7,-31.7 187.86,-38.61"/>
</a>
</g>
</g>
<!-- Node5 -->
<g id="Node000005" class="node">
<title>Node5</title>
<g id="a_Node000005"><a xlink:href="resolver__rollback_8c.html#a67a43d286465df8acf04494205b57db5" target="_top" xlink:title=" ">
<polygon fill="white" stroke="#666666" points="163,-19 74,-19 74,0 163,0 163,-19"/>
<text text-anchor="middle" x="118.5" y="-7" font-family="Helvetica,sans-Serif" font-size="10.00">resolver_rollback</text>
</a>
</g>
</g>
<!-- Node2&#45;&gt;Node5 -->
<g id="edge4_Node000002_Node000005" class="edge">
<title>Node2&#45;&gt;Node5</title>
<g id="a_edge4_Node000002_Node000005"><a xlink:title=" ">
<path fill="none" stroke="#63b8ff" d="M187.36,-20.26C179.46,-19.01 171.26,-17.71 163.41,-16.46"/>
<polygon fill="#63b8ff" stroke="#63b8ff" points="186.72,-23.7 197.14,-21.81 187.82,-16.79 186.72,-23.7"/>
</a>
</g>
</g>
<!-- Node4 -->
<g id="Node000004" class="node">
<title>Node4</title>
<g id="a_Node000004"><a xlink:href="main_8c.html#a3c04138a5bfe5d72780bb7e82a18e627" target="_top" xlink:title=" ">
<polygon fill="white" stroke="#666666" points="38,-37 0,-37 0,-18 38,-18 38,-37"/>
<text text-anchor="middle" x="19" y="-25" font-family="Helvetica,sans-Serif" font-size="10.00">main</text>
</a>
</g>
</g>
<!-- Node3&#45;&gt;Node4 -->
<g id="edge3_Node000003_Node000004" class="edge">
<title>Node3&#45;&gt;Node4</title>
<g id="a_edge3_Node000003_Node000004"><a xlink:title=" ">
<path fill="none" stroke="#63b8ff" d="M68.44,-36.94C57.73,-34.85 47.04,-32.77 38.43,-31.09"/>
<polygon fill="#63b8ff" stroke="#63b8ff" points="67.55,-40.33 78.04,-38.81 68.89,-33.46 67.55,-40.33"/>
</a>
</g>
</g>
<!-- Node5&#45;&gt;Node4 -->
<g id="edge5_Node000005_Node000004" class="edge">
<title>Node5&#45;&gt;Node4</title>
<g id="a_edge5_Node000005_Node000004"><a xlink:title=" ">
<path fill="none" stroke="#63b8ff" d="M62.41,-19.67C53.62,-21.29 45.12,-22.86 38.06,-24.17"/>
<polygon fill="#63b8ff" stroke="#63b8ff" points="62.91,-23.14 72.11,-17.88 61.64,-16.25 62.91,-23.14"/>
</a>
</g>
</g>
</g>
</svg>
