<?xml version="1.0" encoding="UTF-8" standalone="no"?>
<!DOCTYPE svg PUBLIC "-//W3C//DTD SVG 1.1//EN"
 "http://www.w3.org/Graphics/SVG/1.1/DTD/svg11.dtd">
<!-- Generated by graphviz version 7.1.0 (20230121.1956)
 -->
<!-- Title: SystemState Pages: 1 -->
<svg width="140pt" height="324pt"
 viewBox="0.00 0.00 139.50 324.00" xmlns="http://www.w3.org/2000/svg" xmlns:xlink="http://www.w3.org/1999/xlink">

<svg id="main" version="1.1" xmlns="http://www.w3.org/2000/svg" xmlns:xlink="http://www.w3.org/1999/xlink" xml:space="preserve">

<style type="text/css"><![CDATA[
.node, .edge {opacity: 0.7;}
.node.selected, .edge.selected {opacity: 1;}
.edge:hover path { stroke: red; }
.edge:hover polygon { stroke: red; fill: red; }
]]></style>
<script type="application/ecmascript" xlink:href="svg.min.js"/>
<svg id="graph" class="graph">
<g id="graph0" class="graph" transform="scale(1 1) rotate(0) translate(4 320)">
<title>SystemState</title>
<!-- Node1 -->
<g id="Node000001" class="node">
<title>Node1</title>
<g id="a_Node000001"><a xlink:title=" ">
<polygon fill="#999999" stroke="none" points="99.5,-169 31.5,-169 31.5,0 99.5,0 99.5,-169"/>
<text text-anchor="start" x="36.5" y="-156.5" font-family="Helvetica,sans-Serif" font-size="10.00">SystemState</text>
<text text-anchor="start" x="36.5" y="-141.5" font-family="Helvetica,sans-Serif" font-size="10.00">+</text>
<text text-anchor="start" x="48.5" y="-141.5" font-family="Helvetica,sans-Serif" font-size="10.00">time</text>
<text text-anchor="start" x="36.5" y="-126.5" font-family="Helvetica,sans-Serif" font-size="10.00">+</text>
<text text-anchor="start" x="48.5" y="-126.5" font-family="Helvetica,sans-Serif" font-size="10.00">nprocs</text>
<text text-anchor="start" x="36.5" y="-111.5" font-family="Helvetica,sans-Serif" font-size="10.00">+</text>
<text text-anchor="start" x="48.5" y="-111.5" font-family="Helvetica,sans-Serif" font-size="10.00">nres</text>
<text text-anchor="start" x="36.5" y="-96.5" font-family="Helvetica,sans-Serif" font-size="10.00">+</text>
<text text-anchor="start" x="48.5" y="-96.5" font-family="Helvetica,sans-Serif" font-size="10.00">alloc</text>
<text text-anchor="start" x="36.5" y="-81.5" font-family="Helvetica,sans-Serif" font-size="10.00">+</text>
<text text-anchor="start" x="48.5" y="-81.5" font-family="Helvetica,sans-Serif" font-size="10.00">req</text>
<text text-anchor="start" x="36.5" y="-66.5" font-family="Helvetica,sans-Serif" font-size="10.00">+</text>
<text text-anchor="start" x="48.5" y="-66.5" font-family="Helvetica,sans-Serif" font-size="10.00">maxc</text>
<text text-anchor="start" x="36.5" y="-51.5" font-family="Helvetica,sans-Serif" font-size="10.00">+</text>
<text text-anchor="start" x="48.5" y="-51.5" font-family="Helvetica,sans-Serif" font-size="10.00">avail</text>
<text text-anchor="start" x="36.5" y="-36.5" font-family="Helvetica,sans-Serif" font-size="10.00">+</text>
<text text-anchor="start" x="48.5" y="-36.5" font-family="Helvetica,sans-Serif" font-size="10.00">pid_to_idx</text>
<text text-anchor="start" x="36.5" y="-21.5" font-family="Helvetica,sans-Serif" font-size="10.00">+</text>
<text text-anchor="start" x="48.5" y="-21.5" font-family="Helvetica,sans-Serif" font-size="10.00">rid_to_idx</text>
<text text-anchor="start" x="63.5" y="-6.5" font-family="Helvetica,sans-Serif" font-size="10.00"> </text>
<polygon fill="#666666" stroke="#666666" points="31.5,-151.5 31.5,-151.5 99.5,-151.5 99.5,-151.5 31.5,-151.5"/>
<polygon fill="#666666" stroke="#666666" points="31.5,-16.5 31.5,-16.5 46.5,-16.5 46.5,-16.5 31.5,-16.5"/>
<polygon fill="#666666" stroke="#666666" points="46.5,-16.5 46.5,-16.5 99.5,-16.5 99.5,-16.5 46.5,-16.5"/>
<polygon fill="none" stroke="#666666" points="31.5,0 31.5,-169 99.5,-169 99.5,0 31.5,0"/>
</a>
</g>
</g>
<!-- Node2 -->
<g id="Node000002" class="node">
<title>Node2</title>
<g id="a_Node000002"><a xlink:href="struct_process.html" target="_top" xlink:title=" ">
<polygon fill="white" stroke="none" points="57,-316 0,-316 0,-222 57,-222 57,-316"/>
<text text-anchor="start" x="10.5" y="-304" font-family="Helvetica,sans-Serif" font-size="10.00">Process</text>
<text text-anchor="start" x="4.5" y="-289" font-family="Helvetica,sans-Serif" font-size="10.00">+</text>
<text text-anchor="start" x="15.5" y="-289" font-family="Helvetica,sans-Serif" font-size="10.00">pid</text>
<text text-anchor="start" x="4.5" y="-274" font-family="Helvetica,sans-Serif" font-size="10.00">+</text>
<text text-anchor="start" x="15.5" y="-274" font-family="Helvetica,sans-Serif" font-size="10.00">state</text>
<text text-anchor="start" x="4.5" y="-259" font-family="Helvetica,sans-Serif" font-size="10.00">+</text>
<text text-anchor="start" x="15.5" y="-259" font-family="Helvetica,sans-Serif" font-size="10.00">priority</text>
<text text-anchor="start" x="4.5" y="-244" font-family="Helvetica,sans-Serif" font-size="10.00">+</text>
<text text-anchor="start" x="15.5" y="-244" font-family="Helvetica,sans-Serif" font-size="10.00">progress</text>
<text text-anchor="start" x="27" y="-229" font-family="Helvetica,sans-Serif" font-size="10.00"> </text>
<polygon fill="#666666" stroke="#666666" points="0.5,-299 0.5,-299 57.5,-299 57.5,-299 0.5,-299"/>
<polygon fill="#666666" stroke="#666666" points="0.5,-239 0.5,-239 13.5,-239 13.5,-239 0.5,-239"/>
<polygon fill="#666666" stroke="#666666" points="13.5,-239 13.5,-239 57.5,-239 57.5,-239 13.5,-239"/>
<polygon fill="none" stroke="#666666" points="0,-222 0,-316 57,-316 57,-222 0,-222"/>
</a>
</g>
</g>
<!-- Node2&#45;&gt;Node1 -->
<g id="edge1_Node000001_Node000002" class="edge">
<title>Node2&#45;&gt;Node1</title>
<g id="a_edge1_Node000001_Node000002"><a xlink:title=" ">
<path fill="none" stroke="#63b8ff" d="M37.48,-222.15C39.75,-210.67 42.2,-198.38 44.5,-187 44.87,-185.15 45.25,-183.29 45.63,-181.41"/>
<polygon fill="none" stroke="#63b8ff" points="45.62,-181.49 42.89,-174.81 48.01,-169.73 50.73,-176.41 45.62,-181.49"/>
</a>
</g>
<text text-anchor="start" x="48" y="-192.5" font-family="Helvetica,sans-Serif" font-size="10.00" fill="grey">+procs</text>
</g>
<!-- Node3 -->
<g id="Node000003" class="node">
<title>Node3</title>
<g id="a_Node000003"><a xlink:href="struct_resource.html" target="_top" xlink:title=" ">
<polygon fill="white" stroke="none" points="131.5,-301 75.5,-301 75.5,-237 131.5,-237 131.5,-301"/>
<text text-anchor="start" x="82.5" y="-289" font-family="Helvetica,sans-Serif" font-size="10.00">Resource</text>
<text text-anchor="start" x="79.5" y="-274" font-family="Helvetica,sans-Serif" font-size="10.00">+</text>
<text text-anchor="start" x="90.5" y="-274" font-family="Helvetica,sans-Serif" font-size="10.00">rid</text>
<text text-anchor="start" x="79.5" y="-259" font-family="Helvetica,sans-Serif" font-size="10.00">+</text>
<text text-anchor="start" x="90.5" y="-259" font-family="Helvetica,sans-Serif" font-size="10.00">capacity</text>
<text text-anchor="start" x="101.5" y="-244" font-family="Helvetica,sans-Serif" font-size="10.00"> </text>
<polygon fill="#666666" stroke="#666666" points="75.5,-284 75.5,-284 131.5,-284 131.5,-284 75.5,-284"/>
<polygon fill="#666666" stroke="#666666" points="75.5,-254 75.5,-254 88.5,-254 88.5,-254 75.5,-254"/>
<polygon fill="#666666" stroke="#666666" points="88.5,-254 88.5,-254 131.5,-254 131.5,-254 88.5,-254"/>
<polygon fill="none" stroke="#666666" points="75.5,-237 75.5,-301 131.5,-301 131.5,-237 75.5,-237"/>
</a>
</g>
</g>
<!-- Node3&#45;&gt;Node1 -->
<g id="edge2_Node000001_Node000003" class="edge">
<title>Node3&#45;&gt;Node1</title>
<g id="a_edge2_Node000001_Node000003"><a xlink:title=" ">
<path fill="none" stroke="#63b8ff" d="M97.05,-237.04C93.81,-221.46 89.68,-201.64 85.49,-181.5"/>
<polygon fill="none" stroke="#63b8ff" points="85.51,-181.59 80.37,-176.53 83.06,-169.84 88.2,-174.9 85.51,-181.59"/>
</a>
</g>
<text text-anchor="start" x="92.5" y="-192.5" font-family="Helvetica,sans-Serif" font-size="10.00" fill="grey">+res</text>
</g>
</g>
</svg>
</svg>

<style type='text/css'>
<![CDATA[
[data-mouse-over-selected='false'] { opacity: 0.7; }
[data-mouse-over-selected='true']  { opacity: 1.0; }
]]>
</style>
<script type="application/ecmascript"><![CDATA[
document.addEventListener('DOMContentLoaded', (event) => {
  highlightEdges();
  highlightAdjacentNodes();
});
]]></script>
</svg>
