<?xml version="1.0" encoding="UTF-8" standalone="no"?>
<!DOCTYPE svg PUBLIC "-//W3C//DTD SVG 1.1//EN"
 "http://www.w3.org/Graphics/SVG/1.1/DTD/svg11.dtd">
<!-- Generated by graphviz version 7.1.0 (20230121.1956)
 -->
<!-- Title: Engine Pages: 1 -->
<!--zoomable 456 -->

<svg id="main" version="1.1" xmlns="http://www.w3.org/2000/svg" xmlns:xlink="http://www.w3.org/1999/xlink" xml:space="preserve" onload="init(evt)">

<style type="text/css"><![CDATA[
.node, .edge {opacity: 0.7;}
.node.selected, .edge.selected {opacity: 1;}
.edge:hover path { stroke: red; }
.edge:hover polygon { stroke: red; fill: red; }
]]></style>

<defs>
  <circle id="rim" cx="0" cy="0" r="7"/>
  <circle id="rim2" cx="0" cy="0" r="3.5"/>
  <g id="zoomPlus">
    <use xlink:href="#rim" fill="#404040"><set attributeName="fill" to="#808080" begin="zoomplus.mouseover" end="zoomplus.mouseout"/></use>
    <path d="M-4,0h8M0,-4v8" fill="none" stroke="white" stroke-width="1.5" pointer-events="none"/>
  </g>
  <g id="zoomMin">
    <use xlink:href="#rim" fill="#404040"><set attributeName="fill" to="#808080" begin="zoomminus.mouseover" end="zoomminus.mouseout"/></use>
    <path d="M-4,0h8" fill="none" stroke="white" stroke-width="1.5" pointer-events="none"/>
  </g>
  <g id="arrowUp" transform="translate(30 24)">
    <use xlink:href="#rim"/>
    <path pointer-events="none" fill="none" stroke="white" stroke-width="1.5" d="M0,-3.0v7 M-2.5,-0.5L0,-3.0L2.5,-0.5"/>
  </g>
  <g id="arrowRight" transform="rotate(90) translate(36 -43)">
    <use xlink:href="#rim"/>
    <path pointer-events="none" fill="none" stroke="white" stroke-width="1.5" d="M0,-3.0v7 M-2.5,-0.5L0,-3.0L2.5,-0.5"/>
  </g>
  <g id="arrowDown" transform="rotate(180) translate(-30 -48)">
    <use xlink:href="#rim"/>
    <path pointer-events="none" fill="none" stroke="white" stroke-width="1.5" d="M0,-3.0v7 M-2.5,-0.5L0,-3.0L2.5,-0.5"/>
  </g>
  <g id="arrowLeft" transform="rotate(270) translate(-36 17)">
    <use xlink:href="#rim"/>
    <path pointer-events="none" fill="none" stroke="white" stroke-width="1.5" d="M0,-3.0v7 M-2.5,-0.5L0,-3.0L2.5,-0.5"/>
  </g>
  <g id="resetDef">
    <use xlink:href="#rim2" fill="#404040"><set attributeName="fill" to="#808080" begin="reset.mouseover" end="reset.mouseout"/></use>
  </g>
</defs>
<script type="application/ecmascript">
var viewWidth = 529;
var viewHeight = 456;
var sectionId = 'dynsection-0';
</script>
<script type="application/ecmascript" xlink:href="svg.min.js"/>
<svg id="graph" class="graph">
<g id="viewport">
<title>Engine</title>
<!-- Node1 -->
<g id="Node000001" class="node">
<title>Node1</title>
<g id="a_Node000001"><a xlink:title=" ">
<polygon fill="#999999" stroke="none" points="340,-79 259,-79 259,0 340,0 340,-79"/>
<text text-anchor="start" x="284.5" y="-66.5" font-family="Helvetica,sans-Serif" font-size="10.00">Engine</text>
<text text-anchor="start" x="263.5" y="-51.5" font-family="Helvetica,sans-Serif" font-size="10.00">+</text>
<text text-anchor="start" x="274.5" y="-51.5" font-family="Helvetica,sans-Serif" font-size="10.00">qlen</text>
<text text-anchor="start" x="263.5" y="-36.5" font-family="Helvetica,sans-Serif" font-size="10.00">+</text>
<text text-anchor="start" x="274.5" y="-36.5" font-family="Helvetica,sans-Serif" font-size="10.00">qcap</text>
<text text-anchor="start" x="263.5" y="-21.5" font-family="Helvetica,sans-Serif" font-size="10.00">+</text>
<text text-anchor="start" x="274.5" y="-21.5" font-family="Helvetica,sans-Serif" font-size="10.00">check_interval</text>
<text text-anchor="start" x="298" y="-6.5" font-family="Helvetica,sans-Serif" font-size="10.00"> </text>
<polygon fill="#666666" stroke="#666666" points="259.5,-61.5 259.5,-61.5 340.5,-61.5 340.5,-61.5 259.5,-61.5"/>
<polygon fill="#666666" stroke="#666666" points="259.5,-16.5 259.5,-16.5 272.5,-16.5 272.5,-16.5 259.5,-16.5"/>
<polygon fill="#666666" stroke="#666666" points="272.5,-16.5 272.5,-16.5 340.5,-16.5 340.5,-16.5 272.5,-16.5"/>
<polygon fill="none" stroke="#666666" points="259,0 259,-79 340,-79 340,0 259,0"/>
</a>
</g>
</g>
<!-- Node2 -->
<g id="Node000002" class="node">
<title>Node2</title>
<g id="a_Node000002"><a xlink:href="struct_system_state.html" target="_top" xlink:title=" ">
<polygon fill="white" stroke="none" points="99.5,-301 31.5,-301 31.5,-132 99.5,-132 99.5,-301"/>
<text text-anchor="start" x="36.5" y="-288.5" font-family="Helvetica,sans-Serif" font-size="10.00">SystemState</text>
<text text-anchor="start" x="36.5" y="-273.5" font-family="Helvetica,sans-Serif" font-size="10.00">+</text>
<text text-anchor="start" x="48.5" y="-273.5" font-family="Helvetica,sans-Serif" font-size="10.00">time</text>
<text text-anchor="start" x="36.5" y="-258.5" font-family="Helvetica,sans-Serif" font-size="10.00">+</text>
<text text-anchor="start" x="48.5" y="-258.5" font-family="Helvetica,sans-Serif" font-size="10.00">nprocs</text>
<text text-anchor="start" x="36.5" y="-243.5" font-family="Helvetica,sans-Serif" font-size="10.00">+</text>
<text text-anchor="start" x="48.5" y="-243.5" font-family="Helvetica,sans-Serif" font-size="10.00">nres</text>
<text text-anchor="start" x="36.5" y="-228.5" font-family="Helvetica,sans-Serif" font-size="10.00">+</text>
<text text-anchor="start" x="48.5" y="-228.5" font-family="Helvetica,sans-Serif" font-size="10.00">alloc</text>
<text text-anchor="start" x="36.5" y="-213.5" font-family="Helvetica,sans-Serif" font-size="10.00">+</text>
<text text-anchor="start" x="48.5" y="-213.5" font-family="Helvetica,sans-Serif" font-size="10.00">req</text>
<text text-anchor="start" x="36.5" y="-198.5" font-family="Helvetica,sans-Serif" font-size="10.00">+</text>
<text text-anchor="start" x="48.5" y="-198.5" font-family="Helvetica,sans-Serif" font-size="10.00">maxc</text>
<text text-anchor="start" x="36.5" y="-183.5" font-family="Helvetica,sans-Serif" font-size="10.00">+</text>
<text text-anchor="start" x="48.5" y="-183.5" font-family="Helvetica,sans-Serif" font-size="10.00">avail</text>
<text text-anchor="start" x="36.5" y="-168.5" font-family="Helvetica,sans-Serif" font-size="10.00">+</text>
<text text-anchor="start" x="48.5" y="-168.5" font-family="Helvetica,sans-Serif" font-size="10.00">pid_to_idx</text>
<text text-anchor="start" x="36.5" y="-153.5" font-family="Helvetica,sans-Serif" font-size="10.00">+</text>
<text text-anchor="start" x="48.5" y="-153.5" font-family="Helvetica,sans-Serif" font-size="10.00">rid_to_idx</text>
<text text-anchor="start" x="63.5" y="-138.5" font-family="Helvetica,sans-Serif" font-size="10.00"> </text>
<polygon fill="#666666" stroke="#666666" points="31.5,-283.5 31.5,-283.5 99.5,-283.5 99.5,-283.5 31.5,-283.5"/>
<polygon fill="#666666" stroke="#666666" points="31.5,-148.5 31.5,-148.5 46.5,-148.5 46.5,-148.5 31.5,-148.5"/>
<polygon fill="#666666" stroke="#666666" points="46.5,-148.5 46.5,-148.5 99.5,-148.5 99.5,-148.5 46.5,-148.5"/>
<polygon fill="none" stroke="#666666" points="31.5,-132 31.5,-301 99.5,-301 99.5,-132 31.5,-132"/>
</a>
</g>
</g>
<!-- Node2&#45;&gt;Node1 -->
<g id="edge1_Node000001_Node000002" class="edge">
<title>Node2&#45;&gt;Node1</title>
<g id="a_edge1_Node000001_Node000002"><a xlink:title=" ">
<path fill="none" stroke="#63b8ff" d="M99.28,-142.35C102.15,-138.67 105.23,-135.18 108.5,-132 147.45,-94.15 205.05,-69.52 246.8,-55.45"/>
<polygon fill="none" stroke="#63b8ff" points="246.94,-55.4 251.41,-49.74 258.35,-51.7 253.88,-57.35 246.94,-55.4"/>
</a>
</g>
<text text-anchor="start" x="157.5" y="-102.5" font-family="Helvetica,sans-Serif" font-size="10.00" fill="grey">+s</text>
</g>
<!-- Node3 -->
<g id="Node000003" class="node">
<title>Node3</title>
<g id="a_Node000003"><a xlink:href="struct_process.html" target="_top" xlink:title=" ">
<polygon fill="white" stroke="none" points="57,-448 0,-448 0,-354 57,-354 57,-448"/>
<text text-anchor="start" x="10.5" y="-436" font-family="Helvetica,sans-Serif" font-size="10.00">Process</text>
<text text-anchor="start" x="4.5" y="-421" font-family="Helvetica,sans-Serif" font-size="10.00">+</text>
<text text-anchor="start" x="15.5" y="-421" font-family="Helvetica,sans-Serif" font-size="10.00">pid</text>
<text text-anchor="start" x="4.5" y="-406" font-family="Helvetica,sans-Serif" font-size="10.00">+</text>
<text text-anchor="start" x="15.5" y="-406" font-family="Helvetica,sans-Serif" font-size="10.00">state</text>
<text text-anchor="start" x="4.5" y="-391" font-family="Helvetica,sans-Serif" font-size="10.00">+</text>
<text text-anchor="start" x="15.5" y="-391" font-family="Helvetica,sans-Serif" font-size="10.00">priority</text>
<text text-anchor="start" x="4.5" y="-376" font-family="Helvetica,sans-Serif" font-size="10.00">+</text>
<text text-anchor="start" x="15.5" y="-376" font-family="Helvetica,sans-Serif" font-size="10.00">progress</text>
<text text-anchor="start" x="27" y="-361" font-family="Helvetica,sans-Serif" font-size="10.00"> </text>
<polygon fill="#666666" stroke="#666666" points="0.5,-431 0.5,-431 57.5,-431 57.5,-431 0.5,-431"/>
<polygon fill="#666666" stroke="#666666" points="0.5,-371 0.5,-371 13.5,-371 13.5,-371 0.5,-371"/>
<polygon fill="#666666" stroke="#666666" points="13.5,-371 13.5,-371 57.5,-371 57.5,-371 13.5,-371"/>
<polygon fill="none" stroke="#666666" points="0,-354 0,-448 57,-448 57,-354 0,-354"/>
</a>
</g>
</g>
<!-- Node3&#45;&gt;Node2 -->
<g id="edge2_Node000002_Node000003" class="edge">
<title>Node3&#45;&gt;Node2</title>
<g id="a_edge2_Node000002_Node000003"><a xlink:title=" ">
<path fill="none" stroke="#63b8ff" d="M37.48,-354.15C39.75,-342.67 42.2,-330.38 44.5,-319 44.87,-317.15 45.25,-315.29 45.63,-313.41"/>
<polygon fill="none" stroke="#63b8ff" points="45.62,-313.49 42.89,-306.81 48.01,-301.73 50.73,-308.41 45.62,-313.49"/>
</a>
</g>
<text text-anchor="start" x="48" y="-324.5" font-family="Helvetica,sans-Serif" font-size="10.00" fill="grey">+procs</text>
</g>
<!-- Node4 -->
<g id="Node000004" class="node">
<title>Node4</title>
<g id="a_Node000004"><a xlink:href="struct_resource.html" target="_top" xlink:title=" ">
<polygon fill="white" stroke="none" points="131.5,-433 75.5,-433 75.5,-369 131.5,-369 131.5,-433"/>
<text text-anchor="start" x="82.5" y="-421" font-family="Helvetica,sans-Serif" font-size="10.00">Resource</text>
<text text-anchor="start" x="79.5" y="-406" font-family="Helvetica,sans-Serif" font-size="10.00">+</text>
<text text-anchor="start" x="90.5" y="-406" font-family="Helvetica,sans-Serif" font-size="10.00">rid</text>
<text text-anchor="start" x="79.5" y="-391" font-family="Helvetica,sans-Serif" font-size="10.00">+</text>
<text text-anchor="start" x="90.5" y="-391" font-family="Helvetica,sans-Serif" font-size="10.00">capacity</text>
<text text-anchor="start" x="101.5" y="-376" font-family="Helvetica,sans-Serif" font-size="10.00"> </text>
<polygon fill="#666666" stroke="#666666" points="75.5,-416 75.5,-416 131.5,-416 131.5,-416 75.5,-416"/>
<polygon fill="#666666" stroke="#666666" points="75.5,-386 75.5,-386 88.5,-386 88.5,-386 75.5,-386"/>
<polygon fill="#666666" stroke="#666666" points="88.5,-386 88.5,-386 131.5,-386 131.5,-386 88.5,-386"/>
<polygon fill="none" stroke="#666666" points="75.5,-369 75.5,-433 131.5,-433 131.5,-369 75.5,-369"/>
</a>
</g>
</g>
<!-- Node4&#45;&gt;Node2 -->
<g id="edge3_Node000002_Node000004" class="edge">
<title>Node4&#45;&gt;Node2</title>
<g id="a_edge3_Node000002_Node000004"><a xlink:title=" ">
<path fill="none" stroke="#63b8ff" d="M97.05,-369.04C93.81,-353.46 89.68,-333.64 85.49,-313.5"/>
<polygon fill="none" stroke="#63b8ff" points="85.51,-313.59 80.37,-308.53 83.06,-301.84 88.2,-306.9 85.51,-313.59"/>
</a>
</g>
<text text-anchor="start" x="93.5" y="-324.5" font-family="Helvetica,sans-Serif" font-size="10.00" fill="grey">+res</text>
</g>
<!-- Node5 -->
<g id="Node000005" class="node">
<title>Node5</title>
<g id="a_Node000005"><a xlink:href="struct_metrics.html" target="_top" xlink:title=" ">
<polygon fill="white" stroke="none" points="225,-278.5 118,-278.5 118,-154.5 225,-154.5 225,-278.5"/>
<text text-anchor="start" x="155.5" y="-266.5" font-family="Helvetica,sans-Serif" font-size="10.00">Metrics</text>
<text text-anchor="start" x="122.5" y="-251.5" font-family="Helvetica,sans-Serif" font-size="10.00">+</text>
<text text-anchor="start" x="133.5" y="-251.5" font-family="Helvetica,sans-Serif" font-size="10.00">deadlocks_detected</text>
<text text-anchor="start" x="122.5" y="-236.5" font-family="Helvetica,sans-Serif" font-size="10.00">+</text>
<text text-anchor="start" x="133.5" y="-236.5" font-family="Helvetica,sans-Serif" font-size="10.00">aborts</text>
<text text-anchor="start" x="122.5" y="-221.5" font-family="Helvetica,sans-Serif" font-size="10.00">+</text>
<text text-anchor="start" x="133.5" y="-221.5" font-family="Helvetica,sans-Serif" font-size="10.00">rollbacks</text>
<text text-anchor="start" x="122.5" y="-206.5" font-family="Helvetica,sans-Serif" font-size="10.00">+</text>
<text text-anchor="start" x="133.5" y="-206.5" font-family="Helvetica,sans-Serif" font-size="10.00">grants</text>
<text text-anchor="start" x="122.5" y="-191.5" font-family="Helvetica,sans-Serif" font-size="10.00">+</text>
<text text-anchor="start" x="133.5" y="-191.5" font-family="Helvetica,sans-Serif" font-size="10.00">denies</text>
<text text-anchor="start" x="122.5" y="-176.5" font-family="Helvetica,sans-Serif" font-size="10.00">+</text>
<text text-anchor="start" x="133.5" y="-176.5" font-family="Helvetica,sans-Serif" font-size="10.00">defers</text>
<text text-anchor="start" x="170" y="-161.5" font-family="Helvetica,sans-Serif" font-size="10.00"> </text>
<polygon fill="#666666" stroke="#666666" points="118.5,-261.5 118.5,-261.5 225.5,-261.5 225.5,-261.5 118.5,-261.5"/>
<polygon fill="#666666" stroke="#666666" points="118.5,-171.5 118.5,-171.5 131.5,-171.5 131.5,-171.5 118.5,-171.5"/>
<polygon fill="#666666" stroke="#666666" points="131.5,-171.5 131.5,-171.5 225.5,-171.5 225.5,-171.5 131.5,-171.5"/>
<polygon fill="none" stroke="#666666" points="118,-154.5 118,-278.5 225,-278.5 225,-154.5 118,-154.5"/>
</a>
</g>
</g>
<!-- Node5&#45;&gt;Node1 -->
<g id="edge4_Node000001_Node000005" class="edge">
<title>Node5&#45;&gt;Node1</title>
<g id="a_edge4_Node000001_Node000005"><a xlink:title=" ">
<path fill="none" stroke="#63b8ff" d="M214.63,-154.67C227.95,-136.08 242.73,-115.63 256.5,-97 258.39,-94.44 260.34,-91.82 262.31,-89.19"/>
<polygon fill="none" stroke="#63b8ff" points="262.22,-89.3 262.63,-82.1 269.44,-79.71 269.03,-86.91 262.22,-89.3"/>
</a>
</g>
<text text-anchor="start" x="260" y="-102.5" font-family="Helvetica,sans-Serif" font-size="10.00" fill="grey">+m</text>
</g>
<!-- Node6 -->
<g id="Node000006" class="node">
<title>Node6</title>
<g id="a_Node000006"><a xlink:href="struct_detector.html" target="_top" xlink:title=" ">
<polygon fill="white" stroke="none" points="290,-241 243,-241 243,-192 290,-192 290,-241"/>
<text text-anchor="start" x="248.5" y="-228.5" font-family="Helvetica,sans-Serif" font-size="10.00">Detector</text>
<text text-anchor="start" x="247.5" y="-213.5" font-family="Helvetica,sans-Serif" font-size="10.00">+</text>
<text text-anchor="start" x="258.5" y="-213.5" font-family="Helvetica,sans-Serif" font-size="10.00">detect</text>
<text text-anchor="start" x="265" y="-198.5" font-family="Helvetica,sans-Serif" font-size="10.00"> </text>
<polygon fill="#666666" stroke="#666666" points="243.5,-223.5 243.5,-223.5 290.5,-223.5 290.5,-223.5 243.5,-223.5"/>
<polygon fill="#666666" stroke="#666666" points="243.5,-208.5 243.5,-208.5 256.5,-208.5 256.5,-208.5 243.5,-208.5"/>
<polygon fill="#666666" stroke="#666666" points="256.5,-208.5 256.5,-208.5 290.5,-208.5 290.5,-208.5 256.5,-208.5"/>
<polygon fill="none" stroke="#666666" points="243,-192 243,-241 290,-241 290,-192 243,-192"/>
</a>
</g>
</g>
<!-- Node6&#45;&gt;Node1 -->
<g id="edge5_Node000001_Node000006" class="edge">
<title>Node6&#45;&gt;Node1</title>
<g id="a_edge5_Node000001_Node000006"><a xlink:title=" ">
<path fill="none" stroke="#63b8ff" d="M269.64,-192.24C273.02,-168.27 278.8,-129.87 285.5,-97 285.88,-95.14 286.28,-93.26 286.69,-91.35"/>
<polygon fill="none" stroke="#63b8ff" points="286.71,-91.27 284.14,-84.53 289.37,-79.57 291.94,-86.31 286.71,-91.27"/>
</a>
</g>
<text text-anchor="start" x="288.5" y="-102.5" font-family="Helvetica,sans-Serif" font-size="10.00" fill="grey">+det</text>
</g>
<!-- Node7 -->
<g id="Node000007" class="node">
<title>Node7</title>
<g id="a_Node000007"><a xlink:href="struct_resolver.html" target="_top" xlink:title=" ">
<polygon fill="white" stroke="none" points="358.5,-241 308.5,-241 308.5,-192 358.5,-192 358.5,-241"/>
<text text-anchor="start" x="315" y="-228.5" font-family="Helvetica,sans-Serif" font-size="10.00">Resolver</text>
<text text-anchor="start" x="312.5" y="-213.5" font-family="Helvetica,sans-Serif" font-size="10.00">+</text>
<text text-anchor="start" x="323.5" y="-213.5" font-family="Helvetica,sans-Serif" font-size="10.00">resolve</text>
<text text-anchor="start" x="331.5" y="-198.5" font-family="Helvetica,sans-Serif" font-size="10.00"> </text>
<polygon fill="#666666" stroke="#666666" points="308.5,-223.5 308.5,-223.5 358.5,-223.5 358.5,-223.5 308.5,-223.5"/>
<polygon fill="#666666" stroke="#666666" points="308.5,-208.5 308.5,-208.5 321.5,-208.5 321.5,-208.5 308.5,-208.5"/>
<polygon fill="#666666" stroke="#666666" points="321.5,-208.5 321.5,-208.5 358.5,-208.5 358.5,-208.5 321.5,-208.5"/>
<polygon fill="none" stroke="#666666" points="308.5,-192 308.5,-241 358.5,-241 358.5,-192 308.5,-192"/>
</a>
</g>
</g>
<!-- Node7&#45;&gt;Node1 -->
<g id="edge6_Node000001_Node000007" class="edge">
<title>Node7&#45;&gt;Node1</title>
<g id="a_edge6_Node000001_Node000007"><a xlink:title=" ">
<path fill="none" stroke="#63b8ff" d="M329.38,-192.31C325.08,-168.39 318.07,-130.04 311.5,-97 311.13,-95.16 310.76,-93.28 310.37,-91.38"/>
<polygon fill="none" stroke="#63b8ff" points="310.37,-91.4 305.24,-86.33 307.95,-79.65 313.08,-84.72 310.37,-91.4"/>
</a>
</g>
<text text-anchor="start" x="317.5" y="-102.5" font-family="Helvetica,sans-Serif" font-size="10.00" fill="grey">+res</text>
</g>
<!-- Node8 -->
<g id="Node000008" class="node">
<title>Node8</title>
<g id="a_Node000008"><a xlink:href="struct_request_policy.html" target="_top" xlink:title=" ">
<polygon fill="white" stroke="none" points="450.5,-241 376.5,-241 376.5,-192 450.5,-192 450.5,-241"/>
<text text-anchor="start" x="381.5" y="-228.5" font-family="Helvetica,sans-Serif" font-size="10.00">RequestPolicy</text>
<text text-anchor="start" x="382" y="-213.5" font-family="Helvetica,sans-Serif" font-size="10.00">+</text>
<text text-anchor="start" x="394.5" y="-213.5" font-family="Helvetica,sans-Serif" font-size="10.00">on_request</text>
<text text-anchor="start" x="411.5" y="-198.5" font-family="Helvetica,sans-Serif" font-size="10.00"> </text>
<polygon fill="#666666" stroke="#666666" points="376.5,-223.5 376.5,-223.5 450.5,-223.5 450.5,-223.5 376.5,-223.5"/>
<polygon fill="#666666" stroke="#666666" points="376.5,-208.5 376.5,-208.5 392.5,-208.5 392.5,-208.5 376.5,-208.5"/>
<polygon fill="#666666" stroke="#666666" points="392.5,-208.5 392.5,-208.5 450.5,-208.5 450.5,-208.5 392.5,-208.5"/>
<polygon fill="none" stroke="#666666" points="376.5,-192 376.5,-241 450.5,-241 450.5,-192 376.5,-192"/>
</a>
</g>
</g>
<!-- Node8&#45;&gt;Node1 -->
<g id="edge7_Node000001_Node000008" class="edge">
<title>Node8&#45;&gt;Node1</title>
<g id="a_edge7_Node000001_Node000008"><a xlink:title=" ">
<path fill="none" stroke="#63b8ff" d="M401.81,-192.39C389.01,-167.87 367.27,-128.42 344.5,-97 342.6,-94.38 340.63,-91.71 338.61,-89.03"/>
<polygon fill="none" stroke="#63b8ff" points="338.57,-88.98 331.74,-86.65 331.27,-79.45 338.09,-81.78 338.57,-88.98"/>
</a>
</g>
<text text-anchor="start" x="358" y="-102.5" font-family="Helvetica,sans-Serif" font-size="10.00" fill="grey">+pol</text>
</g>
<!-- Node9 -->
<g id="Node000009" class="node">
<title>Node9</title>
<g id="a_Node000009"><a xlink:href="struct_event.html" target="_top" xlink:title=" ">
<polygon fill="white" stroke="none" points="520.5,-286 468.5,-286 468.5,-147 520.5,-147 520.5,-286"/>
<text text-anchor="start" x="482" y="-273.5" font-family="Helvetica,sans-Serif" font-size="10.00">Event</text>
<text text-anchor="start" x="472.5" y="-258.5" font-family="Helvetica,sans-Serif" font-size="10.00">+</text>
<text text-anchor="start" x="483.5" y="-258.5" font-family="Helvetica,sans-Serif" font-size="10.00">time</text>
<text text-anchor="start" x="472.5" y="-243.5" font-family="Helvetica,sans-Serif" font-size="10.00">+</text>
<text text-anchor="start" x="483.5" y="-243.5" font-family="Helvetica,sans-Serif" font-size="10.00">type</text>
<text text-anchor="start" x="472.5" y="-228.5" font-family="Helvetica,sans-Serif" font-size="10.00">+</text>
<text text-anchor="start" x="483.5" y="-228.5" font-family="Helvetica,sans-Serif" font-size="10.00">pid</text>
<text text-anchor="start" x="472.5" y="-213.5" font-family="Helvetica,sans-Serif" font-size="10.00">+</text>
<text text-anchor="start" x="483.5" y="-213.5" font-family="Helvetica,sans-Serif" font-size="10.00">rid</text>
<text text-anchor="start" x="472.5" y="-198.5" font-family="Helvetica,sans-Serif" font-size="10.00">+</text>
<text text-anchor="start" x="483.5" y="-198.5" font-family="Helvetica,sans-Serif" font-size="10.00">amount</text>
<text text-anchor="start" x="472.5" y="-183.5" font-family="Helvetica,sans-Serif" font-size="10.00">+</text>
<text text-anchor="start" x="483.5" y="-183.5" font-family="Helvetica,sans-Serif" font-size="10.00">hold</text>
<text text-anchor="start" x="472.5" y="-168.5" font-family="Helvetica,sans-Serif" font-size="10.00">+</text>
<text text-anchor="start" x="483.5" y="-168.5" font-family="Helvetica,sans-Serif" font-size="10.00">seq</text>
<text text-anchor="start" x="492.5" y="-153.5" font-family="Helvetica,sans-Serif" font-size="10.00"> </text>
<polygon fill="#666666" stroke="#666666" points="468.5,-268.5 468.5,-268.5 520.5,-268.5 520.5,-268.5 468.5,-268.5"/>
<polygon fill="#666666" stroke="#666666" points="468.5,-163.5 468.5,-163.5 481.5,-163.5 481.5,-163.5 468.5,-163.5"/>
<polygon fill="#666666" stroke="#666666" points="481.5,-163.5 481.5,-163.5 520.5,-163.5 520.5,-163.5 481.5,-163.5"/>
<polygon fill="none" stroke="#666666" points="468.5,-147 468.5,-286 520.5,-286 520.5,-147 468.5,-147"/>
</a>
</g>
</g>
<!-- Node9&#45;&gt;Node1 -->
<g id="edge8_Node000001_Node000009" class="edge">
<title>Node9&#45;&gt;Node1</title>
<g id="a_edge8_Node000001_Node000009"><a xlink:title=" ">
<path fill="none" stroke="#63b8ff" d="M470.44,-147.12C467.2,-141.72 463.56,-136.59 459.5,-132 430.3,-98.98 386.19,-75 351.68,-59.9"/>
<polygon fill="none" stroke="#63b8ff" points="351.8,-59.94 344.71,-61.29 340.74,-55.27 347.83,-53.92 351.8,-59.94"/>
</a>
</g>
<text text-anchor="start" x="440.5" y="-102.5" font-family="Helvetica,sans-Serif" font-size="10.00" fill="grey">+q</text>
</g>
</g>
</svg>

<g id="navigator" transform="translate(0 0)" fill="#404254">
  <rect fill="#f2f5e9" fill-opacity="0.5" stroke="#606060" stroke-width=".5" x="0" y="0" width="60" height="60"/>
  <use id="zoomplus" xlink:href="#zoomPlus" x="17" y="9" onmousedown="handleZoom(evt,'in')"/>
  <use id="zoomminus" xlink:href="#zoomMin" x="42" y="9" onmousedown="handleZoom(evt,'out')"/>
  <use id="reset" xlink:href="#resetDef" x="30" y="36" onmousedown="handleReset()"/>
   <use id="arrowup" xlink:href="#arrowUp" x="0" y="0" onmousedown="handlePan(0,-1)"/>
  <use id="arrowright" xlink:href="#arrowRight" x="0" y="0" onmousedown="handlePan(1,0)"/>
  <use id="arrowdown" xlink:href="#arrowDown" x="0" y="0" onmousedown="handlePan(0,1)"/>
  <use id="arrowleft" xlink:href="#arrowLeft" x="0" y="0" onmousedown="handlePan(-1,0)"/>
</g>
<svg viewBox="0 0 15 15" width="100%" height="30px" preserveAspectRatio="xMaxYMin meet">
 <g id="arrow_out" transform="scale(0.3 0.3)">
  <a xlink:href="struct_engine__coll__graph_org.svg" target="_base">
   <rect id="button" ry="5" rx="5" y="6" x="6" height="38" width="38"
        fill="#f2f5e9" fill-opacity="0.5" stroke="#606060" stroke-width="1.0"/>
   <path id="arrow"
     d="M 11.500037,31.436501 C 11.940474,20.09759 22.043105,11.32322 32.158766,21.979434 L 37.068811,17.246167 C 37.068811,17.246167 37.088388,32 37.088388,32 L 22.160133,31.978069 C 22.160133,31.978069 26.997745,27.140456 26.997745,27.140456 C 18.528582,18.264221 13.291696,25.230495 11.500037,31.436501 z"
     style="fill:#404040;"/>
  </a>
 </g>
</svg>

<style type='text/css'>
<![CDATA[
[data-mouse-over-selected='false'] { opacity: 0.7; }
[data-mouse-over-selected='true']  { opacity: 1.0; }
]]>
</style>
<script type="application/ecmascript"><![CDATA[
document.addEventListener('DOMContentLoaded', (event) => {
  highlightEdges();
  highlightAdjacentNodes();
});
]]></script>
</svg>
