<?xml version="1.0" encoding="UTF-8" standalone="no"?>
<!DOCTYPE svg PUBLIC "-//W3C//DTD SVG 1.1//EN"
 "http://www.w3.org/Graphics/SVG/1.1/DTD/svg11.dtd">
<!-- Generated by graphviz version 7.1.0 (20230121.1956)
 -->
<!-- Title: src/core/workload.h Pages: 1 -->
<svg width="1186pt" height="214pt"
 viewBox="0.00 0.00 1185.50 214.00" xmlns="http://www.w3.org/2000/svg" xmlns:xlink="http://www.w3.org/1999/xlink">
<g id="graph0" class="graph" transform="scale(1 1) rotate(0) translate(4 210)">
<title>src/core/workload.h</title>
<!-- Node1 -->
<g id="Node000001" class="node">
<title>Node1</title>
<g id="a_Node000001"><a xlink:title=" ">
<polygon fill="#999999" stroke="#666666" points="494.5,-206 393.5,-206 393.5,-187 494.5,-187 494.5,-206"/>
<text text-anchor="middle" x="444" y="-194" font-family="Helvetica,sans-Serif" font-size="10.00">src/core/workload.h</text>
</a>
</g>
</g>
<!-- Node2 -->
<g id="Node000002" class="node">
<title>Node2</title>
<g id="a_Node000002"><a xlink:href="engine_8h.html" target="_top" xlink:title=" ">
<polygon fill="white" stroke="#666666" points="134,-90.5 42,-90.5 42,-71.5 134,-71.5 134,-90.5"/>
<text text-anchor="middle" x="88" y="-78.5" font-family="Helvetica,sans-Serif" font-size="10.00">src/core/engine.h</text>
</a>
</g>
</g>
<!-- Node1&#45;&gt;Node2 -->
<g id="edge1_Node000001_Node000002" class="edge">
<title>Node1&#45;&gt;Node2</title>
<g id="a_edge1_Node000001_Node000002"><a xlink:title=" ">
<path fill="none" stroke="#63b8ff" d="M405.17,-183.12C332.79,-160.04 178.85,-110.96 115.8,-90.86"/>
<polygon fill="#63b8ff" stroke="#63b8ff" points="404.03,-186.43 414.62,-186.13 406.16,-179.76 404.03,-186.43"/>
</a>
</g>
</g>
<!-- Node4 -->
<g id="Node000004" class="node">
<title>Node4</title>
<g id="a_Node000004"><a xlink:href="main_8c.html" target="_top" xlink:title=" ">
<polygon fill="white" stroke="#666666" points="542,-24.5 480,-24.5 480,-5.5 542,-5.5 542,-24.5"/>
<text text-anchor="middle" x="511" y="-12.5" font-family="Helvetica,sans-Serif" font-size="10.00">src/main.c</text>
</a>
</g>
</g>
<!-- Node1&#45;&gt;Node4 -->
<g id="edge5_Node000001_Node000004" class="edge">
<title>Node1&#45;&gt;Node4</title>
<g id="a_edge5_Node000001_Node000004"><a xlink:title=" ">
<path fill="none" stroke="#63b8ff" d="M433.27,-176.74C419.67,-150.23 400.33,-101.13 421,-66 428.66,-52.98 465.43,-35.36 489.54,-24.89"/>
<polygon fill="#63b8ff" stroke="#63b8ff" points="430.05,-178.15 437.89,-185.28 436.21,-174.82 430.05,-178.15"/>
</a>
</g>
</g>
<!-- Node5 -->
<g id="Node000005" class="node">
<title>Node5</title>
<g id="a_Node000005"><a xlink:href="workload_8c.html" target="_top" xlink:title=" ">
<polygon fill="white" stroke="#666666" points="656.5,-151 555.5,-151 555.5,-132 656.5,-132 656.5,-151"/>
<text text-anchor="middle" x="606" y="-139" font-family="Helvetica,sans-Serif" font-size="10.00">src/core/workload.c</text>
</a>
</g>
</g>
<!-- Node1&#45;&gt;Node5 -->
<g id="edge4_Node000001_Node000005" class="edge">
<title>Node1&#45;&gt;Node5</title>
<g id="a_edge4_Node000001_Node000005"><a xlink:title=" ">
<path fill="none" stroke="#63b8ff" d="M482.26,-182.98C511.89,-173.29 552.21,-160.1 578.65,-151.45"/>
<polygon fill="#63b8ff" stroke="#63b8ff" points="481.34,-179.6 472.92,-186.04 483.51,-186.26 481.34,-179.6"/>
</a>
</g>
</g>
<!-- Node6 -->
<g id="Node000006" class="node">
<title>Node6</title>
<g id="a_Node000006"><a xlink:href="policy_8h.html" target="_top" xlink:title=" ">
<polygon fill="white" stroke="#666666" points="537.5,-151 434.5,-151 434.5,-132 537.5,-132 537.5,-151"/>
<text text-anchor="middle" x="486" y="-139" font-family="Helvetica,sans-Serif" font-size="10.00">src/policies/policy.h</text>
</a>
</g>
</g>
<!-- Node1&#45;&gt;Node6 -->
<g id="edge6_Node000001_Node000006" class="edge">
<title>Node1&#45;&gt;Node6</title>
<g id="a_edge6_Node000001_Node000006"><a xlink:title=" ">
<path fill="none" stroke="#63b8ff" d="M457.92,-177.93C464.96,-169.06 473.19,-158.67 478.91,-151.44"/>
<polygon fill="#63b8ff" stroke="#63b8ff" points="455.34,-175.55 451.88,-185.56 460.83,-179.9 455.34,-175.55"/>
</a>
</g>
</g>
<!-- Node3 -->
<g id="Node000003" class="node">
<title>Node3</title>
<g id="a_Node000003"><a xlink:href="engine_8c.html" target="_top" xlink:title=" ">
<polygon fill="white" stroke="#666666" points="92,-24.5 0,-24.5 0,-5.5 92,-5.5 92,-24.5"/>
<text text-anchor="middle" x="46" y="-12.5" font-family="Helvetica,sans-Serif" font-size="10.00">src/core/engine.c</text>
</a>
</g>
</g>
<!-- Node2&#45;&gt;Node3 -->
<g id="edge2_Node000002_Node000003" class="edge">
<title>Node2&#45;&gt;Node3</title>
<g id="a_edge2_Node000002_Node000003"><a xlink:title=" ">
<path fill="none" stroke="#63b8ff" d="M75.88,-61.53C67.96,-49.46 57.98,-34.25 51.79,-24.82"/>
<polygon fill="#63b8ff" stroke="#63b8ff" points="72.92,-63.4 81.33,-69.84 78.77,-59.55 72.92,-63.4"/>
</a>
</g>
</g>
<!-- Node2&#45;&gt;Node4 -->
<g id="edge3_Node000002_Node000004" class="edge">
<title>Node2&#45;&gt;Node4</title>
<g id="a_edge3_Node000002_Node000004"><a xlink:title=" ">
<path fill="none" stroke="#63b8ff" d="M131.2,-68.4C135.17,-67.52 139.15,-66.7 143,-66 287.3,-39.85 327.98,-62.43 471,-30 476.74,-28.7 482.8,-26.84 488.42,-24.91"/>
<polygon fill="#63b8ff" stroke="#63b8ff" points="130.51,-64.96 121.59,-70.67 132.13,-71.78 130.51,-64.96"/>
</a>
</g>
</g>
<!-- Node6&#45;&gt;Node2 -->
<g id="edge7_Node000006_Node000002" class="edge">
<title>Node6&#45;&gt;Node2</title>
<g id="a_edge7_Node000006_Node000002"><a xlink:title=" ">
<path fill="none" stroke="#63b8ff" d="M423.16,-134.64C354.1,-127.66 240.07,-114.58 143,-96 135.65,-94.59 127.81,-92.79 120.43,-90.94"/>
<polygon fill="#63b8ff" stroke="#63b8ff" points="422.46,-138.09 432.76,-135.6 423.16,-131.12 422.46,-138.09"/>
</a>
</g>
</g>
<!-- Node7 -->
<g id="Node000007" class="node">
<title>Node7</title>
<g id="a_Node000007"><a xlink:href="avoidance__nohold_8h.html" target="_top" xlink:title=" ">
<polygon fill="white" stroke="#666666" points="542,-96 430,-96 430,-66 542,-66 542,-96"/>
<text text-anchor="start" x="438" y="-84" font-family="Helvetica,sans-Serif" font-size="10.00">src/policies/avoidance</text>
<text text-anchor="middle" x="486" y="-73" font-family="Helvetica,sans-Serif" font-size="10.00">_nohold.h</text>
</a>
</g>
</g>
<!-- Node6&#45;&gt;Node7 -->
<g id="edge8_Node000006_Node000007" class="edge">
<title>Node6&#45;&gt;Node7</title>
<g id="a_edge8_Node000006_Node000007"><a xlink:title=" ">
<path fill="none" stroke="#63b8ff" d="M486,-120.51C486,-112.49 486,-103.43 486,-96.11"/>
<polygon fill="#63b8ff" stroke="#63b8ff" points="482.5,-120.35 486,-130.35 489.5,-120.35 482.5,-120.35"/>
</a>
</g>
</g>
<!-- Node9 -->
<g id="Node000009" class="node">
<title>Node9</title>
<g id="a_Node000009"><a xlink:href="avoidance__ordering_8h.html" target="_top" xlink:title=" ">
<polygon fill="white" stroke="#666666" points="672,-96 560,-96 560,-66 672,-66 672,-96"/>
<text text-anchor="start" x="568" y="-84" font-family="Helvetica,sans-Serif" font-size="10.00">src/policies/avoidance</text>
<text text-anchor="middle" x="616" y="-73" font-family="Helvetica,sans-Serif" font-size="10.00">_ordering.h</text>
</a>
</g>
</g>
<!-- Node6&#45;&gt;Node9 -->
<g id="edge11_Node000006_Node000009" class="edge">
<title>Node6&#45;&gt;Node9</title>
<g id="a_edge11_Node000006_Node000009"><a xlink:title=" ">
<path fill="none" stroke="#63b8ff" d="M516,-127C536.33,-117.85 563.16,-105.78 583.91,-96.44"/>
<polygon fill="#63b8ff" stroke="#63b8ff" points="514.81,-123.7 507.12,-130.99 517.68,-130.08 514.81,-123.7"/>
</a>
</g>
</g>
<!-- Node11 -->
<g id="Node000011" class="node">
<title>Node11</title>
<g id="a_Node000011"><a xlink:href="avoidance__preempt_8h.html" target="_top" xlink:title=" ">
<polygon fill="white" stroke="#666666" points="802,-96 690,-96 690,-66 802,-66 802,-96"/>
<text text-anchor="start" x="698" y="-84" font-family="Helvetica,sans-Serif" font-size="10.00">src/policies/avoidance</text>
<text text-anchor="middle" x="746" y="-73" font-family="Helvetica,sans-Serif" font-size="10.00">_preempt.h</text>
</a>
</g>
</g>
<!-- Node6&#45;&gt;Node11 -->
<g id="edge14_Node000006_Node000011" class="edge">
<title>Node6&#45;&gt;Node11</title>
<g id="a_edge14_Node000006_Node000011"><a xlink:title=" ">
<path fill="none" stroke="#63b8ff" d="M536.79,-129.07C580.79,-119.17 644.34,-104.87 689.84,-94.64"/>
<polygon fill="#63b8ff" stroke="#63b8ff" points="536.24,-125.61 527.25,-131.22 537.77,-132.44 536.24,-125.61"/>
</a>
</g>
</g>
<!-- Node13 -->
<g id="Node000013" class="node">
<title>Node13</title>
<g id="a_Node000013"><a xlink:href="detector__matrix_8h.html" target="_top" xlink:title=" ">
<polygon fill="white" stroke="#666666" points="924,-96 820,-96 820,-66 924,-66 924,-96"/>
<text text-anchor="start" x="828" y="-84" font-family="Helvetica,sans-Serif" font-size="10.00">src/policies/detector</text>
<text text-anchor="middle" x="872" y="-73" font-family="Helvetica,sans-Serif" font-size="10.00">_matrix.h</text>
</a>
</g>
</g>
<!-- Node6&#45;&gt;Node13 -->
<g id="edge17_Node000006_Node000013" class="edge">
<title>Node6&#45;&gt;Node13</title>
<g id="a_edge17_Node000006_Node000013"><a xlink:title=" ">
<path fill="none" stroke="#63b8ff" d="M549.13,-131.72C666.22,-115.89 698.03,-116.62 811,-96 813.89,-95.47 816.84,-94.9 819.82,-94.3"/>
<polygon fill="#63b8ff" stroke="#63b8ff" points="548.85,-128.23 539.41,-133.05 549.79,-135.17 548.85,-128.23"/>
</a>
</g>
</g>
<!-- Node15 -->
<g id="Node000015" class="node">
<title>Node15</title>
<g id="a_Node000015"><a xlink:href="detector__wfg_8h.html" target="_top" xlink:title=" ">
<polygon fill="white" stroke="#666666" points="1046,-96 942,-96 942,-66 1046,-66 1046,-96"/>
<text text-anchor="start" x="950" y="-84" font-family="Helvetica,sans-Serif" font-size="10.00">src/policies/detector</text>
<text text-anchor="middle" x="994" y="-73" font-family="Helvetica,sans-Serif" font-size="10.00">_wfg.h</text>
</a>
</g>
</g>
<!-- Node6&#45;&gt;Node15 -->
<g id="edge20_Node000006_Node000015" class="edge">
<title>Node6&#45;&gt;Node15</title>
<g id="a_edge20_Node000006_Node000015"><a xlink:title=" ">
<path fill="none" stroke="#63b8ff" d="M549.33,-131.8C720.13,-112.57 766.54,-122.74 933,-96 935.79,-95.55 938.64,-95.05 941.51,-94.51"/>
<polygon fill="#63b8ff" stroke="#63b8ff" points="548.93,-128.32 539.4,-132.93 549.73,-135.27 548.93,-128.32"/>
</a>
</g>
</g>
<!-- Node17 -->
<g id="Node000017" class="node">
<title>Node17</title>
<g id="a_Node000017"><a xlink:href="prevention__banker_8h.html" target="_top" xlink:title=" ">
<polygon fill="white" stroke="#666666" points="1177.5,-96 1064.5,-96 1064.5,-66 1177.5,-66 1177.5,-96"/>
<text text-anchor="start" x="1072.5" y="-84" font-family="Helvetica,sans-Serif" font-size="10.00">src/policies/prevention</text>
<text text-anchor="middle" x="1121" y="-73" font-family="Helvetica,sans-Serif" font-size="10.00">_banker.h</text>
</a>
</g>
</g>
<!-- Node6&#45;&gt;Node17 -->
<g id="edge23_Node000006_Node000017" class="edge">
<title>Node6&#45;&gt;Node17</title>
<g id="a_edge23_Node000006_Node000017"><a xlink:title=" ">
<path fill="none" stroke="#63b8ff" d="M549.07,-131.87C774.04,-108.97 834.48,-127.05 1055,-96 1058.02,-95.58 1061.1,-95.09 1064.21,-94.57"/>
<polygon fill="#63b8ff" stroke="#63b8ff" points="548.98,-128.36 539.39,-132.87 549.7,-135.32 548.98,-128.36"/>
</a>
</g>
</g>
<!-- Node19 -->
<g id="Node000019" class="node">
<title>Node19</title>
<g id="a_Node000019"><a xlink:href="resolver__abort_8h.html" target="_top" xlink:title=" ">
<polygon fill="white" stroke="#666666" points="254,-96 152,-96 152,-66 254,-66 254,-96"/>
<text text-anchor="start" x="160" y="-84" font-family="Helvetica,sans-Serif" font-size="10.00">src/policies/resolver</text>
<text text-anchor="middle" x="203" y="-73" font-family="Helvetica,sans-Serif" font-size="10.00">_abort.h</text>
</a>
</g>
</g>
<!-- Node6&#45;&gt;Node19 -->
<g id="edge26_Node000006_Node000019" class="edge">
<title>Node6&#45;&gt;Node19</title>
<g id="a_edge26_Node000006_Node000019"><a xlink:title=" ">
<path fill="none" stroke="#63b8ff" d="M427.89,-129.44C382.83,-120.73 318.85,-108.08 263,-96 260.18,-95.39 257.28,-94.75 254.36,-94.1"/>
<polygon fill="#63b8ff" stroke="#63b8ff" points="426.96,-132.82 437.44,-131.28 428.28,-125.95 426.96,-132.82"/>
</a>
</g>
</g>
<!-- Node21 -->
<g id="Node000021" class="node">
<title>Node21</title>
<g id="a_Node000021"><a xlink:href="resolver__rollback_8h.html" target="_top" xlink:title=" ">
<polygon fill="white" stroke="#666666" points="374,-96 272,-96 272,-66 374,-66 374,-96"/>
<text text-anchor="start" x="280" y="-84" font-family="Helvetica,sans-Serif" font-size="10.00">src/policies/resolver</text>
<text text-anchor="middle" x="323" y="-73" font-family="Helvetica,sans-Serif" font-size="10.00">_rollback.h</text>
</a>
</g>
</g>
<!-- Node6&#45;&gt;Node21 -->
<g id="edge29_Node000006_Node000021" class="edge">
<title>Node6&#45;&gt;Node21</title>
<g id="a_edge29_Node000006_Node000021"><a xlink:title=" ">
<path fill="none" stroke="#63b8ff" d="M450.48,-127.75C424.76,-118.52 389.97,-106.04 363.23,-96.44"/>
<polygon fill="#63b8ff" stroke="#63b8ff" points="449.22,-131.02 459.82,-131.1 451.59,-124.43 449.22,-131.02"/>
</a>
</g>
</g>
<!-- Node7&#45;&gt;Node4 -->
<g id="edge9_Node000007_Node000004" class="edge">
<title>Node7&#45;&gt;Node4</title>
<g id="a_edge9_Node000007_Node000004"><a xlink:title=" ">
<path fill="none" stroke="#63b8ff" d="M495.66,-55.27C499.85,-44.55 504.48,-32.7 507.55,-24.84"/>
<polygon fill="#63b8ff" stroke="#63b8ff" points="492.48,-53.8 492.1,-64.39 499,-56.35 492.48,-53.8"/>
</a>
</g>
</g>
<!-- Node8 -->
<g id="Node000008" class="node">
<title>Node8</title>
<g id="a_Node000008"><a xlink:href="avoidance__nohold_8c.html" target="_top" xlink:title=" ">
<polygon fill="white" stroke="#666666" points="462,-30 350,-30 350,0 462,0 462,-30"/>
<text text-anchor="start" x="358" y="-18" font-family="Helvetica,sans-Serif" font-size="10.00">src/policies/avoidance</text>
<text text-anchor="middle" x="406" y="-7" font-family="Helvetica,sans-Serif" font-size="10.00">_nohold.c</text>
</a>
</g>
</g>
<!-- Node7&#45;&gt;Node8 -->
<g id="edge10_Node000007_Node000008" class="edge">
<title>Node7&#45;&gt;Node8</title>
<g id="a_edge10_Node000007_Node000008"><a xlink:title=" ">
<path fill="none" stroke="#63b8ff" d="M459.37,-58.7C447.74,-49.4 434.41,-38.73 423.98,-30.39"/>
<polygon fill="#63b8ff" stroke="#63b8ff" points="457.07,-61.34 467.06,-64.85 461.44,-55.87 457.07,-61.34"/>
</a>
</g>
</g>
<!-- Node9&#45;&gt;Node4 -->
<g id="edge12_Node000009_Node000004" class="edge">
<title>Node9&#45;&gt;Node4</title>
<g id="a_edge12_Node000009_Node000004"><a xlink:title=" ">
<path fill="none" stroke="#63b8ff" d="M582.84,-59.79C563.66,-48.1 540.49,-33.97 525.74,-24.99"/>
<polygon fill="#63b8ff" stroke="#63b8ff" points="580.78,-62.63 591.14,-64.85 584.43,-56.66 580.78,-62.63"/>
</a>
</g>
</g>
<!-- Node10 -->
<g id="Node000010" class="node">
<title>Node10</title>
<g id="a_Node000010"><a xlink:href="avoidance__ordering_8c.html" target="_top" xlink:title=" ">
<polygon fill="white" stroke="#666666" points="672,-30 560,-30 560,0 672,0 672,-30"/>
<text text-anchor="start" x="568" y="-18" font-family="Helvetica,sans-Serif" font-size="10.00">src/policies/avoidance</text>
<text text-anchor="middle" x="616" y="-7" font-family="Helvetica,sans-Serif" font-size="10.00">_ordering.c</text>
</a>
</g>
</g>
<!-- Node9&#45;&gt;Node10 -->
<g id="edge13_Node000009_Node000010" class="edge">
<title>Node9&#45;&gt;Node10</title>
<g id="a_edge13_Node000009_Node000010"><a xlink:title=" ">
<path fill="none" stroke="#63b8ff" d="M616,-54.39C616,-46.13 616,-37.28 616,-30.16"/>
<polygon fill="#63b8ff" stroke="#63b8ff" points="612.5,-54.28 616,-64.28 619.5,-54.28 612.5,-54.28"/>
</a>
</g>
</g>
<!-- Node11&#45;&gt;Node4 -->
<g id="edge15_Node000011_Node000004" class="edge">
<title>Node11&#45;&gt;Node4</title>
<g id="a_edge15_Node000011_Node000004"><a xlink:title=" ">
<path fill="none" stroke="#63b8ff" d="M678.87,-64.29C641.09,-55.08 593.17,-42.76 551,-30 545.93,-28.47 540.55,-26.69 535.43,-24.92"/>
<polygon fill="#63b8ff" stroke="#63b8ff" points="677.74,-67.62 688.28,-66.57 679.39,-60.82 677.74,-67.62"/>
</a>
</g>
</g>
<!-- Node12 -->
<g id="Node000012" class="node">
<title>Node12</title>
<g id="a_Node000012"><a xlink:href="avoidance__preempt_8c.html" target="_top" xlink:title=" ">
<polygon fill="white" stroke="#666666" points="802,-30 690,-30 690,0 802,0 802,-30"/>
<text text-anchor="start" x="698" y="-18" font-family="Helvetica,sans-Serif" font-size="10.00">src/policies/avoidance</text>
<text text-anchor="middle" x="746" y="-7" font-family="Helvetica,sans-Serif" font-size="10.00">_preempt.c</text>
</a>
</g>
</g>
<!-- Node11&#45;&gt;Node12 -->
<g id="edge16_Node000011_Node000012" class="edge">
<title>Node11&#45;&gt;Node12</title>
<g id="a_edge16_Node000011_Node000012"><a xlink:title=" ">
<path fill="none" stroke="#63b8ff" d="M746,-54.39C746,-46.13 746,-37.28 746,-30.16"/>
<polygon fill="#63b8ff" stroke="#63b8ff" points="742.5,-54.28 746,-64.28 749.5,-54.28 742.5,-54.28"/>
</a>
</g>
</g>
<!-- Node13&#45;&gt;Node4 -->
<g id="edge18_Node000013_Node000004" class="edge">
<title>Node13&#45;&gt;Node4</title>
<g id="a_edge18_Node000013_Node000004"><a xlink:title=" ">
<path fill="none" stroke="#63b8ff" d="M808.5,-65.67C694.19,-45.67 660.85,-56.55 551,-30 545.42,-28.65 539.53,-26.83 534.03,-24.94"/>
<polygon fill="#63b8ff" stroke="#63b8ff" points="807.87,-69.11 818.33,-67.44 809.11,-62.23 807.87,-69.11"/>
</a>
</g>
</g>
<!-- Node14 -->
<g id="Node000014" class="node">
<title>Node14</title>
<g id="a_Node000014"><a xlink:href="detector__matrix_8c.html" target="_top" xlink:title=" ">
<polygon fill="white" stroke="#666666" points="924,-30 820,-30 820,0 924,0 924,-30"/>
<text text-anchor="start" x="828" y="-18" font-family="Helvetica,sans-Serif" font-size="10.00">src/policies/detector</text>
<text text-anchor="middle" x="872" y="-7" font-family="Helvetica,sans-Serif" font-size="10.00">_matrix.c</text>
</a>
</g>
</g>
<!-- Node13&#45;&gt;Node14 -->
<g id="edge19_Node000013_Node000014" class="edge">
<title>Node13&#45;&gt;Node14</title>
<g id="a_edge19_Node000013_Node000014"><a xlink:title=" ">
<path fill="none" stroke="#63b8ff" d="M872,-54.39C872,-46.13 872,-37.28 872,-30.16"/>
<polygon fill="#63b8ff" stroke="#63b8ff" points="868.5,-54.28 872,-64.28 875.5,-54.28 868.5,-54.28"/>
</a>
</g>
</g>
<!-- Node15&#45;&gt;Node4 -->
<g id="edge21_Node000015_Node000004" class="edge">
<title>Node15&#45;&gt;Node4</title>
<g id="a_edge21_Node000015_Node000004"><a xlink:title=" ">
<path fill="none" stroke="#63b8ff" d="M930.29,-65.72C762.57,-40.02 714.01,-65.65 551,-30 545.25,-28.74 539.19,-26.9 533.57,-24.97"/>
<polygon fill="#63b8ff" stroke="#63b8ff" points="929.6,-69.16 940.02,-67.26 930.69,-62.24 929.6,-69.16"/>
</a>
</g>
</g>
<!-- Node16 -->
<g id="Node000016" class="node">
<title>Node16</title>
<g id="a_Node000016"><a xlink:href="detector__wfg_8c.html" target="_top" xlink:title=" ">
<polygon fill="white" stroke="#666666" points="1046,-30 942,-30 942,0 1046,0 1046,-30"/>
<text text-anchor="start" x="950" y="-18" font-family="Helvetica,sans-Serif" font-size="10.00">src/policies/detector</text>
<text text-anchor="middle" x="994" y="-7" font-family="Helvetica,sans-Serif" font-size="10.00">_wfg.c</text>
</a>
</g>
</g>
<!-- Node15&#45;&gt;Node16 -->
<g id="edge22_Node000015_Node000016" class="edge">
<title>Node15&#45;&gt;Node16</title>
<g id="a_edge22_Node000015_Node000016"><a xlink:title=" ">
<path fill="none" stroke="#63b8ff" d="M994,-54.39C994,-46.13 994,-37.28 994,-30.16"/>
<polygon fill="#63b8ff" stroke="#63b8ff" points="990.5,-54.28 994,-64.28 997.5,-54.28 990.5,-54.28"/>
</a>
</g>
</g>
<!-- Node17&#45;&gt;Node4 -->
<g id="edge24_Node000017_Node000004" class="edge">
<title>Node17&#45;&gt;Node4</title>
<g id="a_edge24_Node000017_Node000004"><a xlink:title=" ">
<path fill="none" stroke="#63b8ff" d="M1052.81,-65.86C830.54,-35.96 767.26,-74.74 551,-30 545.09,-28.78 538.86,-26.9 533.13,-24.92"/>
<polygon fill="#63b8ff" stroke="#63b8ff" points="1052.32,-69.33 1062.71,-67.23 1053.28,-62.39 1052.32,-69.33"/>
</a>
</g>
</g>
<!-- Node18 -->
<g id="Node000018" class="node">
<title>Node18</title>
<g id="a_Node000018"><a xlink:href="prevention__banker_8c.html" target="_top" xlink:title=" ">
<polygon fill="white" stroke="#666666" points="1177.5,-30 1064.5,-30 1064.5,0 1177.5,0 1177.5,-30"/>
<text text-anchor="start" x="1072.5" y="-18" font-family="Helvetica,sans-Serif" font-size="10.00">src/policies/prevention</text>
<text text-anchor="middle" x="1121" y="-7" font-family="Helvetica,sans-Serif" font-size="10.00">_banker.c</text>
</a>
</g>
</g>
<!-- Node17&#45;&gt;Node18 -->
<g id="edge25_Node000017_Node000018" class="edge">
<title>Node17&#45;&gt;Node18</title>
<g id="a_edge25_Node000017_Node000018"><a xlink:title=" ">
<path fill="none" stroke="#63b8ff" d="M1121,-54.39C1121,-46.13 1121,-37.28 1121,-30.16"/>
<polygon fill="#63b8ff" stroke="#63b8ff" points="1117.5,-54.28 1121,-64.28 1124.5,-54.28 1117.5,-54.28"/>
</a>
</g>
</g>
<!-- Node19&#45;&gt;Node4 -->
<g id="edge27_Node000019_Node000004" class="edge">
<title>Node19&#45;&gt;Node4</title>
<g id="a_edge27_Node000019_Node000004"><a xlink:title=" ">
<path fill="none" stroke="#63b8ff" d="M265.52,-65.59C356.96,-47.77 383.65,-52.68 471,-30 476.41,-28.59 482.14,-26.79 487.51,-24.95"/>
<polygon fill="#63b8ff" stroke="#63b8ff" points="264.95,-62.13 255.83,-67.52 266.32,-69 264.95,-62.13"/>
</a>
</g>
</g>
<!-- Node20 -->
<g id="Node000020" class="node">
<title>Node20</title>
<g id="a_Node000020"><a xlink:href="resolver__abort_8c.html" target="_top" xlink:title=" ">
<polygon fill="white" stroke="#666666" points="212,-30 110,-30 110,0 212,0 212,-30"/>
<text text-anchor="start" x="118" y="-18" font-family="Helvetica,sans-Serif" font-size="10.00">src/policies/resolver</text>
<text text-anchor="middle" x="161" y="-7" font-family="Helvetica,sans-Serif" font-size="10.00">_abort.c</text>
</a>
</g>
</g>
<!-- Node19&#45;&gt;Node20 -->
<g id="edge28_Node000019_Node000020" class="edge">
<title>Node19&#45;&gt;Node20</title>
<g id="a_edge28_Node000019_Node000020"><a xlink:title=" ">
<path fill="none" stroke="#63b8ff" d="M187.51,-56.39C181.73,-47.59 175.35,-37.86 170.3,-30.16"/>
<polygon fill="#63b8ff" stroke="#63b8ff" points="184.44,-58.09 192.85,-64.53 190.29,-54.25 184.44,-58.09"/>
</a>
</g>
</g>
<!-- Node21&#45;&gt;Node4 -->
<g id="edge30_Node000021_Node000004" class="edge">
<title>Node21&#45;&gt;Node4</title>
<g id="a_edge30_Node000021_Node000004"><a xlink:title=" ">
<path fill="none" stroke="#63b8ff" d="M376.91,-61.95C404.98,-52.5 439.87,-40.71 471,-30 475.73,-28.37 480.77,-26.62 485.62,-24.93"/>
<polygon fill="#63b8ff" stroke="#63b8ff" points="375.91,-58.59 367.54,-65.09 378.14,-65.22 375.91,-58.59"/>
</a>
</g>
</g>
<!-- Node22 -->
<g id="Node000022" class="node">
<title>Node22</title>
<g id="a_Node000022"><a xlink:href="resolver__rollback_8c.html" target="_top" xlink:title=" ">
<polygon fill="white" stroke="#666666" points="332,-30 230,-30 230,0 332,0 332,-30"/>
<text text-anchor="start" x="238" y="-18" font-family="Helvetica,sans-Serif" font-size="10.00">src/policies/resolver</text>
<text text-anchor="middle" x="281" y="-7" font-family="Helvetica,sans-Serif" font-size="10.00">_rollback.c</text>
</a>
</g>
</g>
<!-- Node21&#45;&gt;Node22 -->
<g id="edge31_Node000021_Node000022" class="edge">
<title>Node21&#45;&gt;Node22</title>
<g id="a_edge31_Node000021_Node000022"><a xlink:title=" ">
<path fill="none" stroke="#63b8ff" d="M307.51,-56.39C301.73,-47.59 295.35,-37.86 290.3,-30.16"/>
<polygon fill="#63b8ff" stroke="#63b8ff" points="304.44,-58.09 312.85,-64.53 310.29,-54.25 304.44,-58.09"/>
</a>
</g>
</g>
</g>
</svg>
