<?xml version="1.0" encoding="UTF-8" standalone="no"?>
<!DOCTYPE svg PUBLIC "-//W3C//DTD SVG 1.1//EN"
 "http://www.w3.org/Graphics/SVG/1.1/DTD/svg11.dtd">
<!-- Generated by graphviz version 7.1.0 (20230121.1956)
 -->
<!-- Title: load_workload_csv Pages: 1 -->
<svg width="314pt" height="101pt"
 viewBox="0.00 0.00 314.00 101.00" xmlns="http://www.w3.org/2000/svg" xmlns:xlink="http://www.w3.org/1999/xlink">
<g id="graph0" class="graph" transform="scale(1 1) rotate(0) translate(4 97)">
<title>load_workload_csv</title>
<!-- Node1 -->
<g id="Node000001" class="node">
<title>Node1</title>
<g id="a_Node000001"><a xlink:title=" ">
<polygon fill="#999999" stroke="#666666" points="98,-56 0,-56 0,-37 98,-37 98,-56"/>
<text text-anchor="middle" x="49" y="-44" font-family="Helvetica,sans-Serif" font-size="10.00">load_workload_csv</text>
</a>
</g>
</g>
<!-- Node2 -->
<g id="Node000002" class="node">
<title>Node2</title>
<g id="a_Node000002"><a xlink:href="workload_8c.html#a080aac891486fed820877bbc65e14677" target="_top" xlink:title=" ">
<polygon fill="white" stroke="#666666" points="226,-93 134,-93 134,-74 226,-74 226,-93"/>
<text text-anchor="middle" x="180" y="-81" font-family="Helvetica,sans-Serif" font-size="10.00">parse_event_type</text>
</a>
</g>
</g>
<!-- Node1&#45;&gt;Node2 -->
<g id="edge1_Node000001_Node000002" class="edge">
<title>Node1&#45;&gt;Node2</title>
<g id="a_edge1_Node000001_Node000002"><a xlink:title=" ">
<path fill="none" stroke="#63b8ff" d="M84.57,-56.42C99.61,-60.73 117.44,-65.84 133.53,-70.46"/>
<polygon fill="#63b8ff" stroke="#63b8ff" points="132.3,-73.75 142.88,-73.14 134.23,-67.02 132.3,-73.75"/>
</a>
</g>
</g>
<!-- Node4 -->
<g id="Node000004" class="node">
<title>Node4</title>
<g id="a_Node000004"><a xlink:href="util_8c.html#addd9f5589c47baf239b4f3a42bfba9c7" target="_top" xlink:title=" ">
<polygon fill="white" stroke="#666666" points="207,-56 153,-56 153,-37 207,-37 207,-56"/>
<text text-anchor="middle" x="180" y="-44" font-family="Helvetica,sans-Serif" font-size="10.00">split_csv</text>
</a>
</g>
</g>
<!-- Node1&#45;&gt;Node4 -->
<g id="edge3_Node000001_Node000004" class="edge">
<title>Node1&#45;&gt;Node4</title>
<g id="a_edge3_Node000001_Node000004"><a xlink:title=" ">
<path fill="none" stroke="#63b8ff" d="M98.4,-46.5C112.67,-46.5 128.06,-46.5 141.53,-46.5"/>
<polygon fill="#63b8ff" stroke="#63b8ff" points="141.28,-50 151.28,-46.5 141.28,-43 141.28,-50"/>
</a>
</g>
</g>
<!-- Node6 -->
<g id="Node000006" class="node">
<title>Node6</title>
<g id="a_Node000006"><a xlink:href="util_8c.html#a1809d2fe163b346842b75347d27d6107" target="_top" xlink:title=" ">
<polygon fill="white" stroke="#666666" points="200.5,-19 159.5,-19 159.5,0 200.5,0 200.5,-19"/>
<text text-anchor="middle" x="180" y="-7" font-family="Helvetica,sans-Serif" font-size="10.00">to_int</text>
</a>
</g>
</g>
<!-- Node1&#45;&gt;Node6 -->
<g id="edge5_Node000001_Node000006" class="edge">
<title>Node1&#45;&gt;Node6</title>
<g id="a_edge5_Node000001_Node000006"><a xlink:title=" ">
<path fill="none" stroke="#63b8ff" d="M84.57,-36.58C104.44,-30.89 129.18,-23.79 148.35,-18.29"/>
<polygon fill="#63b8ff" stroke="#63b8ff" points="149.09,-21.72 157.74,-15.6 147.16,-14.99 149.09,-21.72"/>
</a>
</g>
</g>
<!-- Node3 -->
<g id="Node000003" class="node">
<title>Node3</title>
<g id="a_Node000003"><a xlink:href="util_8c.html#a287ce1feefaf765ad7ea77b09a8a3cc5" target="_top" xlink:title=" ">
<polygon fill="white" stroke="#666666" points="306,-93 262,-93 262,-74 306,-74 306,-93"/>
<text text-anchor="middle" x="284" y="-81" font-family="Helvetica,sans-Serif" font-size="10.00">str_eq</text>
</a>
</g>
</g>
<!-- Node2&#45;&gt;Node3 -->
<g id="edge2_Node000002_Node000003" class="edge">
<title>Node2&#45;&gt;Node3</title>
<g id="a_edge2_Node000002_Node000003"><a xlink:title=" ">
<path fill="none" stroke="#63b8ff" d="M226.33,-83.5C234.36,-83.5 242.58,-83.5 250.18,-83.5"/>
<polygon fill="#63b8ff" stroke="#63b8ff" points="249.99,-87 259.99,-83.5 249.99,-80 249.99,-87"/>
</a>
</g>
</g>
<!-- Node5 -->
<g id="Node000005" class="node">
<title>Node5</title>
<g id="a_Node000005"><a xlink:href="util_8c.html#a11e4cc2c4091382952e3cc3cf2a7bb04" target="_top" xlink:title=" ">
<polygon fill="white" stroke="#666666" points="300.5,-56 267.5,-56 267.5,-37 300.5,-37 300.5,-56"/>
<text text-anchor="middle" x="284" y="-44" font-family="Helvetica,sans-Serif" font-size="10.00">trim</text>
</a>
</g>
</g>
<!-- Node4&#45;&gt;Node5 -->
<g id="edge4_Node000004_Node000005" class="edge">
<title>Node4&#45;&gt;Node5</title>
<g id="a_edge4_Node000004_Node000005"><a xlink:title=" ">
<path fill="none" stroke="#63b8ff" d="M207.27,-46.5C222.17,-46.5 240.79,-46.5 255.84,-46.5"/>
<polygon fill="#63b8ff" stroke="#63b8ff" points="255.49,-50 265.49,-46.5 255.49,-43 255.49,-50"/>
</a>
</g>
</g>
</g>
</svg>
